<?xml version="1.0" encoding="utf-8"?>
<!-- Generator: Adobe Illustrator 16.0.1, SVG Export Plug-In . SVG Version: 6.00 Build 0)  -->
<!DOCTYPE svg PUBLIC "-//W3C//DTD SVG 1.0//EN" "http://www.w3.org/TR/2001/REC-SVG-20010904/DTD/svg10.dtd">
<svg version="1.0" id="Layer_1" xmlns="http://www.w3.org/2000/svg" xmlns:xlink="http://www.w3.org/1999/xlink" x="0px" y="0px"
	 width="57.35px" height="80.676px" viewBox="0 0 57.35 80.676" style="enable-background:new 0 0 57.35 80.676;"
	 xml:space="preserve">
<g>
	<ellipse style="opacity:0.25;fill:#6D6E71;" cx="28.677" cy="78.08" rx="10.573" ry="2.596"/>
	<path style="fill:#00B4CC;" d="M28.674,0C12.836,0,0,12.836,0,28.674C0,44.51,25.088,75.809,25.088,75.809
		c1.969,2.461,5.199,2.461,7.174,0c0,0,25.088-31.297,25.088-47.135C57.346,12.836,44.51,0,28.674,0z"/>
</g>
<g>
	<path style="fill:#FFFFFF;" d="M30.885,19.858c1.68,0,3.049-1.362,3.049-3.046c0-1.682-1.369-3.048-3.049-3.048
		c-1.687,0-3.049,1.366-3.049,3.048C27.835,18.496,29.198,19.858,30.885,19.858z"/>
	<path style="fill:#FFFFFF;" d="M30.143,40.237c-0.445,0.297-1.194,0.817-1.194,0.817l-0.371,0.89l-0.519,0.594h-0.966l-2.307,1.714
		h22.975l-1.038-1.043L45.9,42.39l-1.336,0.073l-0.89-0.965c0,0-0.669-1.112-0.669-1.337c0-0.223,0.149-1.044-0.074-1.188
		c-0.223-0.151-0.97-0.598-0.97-0.598L40.18,38.45l-0.971-1.188l-0.965-1.339l-1.188-0.226c0,0-0.748,0.075-1.039,0.445
		c-0.303,0.374-0.971,0.671-1.639,0.97c-0.187,0.084-0.379,0.178-0.561,0.272l-8.987-7.325l4.34-8.413l-4.385-6.321l-9.221,0
		l-1.212,6.195l-1.79-1.46c-0.384-0.311-0.944-0.256-1.262,0.128c-0.31,0.384-0.249,0.944,0.137,1.254l3.476,2.834l-2.189,2.364
		l0.164,8.246l-2.166,8.005c-0.258,0.951,0.303,1.932,1.254,2.188c0.155,0.04,0.316,0.062,0.465,0.062
		c0.79,0,1.511-0.523,1.728-1.32l2.293-8.499l0.35-6.427l4.562,5.384l-4.256,7.853c-0.465,0.87-0.148,1.953,0.721,2.421
		c0.271,0.149,0.561,0.216,0.851,0.216c0.634,0,1.248-0.337,1.571-0.934l5.411-9.994l-2.169-2.564l8.949,7.296l-0.601,0.841
		C31.85,39.415,30.588,39.938,30.143,40.237z M22.3,27.997l-1.846-1.504l3.443-1.5L22.3,27.997z M17.723,18.598l2.228,0.296
		l-2.895,2.976L17.723,18.598z"/>
</g>
</svg>
