<?xml version="1.0" encoding="utf-8"?>
<!-- Generator: Adobe Illustrator 16.0.1, SVG Export Plug-In . SVG Version: 6.00 Build 0)  -->
<!DOCTYPE svg PUBLIC "-//W3C//DTD SVG 1.0//EN" "http://www.w3.org/TR/2001/REC-SVG-20010904/DTD/svg10.dtd">
<svg version="1.0" id="Layer_1" xmlns="http://www.w3.org/2000/svg" xmlns:xlink="http://www.w3.org/1999/xlink" x="0px" y="0px"
	 width="48px" height="64.998px" viewBox="0 0 48 64.998" enable-background="new 0 0 48 64.998" xml:space="preserve">
<path fill="#EC1C24" d="M23.999,0C10.744,0,0,10.745,0,24.001c0,13.254,20.996,39.451,20.996,39.451
	c1.651,2.061,4.354,2.061,6.007,0c0,0,20.997-26.197,20.997-39.451C47.999,10.745,37.254,0,23.999,0z"/>
<path id="books_3_" fill="#FFFFFF" d="M32.645,16.507c-0.199-0.154-0.452-0.189-0.676-0.092l-10.779,4.669
	c-0.471,0.204-1.058,0.302-1.661,0.302c-0.839,0.002-1.709-0.193-2.315-0.46c-0.217-0.092-0.397-0.196-0.525-0.288
	c0.046-0.023,0.101-0.048,0.163-0.072l9.808-4.246l1.465,0.627v-1.83c0-0.272-0.116-0.529-0.314-0.683
	c-0.198-0.155-0.453-0.189-0.673-0.093L16.344,19.01c-0.333,0.135-0.618,0.298-0.861,0.539c-0.237,0.232-0.442,0.616-0.439,1.044
	c0,0.01,0.003,0.029,0.003,0.029v16.439c0,0.007-0.002,0.014-0.002,0.021c0,0.006,0.002,0.008,0.002,0.014v0.018h0.003
	c0.023,0.582,0.312,0.953,0.589,1.199c0.871,0.768,2.334,1.197,3.889,1.232c0.736,0,1.486-0.117,2.178-0.408l10.783-4.674
	c0.285-0.117,0.471-0.428,0.471-0.77V17.191C32.958,16.919,32.84,16.661,32.645,16.507z"/>
<g>
	<g>
		<path fill="#EC1C24" d="M26.265,25.808c-0.304,0.138-0.659,0.507-0.639,0.907c0.015,0.324,0.178,0.405,0.695,0.275L26.265,25.808"
			/>
		<path fill="#EC1C24" d="M26.783,27.963l0.067,1.396c0.406-0.219,0.784-0.609,0.764-1.078
			C27.595,27.899,27.406,27.846,26.783,27.963"/>
		<path fill="#EC1C24" d="M26.441,29.543l-0.071-1.515c-0.105,0.022-0.149,0.025-0.246,0.042c-0.756,0.143-1.506,0.197-1.552-0.774
			c-0.047-0.995,0.734-1.872,1.651-2.341l-0.026-0.57l0.407-0.185l0.028,0.57c0.932-0.319,1.646-0.199,1.746,0.782l-1.049,0.476
			c-0.029-0.396-0.345-0.548-0.657-0.406l0.061,1.286c0.106-0.014,0.254-0.055,0.387-0.072c1.468-0.265,1.53,0.522,1.555,1.017
			c0.019,0.408-0.35,1.611-1.783,2.357l0.028,0.629l-0.407,0.185l-0.03-0.63c-1.131,0.436-1.784,0.114-1.95-0.94l1.059-0.48
			C25.607,29.488,25.927,29.691,26.441,29.543 M26.324,22.581l-0.592,1.346l-0.984-0.379l-0.22,1.326l-1.177,0.038l0.171,1.175
			l-1.245,0.452l0.539,0.912l-1.202,0.823l0.868,0.546l-1.047,1.118l1.106,0.142l-0.779,1.301l1.228-0.278l-0.434,1.343l1.235-0.673
			l-0.054,1.277l1.13-1.009l0.335,1.074l0.907-1.237l0.691,0.764l0.592-1.347l0.975,0.383l0.222-1.326l1.176-0.039l-0.17-1.174
			l1.253-0.456l-0.548-0.899l1.202-0.823l-0.867-0.555l1.045-1.118l-1.105-0.142l0.788-1.296l-1.235,0.282l0.441-1.356l-1.244,0.678
			l0.055-1.277l-1.132,1.009l-0.334-1.074l-0.897,1.234L26.324,22.581"/>
	</g>
</g>
</svg>
