<?xml version="1.0" encoding="utf-8"?>
<!-- Generator: Adobe Illustrator 16.0.1, SVG Export Plug-In . SVG Version: 6.00 Build 0)  -->
<!DOCTYPE svg PUBLIC "-//W3C//DTD SVG 1.0//EN" "http://www.w3.org/TR/2001/REC-SVG-20010904/DTD/svg10.dtd">
<svg version="1.0" id="Layer_1" xmlns="http://www.w3.org/2000/svg" xmlns:xlink="http://www.w3.org/1999/xlink" x="0px" y="0px"
	 width="48px" height="64.998px" viewBox="0 0 48 64.998" enable-background="new 0 0 48 64.998" xml:space="preserve">
<path fill="#EC1C24" d="M23.999,0C10.744,0,0,10.745,0,24.001c0,13.254,20.996,39.451,20.996,39.451
	c1.651,2.061,4.354,2.061,6.007,0c0,0,20.997-26.197,20.997-39.451C47.999,10.745,37.254,0,23.999,0z"/>
<path id="books_3_" fill="#FFFFFF" d="M32.645,16.507c-0.199-0.154-0.451-0.189-0.676-0.092L21.19,21.084
	c-0.471,0.204-1.058,0.302-1.661,0.302c-0.839,0.002-1.709-0.193-2.315-0.46c-0.217-0.092-0.397-0.196-0.525-0.288
	c0.046-0.023,0.101-0.048,0.163-0.072l9.808-4.246l1.465,0.627v-1.83c0-0.272-0.116-0.529-0.314-0.683
	c-0.197-0.155-0.453-0.189-0.672-0.093L16.344,19.01c-0.333,0.135-0.618,0.298-0.861,0.539c-0.237,0.232-0.442,0.616-0.439,1.044
	c0,0.01,0.003,0.029,0.003,0.029v16.439c0,0.006-0.002,0.014-0.002,0.021c0,0.006,0.002,0.008,0.002,0.015v0.018h0.003
	c0.023,0.582,0.312,0.953,0.589,1.199c0.871,0.768,2.334,1.197,3.889,1.231c0.736,0,1.486-0.116,2.178-0.407l10.782-4.675
	c0.285-0.116,0.472-0.428,0.472-0.771V17.191C32.958,16.919,32.84,16.661,32.645,16.507z"/>
<g>
	<path fill="#EC1C24" d="M26.316,31.06l0.031-2.501c0.279-0.026,0.483-0.001,0.599,0.051c0.193,0.109,0.293,0.337,0.287,0.71
		c-0.005,0.48-0.119,0.873-0.334,1.186C26.782,30.678,26.586,30.863,26.316,31.06 M25.876,26.897
		c-0.251,0.041-0.429,0.031-0.546-0.022c-0.217-0.085-0.315-0.314-0.311-0.667c0.004-0.334,0.076-0.627,0.22-0.891
		c0.145-0.274,0.364-0.493,0.662-0.666L25.876,26.897 M26.424,22.105l-0.495,0.271l-0.01,0.854
		c-0.345,0.229-0.613,0.424-0.795,0.592c-0.299,0.281-0.567,0.633-0.814,1.07c-0.191,0.34-0.336,0.691-0.441,1.071
		c-0.114,0.383-0.166,0.771-0.17,1.165c-0.007,0.607,0.12,1.045,0.382,1.32c0.262,0.285,0.712,0.369,1.361,0.247l0.414-0.07
		l-0.031,2.726c-0.393,0.126-0.648,0.082-0.779-0.129c-0.076-0.143-0.143-0.458-0.183-0.971l-1.381,0.757
		c-0.022,1.182,0.25,1.86,0.833,2.029c0.326,0.092,0.819,0.007,1.492-0.274l-0.015,1.274l0.494-0.271l0.014-1.284
		c0.526-0.337,0.983-0.763,1.38-1.282c0.634-0.825,0.956-1.781,0.969-2.85c0.01-0.814-0.21-1.318-0.66-1.519
		c-0.277-0.11-0.816-0.117-1.62-0.027l0.027-2.432c0.339-0.156,0.571-0.118,0.693,0.117c0.068,0.138,0.12,0.382,0.139,0.742
		l1.343-0.736c-0.006-1.011-0.294-1.583-0.861-1.729c-0.311-0.113-0.74-0.043-1.297,0.204L26.424,22.105"/>
</g>
</svg>
