<?xml version="1.0" encoding="utf-8"?>
<!-- Generator: Adobe Illustrator 16.0.1, SVG Export Plug-In . SVG Version: 6.00 Build 0)  -->
<!DOCTYPE svg PUBLIC "-//W3C//DTD SVG 1.0//EN" "http://www.w3.org/TR/2001/REC-SVG-20010904/DTD/svg10.dtd">
<svg version="1.0" id="Layer_1" xmlns="http://www.w3.org/2000/svg" xmlns:xlink="http://www.w3.org/1999/xlink" x="0px" y="0px"
	 width="29.287px" height="31.717px" viewBox="0 0 29.287 31.717" enable-background="new 0 0 29.287 31.717" xml:space="preserve">
<g>
	<path fill="#4E6FC4" d="M12.662,14.809c0.299-0.295,0.664-0.531,1.14-0.723l8.922-3.859v-2.17c0-0.25-0.109-0.48-0.285-0.623
		c-0.182-0.139-0.41-0.174-0.614-0.086l-9.777,4.238c-0.426,0.186-0.959,0.275-1.504,0.275c-0.764,0.002-1.55-0.174-2.101-0.416
		c-0.197-0.084-0.361-0.182-0.477-0.264c0.043-0.021,0.09-0.043,0.148-0.064l8.895-3.85l1.328,0.566V6.172
		c0-0.246-0.104-0.482-0.284-0.615c-0.181-0.143-0.409-0.174-0.612-0.08l-9.787,4.23c-0.3,0.121-0.561,0.27-0.779,0.49
		c-0.216,0.211-0.402,0.559-0.4,0.945c0,0.008,0.001,0.025,0.001,0.025v12.887c0,0.006,0,0.012,0,0.021c0,0.002,0,0.004,0,0.01
		v0.018h0.005c0.021,0.527,0.281,0.863,0.533,1.088c0.791,0.695,2.117,1.084,3.528,1.115c0.467,0,0.931-0.076,1.386-0.199
		c0-3.826,0-9.545,0-9.559C11.926,15.914,12.2,15.26,12.662,14.809z"/>
	<path fill="#F5634A" d="M16.234,4.604V2.576h0.001c-0.021-0.225-0.108-0.434-0.274-0.566c-0.181-0.139-0.41-0.17-0.613-0.082
		L5.569,6.162C5.144,6.348,4.61,6.438,4.065,6.438C3.303,6.439,2.515,6.262,1.965,6.02c-0.196-0.082-0.36-0.178-0.476-0.264
		c0.041-0.02,0.092-0.041,0.148-0.061l8.894-3.852l1.327,0.568v-1.66c0-0.246-0.105-0.482-0.288-0.619
		c-0.177-0.141-0.411-0.172-0.614-0.082L1.178,4.285C0.874,4.406,0.618,4.559,0.396,4.773C0.182,4.984-0.004,5.332,0,5.719
		C0,5.73,0.002,5.744,0.002,5.744v14.91c0,0.006,0,0.016,0,0.023c0,0.002,0,0.006,0,0.02v0.021h0.002
		c0.021,0.527,0.283,0.863,0.534,1.086c0.791,0.693,2.116,1.074,3.528,1.107c0.38,0,0.763-0.049,1.139-0.119V11.174
		c-0.01-0.711,0.273-1.393,0.771-1.881C6.3,8.977,6.693,8.725,7.181,8.529L16.234,4.604z"/>
	<path fill="#00B4CC" d="M29.002,12.84c-0.181-0.139-0.41-0.172-0.615-0.08l-5.663,2.453l-4.113,1.781
		c-0.426,0.184-0.957,0.273-1.504,0.273c-0.764,0.006-1.552-0.176-2.1-0.414c-0.198-0.086-0.362-0.18-0.477-0.264
		c0.043-0.021,0.091-0.045,0.148-0.066l8.046-3.48l0.849-0.367l1.329,0.566v-1.66c0-0.248-0.105-0.484-0.286-0.619
		c-0.179-0.141-0.409-0.174-0.611-0.08l-1.28,0.555l-8.505,3.676c-0.303,0.123-0.561,0.273-0.78,0.488
		c-0.216,0.213-0.401,0.561-0.399,0.947c0,0.012,0.002,0.025,0.002,0.025v9.135v3.752c0,0.006-0.002,0.012-0.002,0.023
		c0,0.002,0.002,0.006,0.002,0.01v0.018h0.003c0.021,0.527,0.283,0.863,0.534,1.088c0.792,0.695,2.116,1.084,3.528,1.117
		c0.668,0,1.347-0.107,1.972-0.371l9.78-4.24c0.26-0.105,0.428-0.387,0.428-0.695V13.463C29.285,13.213,29.178,12.98,29.002,12.84z"
		/>
</g>
</svg>
