<?xml version="1.0" encoding="utf-8"?>
<!-- Generator: Adobe Illustrator 16.0.1, SVG Export Plug-In . SVG Version: 6.00 Build 0)  -->
<!DOCTYPE svg PUBLIC "-//W3C//DTD SVG 1.0//EN" "http://www.w3.org/TR/2001/REC-SVG-20010904/DTD/svg10.dtd">
<svg version="1.0" id="Layer_1" xmlns="http://www.w3.org/2000/svg" xmlns:xlink="http://www.w3.org/1999/xlink" x="0px" y="0px"
	 width="48px" height="64.998px" viewBox="0 0 48 64.998" enable-background="new 0 0 48 64.998" xml:space="preserve">
<path fill="#CC333F" d="M23.999,0C10.744,0,0,10.745,0,24.001c0,13.254,20.996,39.451,20.996,39.451
	c1.651,2.061,4.354,2.061,6.007,0c0,0,20.997-26.197,20.997-39.451C47.999,10.745,37.254,0,23.999,0z"/>
<path id="books_4_" fill="#FFFFFF" d="M32.645,16.507c-0.199-0.154-0.452-0.189-0.676-0.092l-10.779,4.669
	c-0.471,0.204-1.058,0.302-1.661,0.302c-0.839,0.002-1.709-0.193-2.315-0.46c-0.217-0.092-0.397-0.196-0.525-0.288
	c0.046-0.023,0.101-0.048,0.163-0.072l9.808-4.246l1.465,0.627v-1.83c0-0.272-0.116-0.529-0.314-0.683
	c-0.198-0.155-0.453-0.189-0.673-0.093L16.344,19.01c-0.333,0.135-0.618,0.298-0.861,0.539c-0.237,0.232-0.442,0.616-0.439,1.044
	c0,0.01,0.003,0.029,0.003,0.029v16.439c0,0.007-0.002,0.014-0.002,0.021c0,0.006,0.002,0.008,0.002,0.014v0.018h0.003
	c0.023,0.582,0.312,0.953,0.589,1.199c0.871,0.768,2.334,1.197,3.889,1.232c0.736,0,1.486-0.117,2.178-0.408l10.783-4.674
	c0.285-0.117,0.471-0.428,0.471-0.77V17.191C32.958,16.919,32.84,16.661,32.645,16.507z"/>
<g>
	<polygon fill="#CC333F" points="22.925,37.423 23.736,37.079 23.736,31.103 22.925,31.445 	"/>
	<polygon fill="#CC333F" points="24.588,36.718 24.988,36.548 24.987,30.57 24.587,30.739 	"/>
	<polygon fill="#CC333F" points="24.142,36.908 24.316,36.833 24.315,30.856 24.141,30.93 	"/>
	<polygon fill="#CC333F" points="25.481,36.339 26.433,35.937 26.43,29.958 25.479,30.361 	"/>
	<polygon fill="#CC333F" points="26.832,35.766 27.249,35.589 27.248,29.611 26.829,29.787 	"/>
	<polygon fill="#CC333F" points="29.44,34.658 30.392,34.255 30.39,28.276 29.44,28.681 	"/>
	<polygon fill="#CC333F" points="28.628,35.003 29.045,34.825 29.045,28.848 28.627,29.024 	"/>
	<polygon fill="#CC333F" points="27.775,35.364 28.188,35.189 28.188,29.214 27.774,29.388 	"/>
	<polygon fill="#CC333F" points="31.629,27.751 31.631,33.729 32.043,33.554 32.042,27.575 	"/>
	<polygon fill="#CC333F" points="30.779,34.09 31.19,33.916 31.189,27.938 30.779,28.113 	"/>
</g>
</svg>
