<?xml version="1.0" encoding="utf-8"?>
<!-- Generator: Adobe Illustrator 16.0.1, SVG Export Plug-In . SVG Version: 6.00 Build 0)  -->
<!DOCTYPE svg PUBLIC "-//W3C//DTD SVG 1.0//EN" "http://www.w3.org/TR/2001/REC-SVG-20010904/DTD/svg10.dtd">
<svg version="1.0" id="Layer_1" xmlns="http://www.w3.org/2000/svg" xmlns:xlink="http://www.w3.org/1999/xlink" x="0px" y="0px"
	 width="48px" height="66.781px" viewBox="0.5 -1.423 48 66.781" enable-background="new 0.5 -1.423 48 66.781"
	 xml:space="preserve">
<g>
	<path fill="#4ECDC4" d="M48.5,22.577c0,14.478-22.875,42.781-24,42.781s-24-28.304-24-42.781c0-13.256,10.746-24,24-24
		C37.754-1.423,48.5,9.322,48.5,22.577z"/>
	<path id="books_1_" fill="#FFFFFF" d="M35.493,16.36c-0.178-0.138-0.404-0.17-0.605-0.082L25.23,20.46
		c-0.422,0.183-0.948,0.271-1.488,0.271c-0.753,0.002-1.532-0.173-2.075-0.412c-0.194-0.082-0.356-0.176-0.471-0.258
		c0.042-0.021,0.09-0.043,0.146-0.064l8.787-3.805l1.312,0.562v-1.64c0-0.244-0.104-0.475-0.281-0.611
		c-0.178-0.139-0.406-0.17-0.604-0.083l-9.669,4.183c-0.298,0.121-0.554,0.268-0.771,0.483c-0.213,0.208-0.397,0.552-0.394,0.935
		c0,0.01,0.003,0.026,0.003,0.026v14.729c0,0.006-0.002,0.012-0.002,0.02c0,0.005,0.002,0.007,0.002,0.012v0.016h0.002
		c0.021,0.521,0.28,0.854,0.528,1.074c0.781,0.688,2.091,1.073,3.484,1.104c0.66,0,1.332-0.104,1.951-0.366l9.661-4.188
		c0.256-0.104,0.422-0.383,0.422-0.688V16.973C35.774,16.729,35.669,16.498,35.493,16.36z M29.366,13.561
		c-0.018-0.222-0.107-0.43-0.271-0.557c-0.178-0.139-0.404-0.17-0.605-0.083l-9.66,4.183c-0.42,0.182-0.947,0.271-1.486,0.271
		c-0.753,0.001-1.532-0.174-2.075-0.413c-0.193-0.082-0.356-0.175-0.471-0.259c0.042-0.021,0.091-0.041,0.146-0.063l8.787-3.804
		l1.31,0.561v-1.639c0-0.244-0.105-0.475-0.284-0.611c-0.177-0.139-0.407-0.17-0.606-0.084l-9.66,4.184
		c-0.298,0.119-0.553,0.267-0.77,0.482c-0.214,0.209-0.397,0.553-0.394,0.934c0,0.012,0.003,0.027,0.003,0.027v14.73
		c0,0.006-0.001,0.014-0.001,0.02c0,0.004,0.001,0.006,0.001,0.021v0.02h0.002c0.021,0.521,0.28,0.854,0.528,1.071
		c0.781,0.688,2.091,1.062,3.485,1.097c0.376,0,0.754-0.049,1.126-0.119V20.05c-0.01-0.7,0.27-1.372,0.762-1.856
		c0.319-0.314,0.708-0.563,1.19-0.756L29.366,13.561z"/>
</g>
</svg>
