<?xml version="1.0" encoding="utf-8"?>
<!-- Generator: Adobe Illustrator 16.0.1, SVG Export Plug-In . SVG Version: 6.00 Build 0)  -->
<!DOCTYPE svg PUBLIC "-//W3C//DTD SVG 1.1//EN" "http://www.w3.org/Graphics/SVG/1.1/DTD/svg11.dtd">
<svg version="1.1" id="Layer_1" xmlns="http://www.w3.org/2000/svg" xmlns:xlink="http://www.w3.org/1999/xlink" x="0px" y="0px"
	 width="46.205px" height="64.997px" viewBox="53.572 0 46.205 64.997" enable-background="new 53.572 0 46.205 64.997"
	 xml:space="preserve">
<g>
	<ellipse opacity="0.25" fill="#6D6E71" cx="76.676" cy="62.906" rx="8.518" ry="2.091"/>
	<path fill="#F5634A" d="M76.673,0C63.914,0,53.572,10.342,53.572,23.102c0,12.757,20.212,37.974,20.212,37.974
		c1.586,1.982,4.188,1.982,5.78,0c0,0,20.213-25.216,20.213-37.974C99.773,10.342,89.432,0,76.673,0z"/>
	<g>
		<path id="books_15_" fill="#FFFFFF" d="M84.995,15.888c-0.192-0.146-0.436-0.183-0.65-0.089l-10.376,4.496
			c-0.452,0.197-1.019,0.288-1.6,0.288c-0.807,0.002-1.644-0.185-2.227-0.442c-0.211-0.088-0.382-0.188-0.506-0.276
			c0.043-0.022,0.096-0.048,0.157-0.069l9.44-4.088l1.41,0.602v-1.758c0-0.262-0.113-0.511-0.303-0.658
			c-0.19-0.151-0.435-0.182-0.646-0.093l-10.391,4.499c-0.32,0.13-0.596,0.288-0.829,0.517c-0.226,0.223-0.423,0.593-0.421,1.003
			c0,0.014,0.003,0.03,0.003,0.03v15.822c0,0.007-0.003,0.016-0.003,0.021c0,0.007,0.003,0.01,0.003,0.014v0.02h0.004
			c0.021,0.562,0.3,0.916,0.565,1.155c0.839,0.741,2.246,1.152,3.742,1.186c0.71,0,1.432-0.114,2.098-0.393l10.377-4.505
			c0.277-0.107,0.455-0.409,0.455-0.738V16.546C85.296,16.285,85.183,16.037,84.995,15.888z"/>
		<g>
			<path fill="#F5634A" d="M78.904,29.897l0.03-2.409c0.269-0.024,0.463,0,0.575,0.049c0.186,0.106,0.283,0.324,0.276,0.683
				c-0.003,0.465-0.114,0.843-0.319,1.141C79.353,29.526,79.162,29.706,78.904,29.897 M78.479,25.889
				c-0.239,0.039-0.413,0.033-0.525-0.021c-0.207-0.081-0.302-0.301-0.297-0.641c0.002-0.324,0.071-0.607,0.209-0.86
				c0.143-0.263,0.352-0.473,0.638-0.638L78.479,25.889 M79.006,21.276l-0.478,0.261l-0.009,0.822
				c-0.334,0.223-0.592,0.409-0.766,0.572c-0.288,0.268-0.547,0.606-0.784,1.027c-0.186,0.33-0.323,0.667-0.424,1.03
				c-0.109,0.37-0.16,0.743-0.163,1.125c-0.008,0.583,0.115,1.003,0.367,1.267c0.251,0.277,0.686,0.355,1.311,0.24l0.399-0.069
				l-0.033,2.624c-0.379,0.121-0.621,0.081-0.747-0.125c-0.075-0.134-0.141-0.442-0.177-0.932l-1.328,0.728
				c-0.023,1.135,0.239,1.791,0.802,1.953c0.311,0.088,0.788,0.006,1.436-0.265l-0.015,1.226l0.476-0.259l0.014-1.238
				c0.506-0.324,0.946-0.734,1.328-1.236c0.609-0.792,0.921-1.715,0.932-2.742c0.012-0.785-0.202-1.269-0.636-1.461
				c-0.268-0.106-0.782-0.114-1.559-0.029l0.027-2.339c0.325-0.151,0.547-0.115,0.666,0.111c0.066,0.134,0.116,0.37,0.135,0.716
				l1.293-0.707c-0.007-0.977-0.283-1.526-0.827-1.667c-0.302-0.108-0.713-0.041-1.249,0.196L79.006,21.276"/>
		</g>
	</g>
</g>
</svg>
