<?xml version="1.0" encoding="utf-8"?>
<!-- Generator: Adobe Illustrator 16.0.1, SVG Export Plug-In . SVG Version: 6.00 Build 0)  -->
<!DOCTYPE svg PUBLIC "-//W3C//DTD SVG 1.1//EN" "http://www.w3.org/Graphics/SVG/1.1/DTD/svg11.dtd">
<svg version="1.1" id="Layer_1" xmlns="http://www.w3.org/2000/svg" xmlns:xlink="http://www.w3.org/1999/xlink" x="0px" y="0px"
	 width="47.725px" height="66.781px" viewBox="48.301 0 47.725 66.781" enable-background="new 48.301 0 47.725 66.781"
	 xml:space="preserve">
<g>
	<ellipse opacity="0.25" fill="#6D6E71" cx="72.163" cy="64.62" rx="8.798" ry="2.161"/>
	<path fill="#4E6FC4" d="M72.161,0c-13.178,0-23.86,10.682-23.86,23.862c0,13.177,20.877,39.222,20.877,39.222
		c1.638,2.049,4.326,2.049,5.971,0c0,0,20.877-26.044,20.877-39.222C96.021,10.682,85.34,0,72.161,0z"/>
	<path id="books_11_" fill="#FFFFFF" d="M83.041,18.918c-0.176-0.135-0.4-0.167-0.602-0.08l-9.602,4.161
		c-0.421,0.179-0.942,0.267-1.479,0.267c-0.75,0.003-1.521-0.172-2.064-0.412c-0.192-0.079-0.354-0.173-0.467-0.256
		c0.041-0.02,0.088-0.038,0.146-0.062l8.735-3.784l1.305,0.561v-1.63c0-0.244-0.103-0.472-0.28-0.606
		c-0.176-0.141-0.401-0.17-0.598-0.084l-9.615,4.157c-0.297,0.121-0.551,0.269-0.765,0.483c-0.211,0.207-0.396,0.548-0.393,0.928
		c0,0.011,0.004,0.028,0.004,0.028v12.652c0,0.007-0.004,0.015-0.004,0.022c0,0.004,0.004,0.005,0.004,0.012v0.019h0.002
		c0.022,0.518,0.279,0.846,0.523,1.067c0.777,0.686,2.08,1.067,3.466,1.094c0.656,0,1.321-0.101,1.937-0.362l9.607-4.163
		c0.254-0.105,0.419-0.382,0.419-0.686V19.531C83.323,19.287,83.218,19.056,83.041,18.918z M76.954,14.144
		c-0.024-0.219-0.111-0.425-0.274-0.553c-0.175-0.136-0.402-0.167-0.602-0.079l-9.603,4.156c-0.418,0.181-0.94,0.271-1.479,0.271
		c-0.748,0-1.523-0.174-2.062-0.412c-0.195-0.081-0.354-0.173-0.469-0.255c0.039-0.025,0.09-0.043,0.144-0.063l8.739-3.783l1.3,0.56
		v-1.628c0-0.243-0.102-0.474-0.282-0.608c-0.175-0.138-0.405-0.169-0.602-0.082l-9.603,4.156c-0.299,0.119-0.551,0.267-0.767,0.479
		c-0.212,0.207-0.396,0.551-0.392,0.93c0,0.014,0.003,0.026,0.003,0.026v14.646c0,0.008,0,0.013,0,0.023c0,0.002,0,0.004,0,0.02
		v0.02h0.002c0.021,0.515,0.278,0.846,0.525,1.065c0.777,0.685,2.077,1.055,3.466,1.089c0.373,0,0.749-0.048,1.119-0.115V22.591
		c-0.012-0.695,0.271-1.363,0.758-1.844c0.315-0.31,0.702-0.558,1.182-0.751l8.895-3.854V14.144L76.954,14.144z"/>
</g>
</svg>
