<?xml version="1.0" encoding="utf-8"?>
<!-- Generator: Adobe Illustrator 16.0.1, SVG Export Plug-In . SVG Version: 6.00 Build 0)  -->
<!DOCTYPE svg PUBLIC "-//W3C//DTD SVG 1.0//EN" "http://www.w3.org/TR/2001/REC-SVG-20010904/DTD/svg10.dtd">
<svg version="1.0" id="Layer_1" xmlns="http://www.w3.org/2000/svg" xmlns:xlink="http://www.w3.org/1999/xlink" x="0px" y="0px"
	 width="248.214px" height="43.911px" viewBox="0 0 248.214 43.911" enable-background="new 0 0 248.214 43.911"
	 xml:space="preserve">
<g>
	<path fill="#231F20" d="M45.728,15.015h6.391c1.629,0,2.91,0.447,3.725,1.262c0.633,0.633,0.957,1.404,0.957,2.363v0.041
		c0,1.707-0.977,2.625-2.037,3.174c1.67,0.568,2.832,1.525,2.832,3.459v0.041c0,2.545-2.098,3.906-5.271,3.906h-6.596V15.015
		L45.728,15.015z M51.61,21.022c1.607,0,2.686-0.635,2.686-1.936v-0.041c0-1.119-0.895-1.812-2.502-1.812H48.19v3.787h3.42V21.022z
		 M52.343,27.046c1.711,0,2.748-0.674,2.748-1.955v-0.043c0-1.197-0.955-1.91-2.932-1.91H48.19v3.908H52.343z"/>
	<path fill="#231F20" d="M59.618,25.354v-6.84h2.461v6.107c0,1.67,0.834,2.625,2.301,2.625c1.422,0,2.42-0.994,2.42-2.666v-6.066
		h2.463v10.746H66.8v-1.666c-0.691,1.02-1.689,1.893-3.357,1.893C61.021,29.485,59.618,27.86,59.618,25.354"/>
	<path fill="#231F20" d="M71.366,23.931v-0.043c0-3.072,2.176-5.596,5.252-5.596c3.418,0,5.148,2.686,5.148,5.779
		c0,0.225-0.02,0.447-0.039,0.695h-7.898c0.262,1.75,1.504,2.727,3.092,2.727c1.203,0,2.055-0.447,2.912-1.283l1.443,1.283
		c-1.016,1.221-2.42,2.014-4.395,2.014C73.767,29.507,71.366,27.247,71.366,23.931 M79.323,23.138
		c-0.16-1.588-1.1-2.828-2.729-2.828c-1.504,0-2.562,1.156-2.785,2.828H79.323z"/>
	<path fill="#231F20" d="M83.847,18.515h2.465v1.67c0.691-1.018,1.689-1.893,3.357-1.893c2.422,0,3.828,1.627,3.828,4.131v6.838
		h-2.465v-6.104c0-1.67-0.836-2.625-2.299-2.625c-1.424,0-2.422,0.996-2.422,2.666v6.062h-2.465V18.515z"/>
	<path fill="#231F20" d="M95.476,23.952v-0.043c0-3.072,2.443-5.617,5.738-5.617c3.299,0,5.719,2.504,5.719,5.576v0.041
		c0,3.055-2.439,5.598-5.758,5.598C97.897,29.507,95.476,27.005,95.476,23.952 M104.472,23.952v-0.043
		c0-1.891-1.363-3.459-3.297-3.459c-1.975,0-3.236,1.547-3.236,3.418v0.041c0,1.873,1.363,3.461,3.275,3.461
		C103.21,27.37,104.472,25.804,104.472,23.952"/>
	<path fill="#231F20" d="M108.161,27.86l1.1-1.672c1.16,0.879,2.424,1.326,3.521,1.326c1.059,0,1.668-0.447,1.668-1.16v-0.041
		c0-0.836-1.141-1.121-2.402-1.51c-1.586-0.447-3.357-1.096-3.357-3.154V21.61c0-2.037,1.689-3.277,3.828-3.277
		c1.342,0,2.809,0.467,3.945,1.223l-0.975,1.75c-1.039-0.633-2.137-1.018-3.033-1.018c-0.957,0-1.508,0.447-1.508,1.082v0.035
		c0,0.775,1.162,1.1,2.422,1.508c1.57,0.488,3.34,1.201,3.34,3.135v0.039c0,2.26-1.752,3.379-3.988,3.379
		C111.194,29.466,109.505,28.919,108.161,27.86"/>
	<path fill="#231F20" d="M129.847,14.913h2.32l6.27,14.348h-2.646l-1.445-3.438h-6.738l-1.465,3.438h-2.564L129.847,14.913z
		 M133.429,23.604l-2.465-5.699l-2.441,5.699H133.429z"/>
	<path fill="#231F20" d="M140.233,14.528h2.648v2.34h-2.648V14.528z M140.337,18.515h2.461v10.746h-2.461V18.515z"/>
	<path fill="#231F20" d="M145.608,18.515h2.463v2.424c0.672-1.607,1.916-2.707,3.807-2.629v2.607h-0.143
		c-2.156,0-3.664,1.406-3.664,4.254v4.09h-2.463V18.515z"/>
	<path fill="#231F20" d="M152.657,23.931v-0.043c0-3.072,2.178-5.596,5.252-5.596c3.418,0,5.148,2.686,5.148,5.779
		c0,0.225-0.021,0.447-0.043,0.695h-7.895c0.262,1.75,1.506,2.727,3.092,2.727c1.201,0,2.057-0.447,2.91-1.283l1.447,1.283
		c-1.018,1.221-2.426,2.014-4.398,2.014C155.058,29.507,152.657,27.247,152.657,23.931 M160.612,23.138
		c-0.16-1.588-1.098-2.828-2.725-2.828c-1.508,0-2.564,1.156-2.789,2.828H160.612z"/>
	<path fill="#231F20" d="M164.263,27.86l1.098-1.672c1.162,0.879,2.424,1.326,3.525,1.326c1.057,0,1.666-0.447,1.666-1.16v-0.041
		c0-0.836-1.141-1.121-2.402-1.51c-1.588-0.447-3.355-1.096-3.355-3.154V21.61c0-2.037,1.689-3.277,3.826-3.277
		c1.342,0,2.807,0.467,3.947,1.223l-0.977,1.75c-1.039-0.633-2.137-1.018-3.031-1.018c-0.959,0-1.508,0.447-1.508,1.082v0.035
		c0,0.775,1.162,1.1,2.422,1.508c1.568,0.488,3.338,1.201,3.338,3.135v0.039c0,2.26-1.75,3.379-3.988,3.379
		C167.298,29.466,165.604,28.919,164.263,27.86"/>
	<path fill="#231F20" d="M180.269,22.179v-0.037c0-4.055,3.031-7.371,7.346-7.371c2.625,0,4.213,0.914,5.578,2.219l-1.607,1.852
		c-1.141-1.059-2.361-1.77-3.99-1.77c-2.729,0-4.701,2.236-4.701,5.027v0.043c0,2.785,1.973,5.064,4.701,5.064
		c1.75,0,2.869-0.711,4.092-1.852l1.607,1.629c-1.484,1.547-3.115,2.523-5.779,2.523C183.36,29.507,180.269,26.272,180.269,22.179"
		/>
	<path fill="#231F20" d="M195.276,14.528h2.646v2.34h-2.646V14.528z M195.378,18.515h2.463v10.746h-2.463V18.515z"/>
	<path fill="#231F20" d="M200.53,25.354v-6.84h2.461v6.107c0,1.67,0.836,2.625,2.301,2.625c1.424,0,2.422-0.994,2.422-2.666v-6.066
		h2.463v10.746h-2.463v-1.666c-0.689,1.02-1.689,1.893-3.357,1.893C201.935,29.485,200.53,27.86,200.53,25.354"/>
	<path fill="#231F20" d="M212.321,23.909v-0.041c0-3.559,2.422-5.576,4.984-5.576c1.773,0,2.891,0.898,3.664,1.893v-5.781h2.461
		v14.857h-2.461v-1.789c-0.793,1.119-1.912,2.014-3.664,2.014C214.782,29.485,212.321,27.474,212.321,23.909 M221.011,23.909v-0.041
		c0-2.074-1.465-3.438-3.115-3.438c-1.688,0-3.094,1.301-3.094,3.438v0.041c0,2.078,1.428,3.441,3.094,3.441
		C219.546,27.351,221.011,25.966,221.011,23.909"/>
	<path fill="#231F20" d="M232.679,29.261v-1.322c-0.732,0.877-1.852,1.547-3.479,1.547c-2.037,0-3.828-1.16-3.828-3.316v-0.041
		c0-2.385,1.854-3.521,4.357-3.521c1.301,0,2.135,0.184,2.971,0.447v-0.203c0-1.482-0.938-2.297-2.646-2.297
		c-1.201,0-2.098,0.262-3.072,0.668l-0.672-1.973c1.18-0.529,2.34-0.896,4.092-0.896c3.174,0,4.721,1.67,4.721,4.541v6.367H232.679z
		 M232.741,24.767c-0.631-0.248-1.506-0.43-2.463-0.43c-1.547,0-2.461,0.633-2.461,1.672v0.039c0,1.02,0.914,1.584,2.072,1.584
		c1.631,0,2.854-0.912,2.854-2.256v-0.609H232.741z"/>
	<path fill="#231F20" d="M237.101,23.909v-0.041c0-3.559,2.424-5.576,4.986-5.576c1.771,0,2.891,0.898,3.664,1.893v-5.781h2.463
		v14.857h-2.463v-1.789c-0.795,1.119-1.914,2.014-3.664,2.014C239.563,29.485,237.101,27.474,237.101,23.909 M245.794,23.909v-0.041
		c0-2.074-1.465-3.438-3.113-3.438c-1.693,0-3.096,1.301-3.096,3.438v0.041c0,2.078,1.424,3.441,3.096,3.441
		C244.329,27.351,245.794,25.966,245.794,23.909"/>
	<path fill="#231F20" d="M18.071,7.097c-0.113,0-0.207,0.094-0.207,0.209s0.094,0.209,0.207,0.209c0.115,0,0.207-0.094,0.207-0.209
		S18.187,7.097,18.071,7.097"/>
	<path fill="#231F20" d="M28.62,10.325l-0.033-0.004c-1.088-0.043-2.125-0.436-3.127-0.814c-0.408-0.154-0.83-0.312-1.248-0.441
		c-0.824-0.266-1.559-0.408-2.246-0.439c-0.182-0.01-0.348-0.018-0.523-0.018c-0.463,0-1.113,0.047-1.518,0.439
		c-0.119-0.512-0.256-1.086-0.471-1.631c-0.205-0.518-0.51-1.133-1.061-1.299c-0.092-0.025-0.184-0.037-0.271-0.037
		c-0.547,0-0.963,0.488-1.166,0.779l-0.092,0.133c-0.236,0.346-0.355,0.518-0.32,0.678c0.037,0.164,0.232,0.285,0.68,0.543
		c0.189,0.107,0.225,0.389,0.25,0.596l0.002,0.025c0.043,0.311,0.061,0.613,0.059,0.9c-0.633-0.65-1.6-0.904-2.473-1.07
		c-0.232-0.043-0.477-0.066-0.725-0.066c-1.006,0-1.988,0.375-2.639,0.654c-0.367,0.162-0.736,0.338-1.092,0.51
		c-0.688,0.33-1.396,0.668-2.135,0.896c-0.225,0.07-0.463,0.125-0.756,0.174H7.704c-0.004,0.004-0.01,0.004-0.02,0.004l-0.02,0.004
		c-0.113,0.021-0.305,0.082-0.34,0.254c-0.039,0.174-0.014,0.285,0.219,0.469c0.539,0.307,1.193,0.453,1.998,0.453
		c0.168,0,0.338-0.006,0.521-0.016c0.242-0.018,0.486-0.047,0.744-0.08c0.371-0.049,0.748-0.098,1.113-0.098
		c0.252,0,0.473,0.025,0.672,0.07c0.602,0.141,0.957,0.732,1.268,1.254c0.078,0.131,0.152,0.254,0.23,0.371l0.002,0.008
		c0.146,0.219,0.389,0.584,0.373,0.857c-0.016,0.27-0.383,0.49-0.646,0.652c-0.07,0.043-0.141,0.082-0.193,0.119
		c-0.082,0.057-0.184,0.121-0.287,0.191c-0.602,0.381-1.42,0.902-1.326,1.609c0.041,0.342,0.332,0.623,0.684,0.664
		c0.031,0.008,0.064,0.008,0.098,0.008c0.25,0,0.475-0.115,0.691-0.229c0.092-0.049,0.186-0.096,0.275-0.131
		c0.285-0.117,0.576-0.176,0.859-0.176c0.484,0,0.949,0.162,1.381,0.486c0.143,0.105,0.268,0.234,0.393,0.359
		c0.133,0.135,0.271,0.273,0.428,0.383c0.125,0.092,0.359,0.186,0.559,0.186c0.195,0,0.326-0.096,0.363-0.271
		c0.07-0.348,0.066-0.713,0.066-1.066c-0.004-0.283-0.004-0.576,0.029-0.855c0.023-0.17,0.068-0.516,0.287-0.623
		c0.074-0.035,0.158-0.051,0.262-0.051c0.111,0,0.23,0.018,0.344,0.035c0.156,0.029,0.326,0.051,0.461,0.033
		c0.633-0.088,1.162-0.607,1.412-1.391c0.119-0.262,0.258-0.377,0.525-0.445c0.32-0.076,0.52-0.336,0.713-0.588
		c0.049-0.066,0.098-0.125,0.145-0.184c0.398-0.475,0.885-0.688,1.57-0.688c0.125,0,0.26,0.008,0.41,0.021
		c0.141,0.016,0.283,0.031,0.422,0.049c0.367,0.043,0.717,0.084,1.072,0.084c0.383,0,0.727-0.053,1.041-0.156
		c0.824-0.275,1.547-0.807,2.213-1.344l0.094-0.078c0.189-0.156,0.232-0.258,0.184-0.434C28.942,10.376,28.71,10.333,28.62,10.325
		 M14.44,12.772c-0.164-0.273-0.332-0.551-0.537-0.797c-0.48-0.584-1.115-0.84-2.064-0.84c-0.398,0-0.816,0.041-1.223,0.088
		c-0.398,0.041-0.812,0.084-1.201,0.084c-0.207,0-0.393-0.014-0.564-0.037c0.684-0.227,1.342-0.541,1.979-0.846
		c0.682-0.33,1.393-0.674,2.129-0.9c0.457-0.139,0.932-0.213,1.418-0.213c0.883,0,1.699,0.234,2.363,0.674
		c0.555,0.367,0.717,0.754,0.529,1.297c-0.197,0.574-0.543,1.145-1.025,1.689c-0.031,0.031-0.064,0.076-0.105,0.119
		c-0.211,0.252-0.557,0.67-0.855,0.67c-0.092,0-0.168-0.039-0.242-0.119C14.804,13.384,14.618,13.071,14.44,12.772 M20.001,13.579
		c-0.064,0.482-0.256,0.893-0.551,1.16c-0.258,0.24-0.545,0.287-0.924,0.287c-0.062,0-0.131-0.002-0.193-0.002
		c-0.068,0-0.137-0.004-0.207-0.004c-0.244,0-0.447,0.084-0.604,0.238c-0.455,0.463-0.447,1.479-0.441,2.148v0.219l-0.043-0.043
		c-0.578-0.535-1.119-1.045-1.934-1.166c-0.125-0.023-0.26-0.031-0.393-0.031c-0.246,0-0.506,0.031-0.773,0.094
		c-0.229,0.059-0.426,0.148-0.635,0.244c-0.084,0.033-0.16,0.07-0.244,0.105c-0.098,0.039-0.229,0.082-0.307,0.082
		c-0.023,0-0.041-0.002-0.051-0.012c-0.004-0.01-0.004-0.025,0.002-0.045c0.08-0.277,0.375-0.473,0.613-0.631l0.064-0.041
		c0.604-0.41,1.17-0.816,1.73-1.252c1.025-0.797,2.152-1.791,2.713-3.141c0.318-0.76,0.453-1.633,0.395-2.525l-0.002-0.051
		c-0.025-0.367-0.049-0.746-0.195-1.084c-0.121-0.279-0.34-0.408-0.568-0.545c-0.045-0.023-0.086-0.047-0.127-0.07
		c0.107-0.203,0.41-0.732,0.754-0.732c0.135,0,0.266,0.082,0.383,0.244c0.408,0.557,0.594,1.225,0.758,1.818
		c0.027,0.102,0.059,0.213,0.092,0.326C19.636,10.315,20.179,12.224,20.001,13.579 M27.005,11.417
		c-0.557,0.314-1.057,0.467-1.529,0.467h-0.045c-0.309-0.008-0.621-0.047-0.924-0.09c-0.26-0.031-0.529-0.068-0.793-0.082
		c-0.654-0.029-1.164,0.074-1.57,0.318c-0.285,0.172-0.48,0.412-0.674,0.648c-0.135,0.168-0.281,0.342-0.453,0.488
		c-0.053,0.039-0.119,0.09-0.184,0.09h-0.006c-0.074-0.004-0.08-0.053-0.074-0.16c0-0.029,0.004-0.053,0-0.072
		c-0.012-0.246-0.049-0.49-0.08-0.729l-0.02-0.135c-0.057-0.412-0.119-0.85-0.221-1.279c-0.018-0.076-0.047-0.164-0.074-0.258
		c-0.117-0.379-0.268-0.85,0.027-1.094c0.176-0.143,0.479-0.172,0.682-0.189c0,0,0.23-0.021,0.48-0.023h0.092
		c0.277,0,0.561,0.018,0.84,0.053c0.52,0.07,1.066,0.207,1.727,0.426c0.354,0.117,0.711,0.25,1.057,0.381
		c0.801,0.297,1.627,0.605,2.486,0.754C27.476,11.13,27.237,11.286,27.005,11.417"/>
	<path fill="#231F20" d="M35.897,17.784c-0.234-1.518-0.611-3.016-1.121-4.465c-0.492-1.389-1.111-2.736-1.848-4.012
		c-0.578-0.986-1.227-1.934-1.953-2.82c-0.926-1.131-1.975-2.166-3.135-3.062c-1.129-0.871-2.359-1.607-3.668-2.168
		c-1.305-0.561-2.684-0.945-4.092-1.127c-1.432-0.189-2.893-0.172-4.316,0.053c-1.4,0.219-2.77,0.639-4.059,1.229
		C10.409,2.009,9.19,2.772,8.079,3.669c-1.135,0.916-2.16,1.969-3.062,3.115c-0.891,1.125-1.658,2.34-2.311,3.617
		c-0.68,1.33-1.229,2.719-1.652,4.15c-0.438,1.492-0.742,3.025-0.904,4.574c-0.172,1.609-0.193,3.236-0.074,4.848
		c0.119,1.564,0.373,3.119,0.77,4.635c0.381,1.453,0.893,2.875,1.531,4.232c0.617,1.305,1.354,2.551,2.205,3.715
		c0.959,1.305,3.398,3.613,3.41,3.613c2.879,2.355,6.363,3.742,10.123,3.742h0.004c1.43,0,2.861-0.199,4.238-0.604
		c1.363-0.398,2.666-0.98,3.879-1.717c1.232-0.748,2.367-1.652,3.389-2.674c1.02-1.02,1.928-2.15,2.715-3.361
		c0.795-1.219,1.471-2.521,2.021-3.873c0.576-1.406,1.016-2.871,1.322-4.359c0.324-1.555,0.5-3.141,0.539-4.729
		C36.257,20.983,36.153,19.376,35.897,17.784 M3.833,28.278H3.372l0.412-1.57c0.041-0.115,0.062-0.109,0.078-0.062
		C3.853,27.214,3.845,27.761,3.833,28.278 M4.06,24.003l-0.928-0.428c-0.051-0.023-0.045-0.041,0.01-0.041h1.992
		c0.057,0,0.059,0.018,0.006,0.041l-0.889,0.428C4.196,24.028,4.112,24.028,4.06,24.003 M2.896,23.13l1.039-0.74
		c-0.008,0.244-0.01,0.488-0.012,0.74H2.896z M3.245,20.64h1.771c0.049,0,0.055,0.018,0.01,0.039l-0.793,0.373
		c-0.049,0.023-0.125,0.023-0.172,0.006l-0.826-0.381C3.19,20.653,3.192,20.64,3.245,20.64 M3.024,20.276l0.951-0.631
		c-0.002,0.197-0.004,0.41-0.012,0.631H3.024z M4.313,19.657l0.943,0.619H4.321C4.317,20.067,4.315,19.86,4.313,19.657
		 M4.354,22.396l1.047,0.734H4.368C4.36,22.88,4.356,22.634,4.354,22.396 M4.45,28.278c-0.008-0.518-0.018-1.066-0.027-1.627
		c0.008-0.041,0.037-0.068,0.07,0.045l0.418,1.582H4.45z M18.114,42.325c-2.762,0-5.367-0.832-7.666-2.32
		c1.783-0.012,3.549,0.227,5.305,0.488c1.766,0.26,3.527,0.557,5.303,0.734c0.682,0.07,1.367,0.121,2.051,0.148
		C21.53,41.993,19.853,42.325,18.114,42.325 M26.212,39.716c-1.75,0.182-3.516,0.098-5.262-0.092
		c-1.746-0.188-3.479-0.484-5.217-0.734c-1.791-0.26-3.59-0.484-5.402-0.471c-0.613,0.008-1.227,0.037-1.84,0.1
		c-0.572-0.51-1.121-1.066-1.641-1.66c1.814-0.266,3.66-0.26,5.49-0.131c1.834,0.137,3.654,0.404,5.475,0.674
		c0.914,0.135,1.828,0.273,2.74,0.393c0.457,0.061,2.266,0.199,2.711,0.197c1.826,0,3.658-0.137,5.465-0.432
		C27.948,38.372,27.106,39.093,26.212,39.716 M30.368,35.616c-1.752,0.424-3.545,0.65-5.346,0.742
		c-0.896,0.047-1.805,0.07-2.703,0.027c-0.91-0.045-1.811-0.191-2.713-0.322c-1.811-0.26-3.623-0.551-5.445-0.754
		c-1.816-0.201-3.643-0.311-5.471-0.221c-0.992,0.053-1.984,0.164-2.963,0.352c-0.334-0.467-0.65-0.951-0.949-1.455
		c1.611-0.334,3.242-0.549,4.887-0.605c1.666-0.062,3.326,0.055,4.98,0.268c1.592,0.213,3.176,0.504,4.77,0.719
		c1.461,0.195,2.926,0.328,4.398,0.328h0.01c1.525,0,3.055-0.137,4.564-0.383c1.1-0.18,2.195-0.406,3.271-0.688
		C31.261,34.325,30.831,34.985,30.368,35.616 M6.056,30.017c-0.766-0.508-0.871-1.33-0.824-1.486l2.359-5.566
		c0.053-0.096,0.076-0.064,0.062,0L6.056,30.017z M7.618,24.767c-0.037,2.492-0.068,4.812-0.08,5.922
		c-0.432-0.123-0.855-0.256-1.221-0.518l1.246-5.518C7.599,24.603,7.612,24.681,7.618,24.767 M6.991,19.886h1.775
		c0.047,0,0.053,0.018,0.008,0.039l-0.795,0.379c-0.045,0.023-0.121,0.023-0.168,0.002l-0.828-0.381
		C6.938,19.903,6.942,19.886,6.991,19.886 M6.772,19.526l0.936-0.617c-0.004,0.197-0.008,0.404-0.01,0.617H6.772z M8.079,18.921
		l0.926,0.604H8.087C8.085,19.317,8.083,19.112,8.079,18.921 M9.976,27.085c-0.031,1.195-0.061,2.389-0.08,3.311
		c-0.008,0.006-0.02,0.012-0.027,0.018l-0.793-3.438l0.422-1.008L9.976,27.085z M9.659,25.589l0.314-0.746
		c0.033-0.047,0.049-0.031,0.059,0.008c-0.012,0.48-0.025,0.994-0.037,1.521L9.659,25.589z M8.874,27.44l0.764,3.133
		c-0.266,0.111-0.6,0.172-0.889,0.209C8.644,30.8,8.54,30.806,8.437,30.812c-0.062,0.006-0.131,0.014-0.189,0.008
		c-0.006-0.42-0.014-1.055-0.023-1.834L8.874,27.44z M8.214,28.245C8.2,27.21,8.183,26.001,8.163,24.747
		c0.012-0.104,0.033-0.176,0.084-0.025l0.516,2.225L8.214,28.245z M8.96,26.481L8.149,22.97c-0.008-0.068,0.006-0.102,0.061-0.006
		l1.125,2.625L8.96,26.481z M10.511,27.573v-0.512c-0.023-0.914-0.047-1.338-0.068-2.18c0.006-0.062,0.027-0.102,0.068-0.033
		l1.41,3.518c-0.23,0.459-0.271,0.619-0.629,0.996L10.511,27.573z M11.065,29.589c-0.139,0.16-0.332,0.314-0.49,0.445
		c-0.012-0.48-0.033-1.102-0.045-1.662L11.065,29.589z M12.495,28.241l1.613-3.461c-0.029,0.992-0.059,2.42-0.09,3.461H13.36
		C13.116,28.241,12.735,28.259,12.495,28.241 M24.032,23.808h2.326c0.062,0,0.07,0.016,0.031,0.043
		c-0.008,0.006-1.061,0.504-1.061,0.504c-0.072,0.035-0.164,0.029-0.223,0.002l-1.086-0.498
		C23.958,23.827,23.964,23.808,24.032,23.808 M23.767,23.343l1.217-0.867c-0.004,0.256-0.014,0.838-0.014,0.867H23.767z
		 M24.204,19.911c0,0,0.025-0.008,0.039-0.008h1.947c0.018,0,0.029,0.002,0.035,0.006h0.006l-0.006,0.002
		c0.014,0.008,0.01,0.02-0.025,0.033l-0.875,0.41c-0.047,0.023-0.129,0.023-0.182,0.004l-0.908-0.414
		C24.206,19.931,24.196,19.919,24.204,19.911 M23.997,19.495l1.039-0.744c-0.006,0.238-0.008,0.486-0.01,0.744H23.997z
		 M25.399,18.763l1.045,0.732h-1.033C25.407,19.243,25.403,18.999,25.399,18.763 M25.448,22.476l1.215,0.867h-1.197
		C25.462,23.06,25.454,22.757,25.448,22.476 M28.976,21.538h1.99c0.055,0,0.061,0.018,0.01,0.041l-0.896,0.428
		c-0.049,0.025-0.135,0.025-0.184,0l-0.93-0.428C28.913,21.556,28.917,21.538,28.976,21.538 M28.726,21.132l1.043-0.74
		c-0.004,0.248-0.01,0.488-0.01,0.74H28.726z M30.179,20.394l1.059,0.738h-1.049C30.188,20.884,30.183,20.64,30.179,20.394
		 M29.722,24.675c-0.037,2.41-0.074,5.002-0.1,6.826c-0.584,0.197-1.098,0.254-1.545,0.215l0.992-4.426l0.586-2.6
		C29.681,24.628,29.71,24.589,29.722,24.675 M29.587,23.64l-1.73,7.664l-0.746-2.057l0.006-0.016l2.363-5.668
		C29.544,23.446,29.612,23.37,29.587,23.64 M27.675,31.653c-0.543-0.123-0.971-0.385-1.301-0.674l0.564-1.342L27.675,31.653z
		 M26.161,30.769c-0.336-0.355-0.527-0.705-0.604-0.854c-0.012-1.162-0.037-2.893-0.066-4.752l1.309,4.049L26.161,30.769z
		 M23.312,29.833H20.46l4.246-4.795L23.312,29.833z M24.937,25.161c-0.014,1.08-0.051,4.539-0.051,4.672H23.61L24.937,25.161z
		 M30.235,24.673c-0.002-0.08,0.035-0.057,0.064,0.018l1.191,5.141c-0.26,0.607-0.787,1.051-1.168,1.312
		C30.312,30.206,30.239,24.694,30.235,24.673 M31.796,29.804l-1.459-6.105c-0.043-0.371,0.053-0.236,0.125-0.102l2.662,6.207H31.796
		L31.796,29.804z M34.167,26.827c-0.193,0.973-0.449,1.932-0.762,2.871l-3.188-7.564l1.4-0.625c0.145-0.068,0.15-0.277,0.006-0.354
		c0,0-1.375-0.977-1.453-1.029l-0.033-2.322c0.172-0.021,0.332-0.096,0.5-0.123c0.188-0.029,0.361,0.004,0.543,0.035
		c0.168,0.027,0.334,0.043,0.494-0.002c0.156-0.045,0.293-0.131,0.416-0.23c-0.363-0.01-0.658-0.24-0.979-0.385
		c-0.162-0.074-0.338-0.117-0.514-0.139c-0.174-0.018-0.381-0.031-0.549,0.021c-0.018-0.137-0.037-0.277-0.061-0.428h-0.072
		c-0.107,0.635-0.102,1.33-0.111,1.973c-0.002,0.451-0.008,0.906-0.014,1.355c-0.002,0.082-0.002,0.162-0.004,0.244l-1.443,1.027
		c-0.141,0.072-0.143,0.281,0,0.355l0,0l1.359,0.625l-2.744,6.678l-1.414-4.295l1.564-0.734c0.162-0.084,0.17-0.324,0.008-0.41
		c0,0-1.475-1.035-1.67-1.174c-0.008-0.543-0.018-1.129-0.023-1.643l1.432-0.674V19.88c0.143-0.066,0.148-0.277,0.006-0.354
		c0,0-1.279-0.912-1.467-1.045c-0.014-1.053-0.025-2.107-0.039-3.156c0.08,0,0.164-0.029,0.24-0.051
		c0.094-0.027,0.186-0.053,0.275-0.068c0.18-0.035,0.359-0.008,0.543,0.027c0.172,0.029,0.348,0.047,0.518,0
		c0.156-0.045,0.293-0.129,0.418-0.23c-0.367-0.012-0.662-0.24-0.979-0.385c-0.164-0.078-0.338-0.119-0.514-0.139
		c-0.178-0.018-0.381-0.031-0.549,0.02c-0.014-0.137-0.031-0.273-0.059-0.43h-0.072v0.004c-0.098,0.584-0.105,1.168-0.109,1.758
		c-0.006,0.537-0.008,1.07-0.016,1.607c-0.006,0.348-0.008,0.695-0.016,1.043l-1.455,1.041c-0.145,0.074-0.145,0.285,0,0.357
		l1.424,0.674h0.004c-0.004,0.508-0.014,1.107-0.021,1.645l-1.668,1.168c-0.164,0.086-0.164,0.328,0,0.412l1.537,0.736l-4.795,5.318
		c-0.092,0-0.689,0.006-0.775,0.115c-0.123,0.1-0.129,0.25-0.076,0.381c0.072,0.172,0.219,0.293,0.377,0.383
		c0.08,0.051,0.168,0.094,0.258,0.125c0.01,0.008,0.02,0.016,0.029,0.025c0,0,0.43,1.434,2.277,2.105h-0.002
		c0,0,0.049,0.014,0.037,0.055c-0.004,0.008-0.01,0.014-0.014,0.018c-0.014,0.008-0.029,0.01-0.049,0.014
		c-1.764-0.109-3.502-0.402-5.244-0.674c-0.666-0.109-1.33-0.207-2-0.297c-0.449-0.055-0.9-0.107-1.348-0.189
		c-0.045-0.016-0.066-0.031-0.076-0.049v-0.002c-0.002-0.004-0.002-0.006-0.002-0.006v-0.012c0-0.004,0.002-0.004,0.002-0.004
		c0.004-0.012,0.014-0.025,0.021-0.035c0.01-0.006,0.016-0.008,0.016-0.008c2.453-0.732,2.969-2.52,2.969-2.52
		c0.031-0.016,0.062-0.033,0.092-0.047c0.066-0.031,0.135-0.064,0.193-0.1c0.158-0.09,0.307-0.211,0.377-0.383
		c0.055-0.133,0.047-0.281-0.076-0.381c-0.092-0.123-0.785-0.117-0.785-0.117l-0.004,0.004H16.14
		c-0.002-0.383-0.012-1.373-0.035-2.014c0.074,0.029,0.16,0.002,0.23-0.018c0.092-0.025,0.182-0.057,0.273-0.074
		c0.191-0.045,0.371-0.035,0.564,0c0.184,0.033,0.365,0.064,0.553,0.014c0.162-0.039,0.309-0.129,0.434-0.232
		c-0.369-0.012-0.67-0.254-0.998-0.395c-0.172-0.078-0.355-0.119-0.541-0.135c-0.176-0.016-0.393-0.029-0.555,0.049
		c-0.012-0.154-0.025-0.287-0.041-0.385h-0.07c-0.094,0.549-0.096,2.451-0.098,3.188l-1.234,0.006
		c-0.037-1.34-0.098-3.135-0.127-4.281l1.066-2.289c0.145,0.066,0.316,0.076,0.465,0.131c0.168,0.059,0.303,0.158,0.438,0.271
		c0.129,0.104,0.26,0.209,0.42,0.262c0.172,0.053,0.357,0.047,0.533,0.018c-0.305-0.182-0.451-0.516-0.645-0.793
		c-0.104-0.145-0.229-0.27-0.371-0.373c-0.146-0.109-0.322-0.225-0.5-0.268c0.039-0.125,0.094-0.295,0.1-0.373
		c-0.006-0.014,0-0.037-0.031-0.059c-0.006,0-0.01,0-0.018,0c-0.049,0.006-0.061,0.033-0.094,0.074
		c-0.094,0.117-0.223,0.344-0.242,0.383l-1.139,2.443c-0.012-0.385-0.02-0.773-0.023-1.156c-0.004-0.484-0.023-0.967-0.107-1.443
		h-0.068c-0.098,0.58-0.104,1.164-0.109,1.758c-0.006,0.527-0.023,1.057-0.039,1.586l-1.959,4.061l-1.756-4.305
		c-0.012-0.533-0.029-1.066-0.033-1.598c-0.01-0.605-0.01-1.211-0.113-1.811h-0.064c-0.105,0.59-0.105,1.184-0.113,1.779
		c-0.006,0.541-0.02,1.084-0.035,1.625L9.497,25.21l-1.375-3.197c-0.006-0.531-0.012-1.055-0.02-1.562l1.246-0.59
		c0.127-0.062,0.131-0.248,0.004-0.314c0,0-1.055-0.76-1.281-0.916c-0.014-1.102-0.021-2.203-0.041-3.305
		c0.082,0,0.162-0.029,0.24-0.051c0.088-0.027,0.178-0.053,0.271-0.068c0.188-0.035,0.359-0.008,0.543,0.027
		c0.174,0.029,0.346,0.047,0.518,0c0.156-0.045,0.293-0.129,0.418-0.23c-0.354-0.012-0.648-0.229-0.955-0.375
		c-0.164-0.076-0.334-0.125-0.514-0.146c-0.178-0.02-0.389-0.035-0.566,0.018c-0.014-0.145-0.033-0.291-0.059-0.432H7.858
		c-0.121,0.705-0.105,1.414-0.115,2.123c-0.006,0.688-0.018,1.371-0.027,2.059c-0.004,0.127-0.004,0.254-0.006,0.381l-1.277,0.914
		c-0.127,0.064-0.129,0.25,0,0.316l1.25,0.59c-0.006,0.57-0.021,1.498-0.021,1.562l-2.545,5.979l-0.371-1.373h0.326v-0.002h0.164
		c0.074,0,0.148-0.027,0.213-0.051c0.051-0.014,0.162-0.053,0.162-0.119s-0.102-0.102-0.146-0.119
		c-0.07-0.027-0.15-0.051-0.229-0.051H4.653l-0.248-0.947c-0.008-0.385-0.016-0.779-0.021-1.164l1.404-0.658
		c0.143-0.072,0.145-0.279,0.006-0.354c0,0-1.348-0.955-1.445-1.02c-0.004-0.279-0.008-0.666-0.014-0.924l1.266-0.596
		c0.127-0.062,0.131-0.25,0.006-0.316c0,0-1.123-0.805-1.301-0.928c-0.012-0.924-0.02-1.539-0.023-1.605
		c0.145,0.012,0.303-0.072,0.445-0.1c0.158-0.031,0.314-0.016,0.471,0.01c0.154,0.031,0.309,0.053,0.463,0.018
		c0.145-0.037,0.277-0.117,0.393-0.211c-0.322-0.008-0.588-0.213-0.869-0.34c-0.143-0.066-0.301-0.107-0.461-0.123
		c-0.156-0.014-0.342-0.027-0.486,0.029c-0.018-0.121-0.035-0.244-0.061-0.383H4.108c-0.1,0.506-0.105,1.016-0.109,1.525
		c-0.006,0.439-0.01,0.738-0.02,1.18l-1.293,0.922c-0.133,0.066-0.133,0.254,0,0.318l1.264,0.6
		c-0.004,0.262-0.006,0.648-0.014,0.922l-1.422,1.018c-0.146,0.068-0.146,0.281-0.004,0.354l1.393,0.662
		c-0.006,0.383-0.014,0.77-0.021,1.148l-0.25,0.961H3.046c-0.072,0-0.148,0.021-0.213,0.045c-0.049,0.02-0.16,0.059-0.16,0.125
		c0,0.062,0.098,0.1,0.145,0.115c0.072,0.027,0.154,0.053,0.229,0.053h0.162c0,0,0,0.004,0.002,0.004h0.33l-0.439,1.662H2.399
		c-0.428-1.605-0.684-3.246-0.773-4.902c-0.096-1.656-0.025-3.318,0.209-4.963c0.215-1.521,0.576-3.029,1.08-4.48
		c0.484-1.383,1.096-2.719,1.844-3.979c0.393-0.662,0.822-1.303,1.295-1.918c1.902,0.639,4.367,0.053,4.367,0.053
		c2.219-0.4,3.604-0.336,4.404-0.213l0.434,0.074c0.045-0.271,0.08-0.465,0.16-0.721c-2.326-0.736-4.936-0.381-4.936-0.381
		C8.899,6.995,7.937,6.673,7.438,6.397c0,0,1-1.062,1.814-1.65c0.717,0.518,1.619,0.771,2.465,0.924
		c0.561,0.1,1.129,0.141,1.682,0.268c0.564,0.127,1.123,0.295,1.668,0.484c0.193,0.066,0.451,0.191,0.564,0.246
		c0.102-0.225,0.246-0.432,0.389-0.637l-0.361-0.229c-0.715-0.41-1.391-0.625-2.146-0.852C13.005,4.8,12.519,4.626,12.044,4.38
		c-0.645-0.33-1.041-0.766-1.076-0.793c0,0,1.102-0.676,2.143-1.059c0.48,0.68,1.373,1.061,1.984,1.584
		c0.859,0.73,1.316,1.424,1.357,1.494c0.203-0.152,0.393-0.26,0.65-0.359c-0.342-0.754-0.83-1.621-1.422-2.17
		c-0.27-0.248-0.67-0.68-0.783-1.115c0,0,1.385-0.348,2.447-0.363l0.398,3.498c0.146-0.027,0.371-0.025,0.371-0.025
		s0.141-0.002,0.371,0.025l0.396-3.496c0,0,0.938,0.047,1.707,0.199c0.424,0.082,0.744,0.164,0.744,0.164
		c-0.121,0.428-0.51,0.867-0.775,1.113c-0.6,0.561-1.066,1.412-1.412,2.176c0.203,0.092,0.432,0.182,0.645,0.357
		c0.402-0.6,0.9-1.105,1.355-1.498c0.596-0.521,1.49-0.924,1.973-1.584c0.121,0.045,0.66,0.25,1.518,0.689l0.641,0.367
		c-0.02,0.016-0.732,0.598-1.084,0.797c-0.461,0.264-0.959,0.418-1.463,0.57c-0.758,0.229-1.434,0.441-2.152,0.852l-0.363,0.223
		c0.145,0.18,0.279,0.395,0.396,0.641c0.131-0.062,0.375-0.18,0.561-0.242c0.547-0.191,1.104-0.359,1.672-0.486
		c0.549-0.127,1.119-0.168,1.676-0.268c0.842-0.148,1.75-0.418,2.459-0.924c0.902,0.699,1.818,1.652,1.818,1.652
		c-0.502,0.275-1.467,0.594-3.041,0.449c0,0-2.613-0.359-4.932,0.371c0.072,0.219,0.098,0.371,0.148,0.707l0.463-0.072
		c0.82-0.119,2.17-0.166,4.383,0.234c0,0,2.453,0.582,4.361-0.049c0.189,0.244,0.371,0.494,0.549,0.754
		c0.816,1.186,1.502,2.459,2.062,3.783c0.59,1.395,1.033,2.852,1.344,4.332c0.32,1.562,0.488,3.158,0.508,4.752
		C34.661,23.392,34.505,25.128,34.167,26.827"/>
</g>
</svg>
