<?xml version="1.0" encoding="utf-8"?>
<!-- Generator: Adobe Illustrator 16.0.1, SVG Export Plug-In . SVG Version: 6.00 Build 0)  -->
<!DOCTYPE svg PUBLIC "-//W3C//DTD SVG 1.0//EN" "http://www.w3.org/TR/2001/REC-SVG-20010904/DTD/svg10.dtd">
<svg version="1.0" id="Layer_1" xmlns="http://www.w3.org/2000/svg" xmlns:xlink="http://www.w3.org/1999/xlink" x="0px" y="0px"
	 width="248.734px" height="51.021px" viewBox="0 0 248.734 51.021" enable-background="new 0 0 248.734 51.021"
	 xml:space="preserve">
<g>
	<path fill="#00B4CC" d="M45.955,18.379v-3.252c0.021-2.273-1.023-4.463-2.836-5.885c-1.17-0.902-2.602-1.43-4.07-1.496
		c-0.057-0.053-0.113-0.105-0.172-0.156c-0.387-1.623-1.301-3.07-2.598-4.076C35.107,2.602,33.666,2.068,32.188,2
		c-0.168-0.158-0.348-0.311-0.529-0.451C30.396,0.551,28.814,0,27.209,0c-0.98,0-1.932,0.195-2.844,0.59L14.055,5.055
		c-1.135,0.473-2.082,1.096-2.818,1.838c-1.543,1.49-2.422,3.572-2.418,5.695c0,0.027,0,2.672,0,5.791H0v32.643h248.734V18.379
		H45.955z"/>
	<g enable-background="new    ">
		<path fill="#F1F2F2" d="M55.125,29.486h4.911c1.262,0,2.216,0.324,2.862,0.972c0.49,0.491,0.735,1.097,0.735,1.817v0.031
			c0,0.335-0.044,0.63-0.132,0.886c-0.088,0.256-0.202,0.48-0.342,0.673c-0.14,0.194-0.306,0.363-0.498,0.51
			c-0.191,0.146-0.386,0.271-0.583,0.376c0.322,0.115,0.615,0.248,0.88,0.399c0.265,0.151,0.493,0.332,0.686,0.541
			c0.192,0.209,0.34,0.454,0.444,0.736c0.104,0.281,0.156,0.61,0.156,0.986v0.032c0,0.49-0.096,0.924-0.289,1.3
			s-0.467,0.689-0.821,0.94s-0.782,0.441-1.283,0.571c-0.5,0.131-1.053,0.196-1.658,0.196h-5.067V29.486z M59.66,34.108
			c0.625,0,1.125-0.122,1.499-0.368c0.375-0.245,0.562-0.619,0.562-1.12v-0.031c0-0.438-0.164-0.781-0.492-1.026
			s-0.804-0.368-1.429-0.368h-2.764v2.914H59.66z M60.223,38.746c0.656,0,1.172-0.125,1.547-0.376
			c0.375-0.251,0.562-0.627,0.562-1.128v-0.031c0-0.47-0.186-0.833-0.555-1.089s-0.935-0.384-1.695-0.384h-3.046v3.008H60.223z"/>
		<path fill="#F1F2F2" d="M66.249,29.11h2.052v1.802h-2.052V29.11z M66.327,32.182h1.912v8.272h-1.912V32.182z"/>
		<path fill="#F1F2F2" d="M75.408,40.626c-0.678,0-1.24-0.146-1.688-0.438c-0.448-0.292-0.818-0.632-1.11-1.019v1.285h-1.911V29.017
			h1.911l-0.016,4.544c0.303-0.439,0.679-0.808,1.128-1.105c0.449-0.297,1.008-0.446,1.676-0.446c0.491,0,0.966,0.094,1.426,0.282
			s0.87,0.465,1.23,0.83c0.36,0.366,0.65,0.815,0.87,1.348c0.219,0.533,0.329,1.144,0.329,1.833v0.031
			c0,0.689-0.107,1.301-0.32,1.834c-0.214,0.532-0.5,0.981-0.86,1.347c-0.359,0.366-0.771,0.643-1.235,0.831
			C76.375,40.532,75.897,40.626,75.408,40.626z M74.976,38.981c0.324,0,0.629-0.062,0.917-0.188c0.287-0.125,0.538-0.3,0.752-0.524
			c0.214-0.225,0.384-0.502,0.509-0.83c0.125-0.329,0.188-0.697,0.188-1.105v-0.031c0-0.396-0.062-0.76-0.188-1.089
			s-0.295-0.608-0.509-0.838c-0.214-0.229-0.465-0.407-0.752-0.533c-0.288-0.125-0.593-0.188-0.917-0.188
			c-0.324,0-0.632,0.062-0.924,0.188c-0.293,0.126-0.549,0.306-0.768,0.541s-0.394,0.515-0.525,0.838
			c-0.13,0.324-0.196,0.685-0.196,1.081v0.031c0,0.397,0.065,0.761,0.196,1.089c0.131,0.329,0.306,0.609,0.525,0.839
			s0.475,0.407,0.768,0.532C74.344,38.919,74.652,38.981,74.976,38.981z"/>
		<path fill="#F1F2F2" d="M81.306,29.017h1.912v11.438h-1.912V29.017z"/>
		<path fill="#F1F2F2" d="M85.708,29.11h2.052v1.802h-2.052V29.11z M85.787,32.182h1.912v8.272h-1.912V32.182z"/>
		<path fill="#F1F2F2" d="M94.091,40.643c-0.627,0-1.209-0.113-1.747-0.337c-0.538-0.225-1.003-0.53-1.395-0.917
			s-0.697-0.841-0.917-1.363s-0.329-1.075-0.329-1.661v-0.031c0-0.595,0.112-1.153,0.337-1.676s0.533-0.979,0.924-1.371
			s0.856-0.702,1.395-0.933c0.538-0.229,1.125-0.345,1.763-0.345s1.225,0.112,1.763,0.337c0.538,0.225,1.003,0.533,1.395,0.925
			s0.697,0.846,0.917,1.363c0.219,0.517,0.329,1.073,0.329,1.668v0.031c0,0.586-0.112,1.139-0.337,1.661s-0.533,0.979-0.924,1.371
			c-0.392,0.392-0.859,0.702-1.402,0.933C95.318,40.527,94.728,40.643,94.091,40.643z M94.122,38.997
			c0.384,0,0.729-0.07,1.035-0.212c0.307-0.141,0.569-0.331,0.787-0.571s0.384-0.52,0.498-0.839
			c0.114-0.318,0.171-0.655,0.171-1.011v-0.031c0-0.365-0.062-0.71-0.187-1.034c-0.125-0.323-0.298-0.605-0.521-0.846
			s-0.488-0.431-0.794-0.571c-0.307-0.142-0.646-0.212-1.02-0.212s-0.714,0.07-1.02,0.212c-0.306,0.141-0.568,0.328-0.786,0.563
			c-0.218,0.235-0.384,0.515-0.499,0.838c-0.114,0.324-0.171,0.664-0.171,1.019v0.031c0,0.366,0.062,0.708,0.187,1.026
			c0.125,0.319,0.298,0.601,0.521,0.847c0.224,0.245,0.488,0.438,0.794,0.579C93.424,38.927,93.759,38.997,94.122,38.997z"/>
		<path fill="#F1F2F2" d="M103.241,40.595c-0.345,0-0.665-0.041-0.959-0.125c-0.295-0.083-0.55-0.22-0.766-0.407
			c-0.216-0.188-0.382-0.437-0.498-0.744c-0.116-0.309-0.174-0.692-0.174-1.151v-4.356h-1.05v-1.629h1.05v-2.272h1.912v2.272h2.225
			v1.629h-2.225v4.059c0,0.365,0.088,0.629,0.266,0.791s0.428,0.243,0.752,0.243c0.408,0,0.799-0.095,1.175-0.282v1.551
			c-0.24,0.136-0.496,0.24-0.768,0.313C103.909,40.559,103.596,40.595,103.241,40.595z"/>
		<path fill="#F1F2F2" d="M110.667,40.643c-0.595,0-1.151-0.105-1.668-0.313c-0.517-0.209-0.966-0.502-1.348-0.878
			s-0.682-0.827-0.901-1.355c-0.219-0.527-0.329-1.109-0.329-1.747v-0.031c0-0.595,0.099-1.153,0.298-1.676
			c0.198-0.522,0.478-0.979,0.838-1.371s0.786-0.7,1.277-0.925c0.491-0.225,1.034-0.337,1.629-0.337c0.658,0,1.235,0.12,1.731,0.36
			c0.496,0.24,0.909,0.564,1.238,0.972c0.329,0.407,0.577,0.88,0.744,1.418c0.167,0.538,0.25,1.104,0.25,1.7
			c0,0.083-0.002,0.17-0.008,0.258c-0.005,0.089-0.013,0.181-0.023,0.274h-6.079c0.104,0.68,0.373,1.199,0.807,1.56
			s0.958,0.54,1.575,0.54c0.47,0,0.877-0.083,1.222-0.251c0.345-0.167,0.684-0.412,1.019-0.736l1.112,0.987
			c-0.397,0.47-0.87,0.847-1.418,1.128C112.085,40.501,111.43,40.643,110.667,40.643z M112.548,35.738
			c-0.032-0.303-0.1-0.588-0.204-0.854c-0.104-0.266-0.245-0.496-0.423-0.689c-0.178-0.192-0.389-0.347-0.634-0.462
			c-0.246-0.114-0.525-0.172-0.838-0.172c-0.585,0-1.068,0.201-1.449,0.603c-0.381,0.402-0.614,0.928-0.697,1.575H112.548z"/>
		<path fill="#F1F2F2" d="M120.178,40.643c-0.616,0-1.186-0.113-1.708-0.337c-0.523-0.225-0.976-0.53-1.36-0.917
			c-0.385-0.387-0.685-0.841-0.901-1.363c-0.216-0.522-0.324-1.075-0.324-1.661v-0.031c0-0.584,0.108-1.141,0.324-1.668
			c0.216-0.527,0.516-0.987,0.901-1.379c0.384-0.392,0.84-0.702,1.368-0.933c0.528-0.229,1.1-0.345,1.716-0.345
			c0.784,0,1.434,0.131,1.951,0.392c0.517,0.262,0.969,0.606,1.355,1.034l-1.175,1.27c-0.292-0.303-0.603-0.551-0.932-0.744
			s-0.734-0.29-1.214-0.29c-0.345,0-0.663,0.07-0.956,0.212c-0.292,0.141-0.543,0.328-0.752,0.563
			c-0.209,0.235-0.374,0.515-0.494,0.838c-0.12,0.324-0.18,0.664-0.18,1.019v0.031c0,0.366,0.06,0.711,0.18,1.034
			c0.12,0.324,0.29,0.606,0.509,0.847s0.48,0.431,0.783,0.571c0.303,0.142,0.637,0.212,1.003,0.212c0.449,0,0.843-0.097,1.183-0.29
			s0.661-0.441,0.964-0.744l1.144,1.128c-0.407,0.46-0.872,0.833-1.394,1.12C121.646,40.498,120.982,40.643,120.178,40.643z"/>
		<path fill="#F1F2F2" d="M130.346,40.454v-1.019c-0.282,0.335-0.642,0.616-1.081,0.847c-0.438,0.229-0.971,0.344-1.598,0.344
			c-0.397,0-0.773-0.055-1.128-0.164c-0.355-0.109-0.666-0.271-0.932-0.485c-0.267-0.214-0.481-0.48-0.643-0.8
			c-0.162-0.318-0.243-0.687-0.243-1.104v-0.031c0-0.459,0.083-0.858,0.25-1.198c0.167-0.34,0.399-0.621,0.697-0.847
			c0.298-0.224,0.653-0.392,1.065-0.501s0.859-0.164,1.339-0.164c0.501,0,0.927,0.031,1.277,0.094
			c0.35,0.062,0.687,0.146,1.01,0.251v-0.157c0-0.574-0.175-1.013-0.525-1.316c-0.35-0.303-0.854-0.454-1.512-0.454
			c-0.47,0-0.888,0.047-1.253,0.142c-0.366,0.094-0.736,0.219-1.113,0.376l-0.517-1.521c0.459-0.209,0.929-0.376,1.41-0.501
			c0.48-0.125,1.06-0.188,1.739-0.188c1.232,0,2.146,0.306,2.742,0.917c0.595,0.611,0.893,1.471,0.893,2.577v4.904H130.346z
			 M130.393,36.991c-0.24-0.094-0.525-0.172-0.854-0.234c-0.329-0.063-0.677-0.095-1.042-0.095c-0.596,0-1.061,0.115-1.395,0.345
			c-0.334,0.23-0.501,0.544-0.501,0.94v0.031c0,0.397,0.154,0.7,0.462,0.909c0.308,0.209,0.687,0.312,1.136,0.312
			c0.313,0,0.604-0.041,0.87-0.125c0.266-0.083,0.499-0.201,0.697-0.353c0.198-0.151,0.353-0.334,0.462-0.548
			c0.109-0.215,0.164-0.452,0.164-0.713V36.991z"/>
		<path fill="#F1F2F2" d="M144.51,40.643c-0.805,0-1.546-0.146-2.225-0.439c-0.679-0.292-1.268-0.691-1.767-1.198
			c-0.5-0.507-0.891-1.104-1.175-1.794s-0.426-1.426-0.426-2.209v-0.031c0-0.784,0.139-1.518,0.418-2.202
			c0.279-0.684,0.67-1.284,1.175-1.802c0.504-0.517,1.101-0.924,1.791-1.222s1.452-0.446,2.288-0.446
			c0.501,0,0.958,0.041,1.371,0.125s0.791,0.201,1.136,0.353s0.663,0.332,0.956,0.54c0.292,0.21,0.569,0.439,0.83,0.689
			l-1.238,1.426c-0.438-0.407-0.903-0.736-1.395-0.986c-0.491-0.251-1.049-0.376-1.676-0.376c-0.522,0-1.005,0.102-1.449,0.305
			c-0.444,0.204-0.828,0.481-1.152,0.831s-0.574,0.76-0.752,1.229c-0.178,0.471-0.266,0.972-0.266,1.504v0.032
			c0,0.532,0.088,1.036,0.266,1.512s0.428,0.891,0.752,1.245c0.324,0.355,0.708,0.635,1.152,0.839
			c0.444,0.203,0.927,0.306,1.449,0.306c0.668,0,1.243-0.128,1.724-0.385c0.48-0.256,0.956-0.603,1.426-1.041l1.238,1.253
			c-0.282,0.303-0.578,0.572-0.885,0.807c-0.308,0.235-0.64,0.439-0.995,0.611c-0.355,0.173-0.744,0.303-1.167,0.392
			C145.489,40.598,145.022,40.643,144.51,40.643z"/>
		<path fill="#F1F2F2" d="M154.678,40.643c-0.627,0-1.209-0.113-1.747-0.337c-0.538-0.225-1.003-0.53-1.395-0.917
			s-0.697-0.841-0.917-1.363s-0.329-1.075-0.329-1.661v-0.031c0-0.595,0.112-1.153,0.337-1.676s0.533-0.979,0.924-1.371
			s0.856-0.702,1.395-0.933c0.538-0.229,1.125-0.345,1.763-0.345s1.225,0.112,1.763,0.337c0.538,0.225,1.003,0.533,1.395,0.925
			s0.697,0.846,0.917,1.363c0.219,0.517,0.329,1.073,0.329,1.668v0.031c0,0.586-0.112,1.139-0.337,1.661s-0.533,0.979-0.924,1.371
			c-0.392,0.392-0.859,0.702-1.402,0.933C155.905,40.527,155.315,40.643,154.678,40.643z M154.709,38.997
			c0.384,0,0.729-0.07,1.035-0.212c0.307-0.141,0.569-0.331,0.787-0.571s0.384-0.52,0.498-0.839
			c0.114-0.318,0.171-0.655,0.171-1.011v-0.031c0-0.365-0.062-0.71-0.187-1.034c-0.125-0.323-0.298-0.605-0.521-0.846
			s-0.488-0.431-0.794-0.571c-0.307-0.142-0.646-0.212-1.02-0.212s-0.714,0.07-1.02,0.212c-0.306,0.141-0.568,0.328-0.786,0.563
			c-0.218,0.235-0.384,0.515-0.499,0.838c-0.114,0.324-0.171,0.664-0.171,1.019v0.031c0,0.366,0.062,0.708,0.187,1.026
			c0.125,0.319,0.298,0.601,0.521,0.847c0.224,0.245,0.488,0.438,0.794,0.579C154.011,38.927,154.346,38.997,154.709,38.997z"/>
		<path fill="#F1F2F2" d="M161.04,32.182h1.911v1.267c0.135-0.19,0.281-0.369,0.438-0.538c0.156-0.168,0.335-0.321,0.539-0.458
			c0.203-0.138,0.432-0.245,0.688-0.324c0.255-0.079,0.539-0.119,0.852-0.119c0.593,0,1.096,0.135,1.507,0.403
			s0.726,0.625,0.945,1.067c0.335-0.442,0.731-0.799,1.187-1.067s0.998-0.403,1.626-0.403c0.911,0,1.624,0.274,2.137,0.823
			c0.513,0.548,0.77,1.329,0.77,2.342v5.28h-1.912v-4.689c0-0.656-0.146-1.156-0.437-1.501c-0.291-0.344-0.702-0.516-1.232-0.516
			c-0.52,0-0.943,0.175-1.271,0.523c-0.328,0.35-0.491,0.857-0.491,1.524v4.658h-1.912v-4.705c0-0.646-0.146-1.141-0.437-1.485
			c-0.291-0.344-0.702-0.516-1.232-0.516s-0.957,0.183-1.279,0.547c-0.323,0.365-0.484,0.871-0.484,1.517v4.643h-1.911V32.182z"/>
		<path fill="#F1F2F2" d="M178.768,40.626c-0.938,0-1.662-0.287-2.172-0.861s-0.766-1.348-0.766-2.318v-5.265h1.912v4.689
			c0,0.646,0.152,1.144,0.458,1.492c0.306,0.35,0.738,0.524,1.297,0.524c0.548,0,0.994-0.18,1.335-0.54
			c0.342-0.359,0.513-0.862,0.513-1.508v-4.658h1.912v8.272h-1.912v-1.298c-0.271,0.4-0.609,0.745-1.015,1.035
			C179.923,40.481,179.403,40.626,178.768,40.626z"/>
		<path fill="#F1F2F2" d="M185.638,32.182h1.911v1.298c0.136-0.2,0.284-0.388,0.445-0.562c0.162-0.174,0.349-0.329,0.562-0.466
			c0.213-0.138,0.448-0.245,0.703-0.324c0.255-0.079,0.544-0.119,0.867-0.119c0.938,0,1.661,0.288,2.172,0.862
			c0.51,0.574,0.766,1.347,0.766,2.318v5.265h-1.912v-4.689c0-0.646-0.153-1.144-0.458-1.493c-0.306-0.349-0.738-0.523-1.297-0.523
			c-0.549,0-0.994,0.18-1.336,0.539c-0.342,0.36-0.513,0.863-0.513,1.509v4.658h-1.911V32.182z"/>
		<path fill="#F1F2F2" d="M195.384,29.11h2.052v1.802h-2.052V29.11z M195.462,32.182h1.912v8.272h-1.912V32.182z"/>
		<path fill="#F1F2F2" d="M202.622,40.595c-0.345,0-0.665-0.041-0.959-0.125c-0.295-0.083-0.55-0.22-0.766-0.407
			c-0.216-0.188-0.382-0.437-0.498-0.744c-0.116-0.309-0.174-0.692-0.174-1.151v-4.356h-1.05v-1.629h1.05v-2.272h1.912v2.272h2.225
			v1.629h-2.225v4.059c0,0.365,0.088,0.629,0.266,0.791s0.428,0.243,0.752,0.243c0.408,0,0.799-0.095,1.175-0.282v1.551
			c-0.24,0.136-0.496,0.24-0.768,0.313C203.291,40.559,202.977,40.595,202.622,40.595z"/>
		<path fill="#F1F2F2" d="M211.318,40.454v-1.019c-0.282,0.335-0.642,0.616-1.081,0.847c-0.438,0.229-0.971,0.344-1.598,0.344
			c-0.397,0-0.773-0.055-1.128-0.164c-0.355-0.109-0.666-0.271-0.932-0.485c-0.267-0.214-0.481-0.48-0.643-0.8
			c-0.162-0.318-0.243-0.687-0.243-1.104v-0.031c0-0.459,0.083-0.858,0.25-1.198c0.167-0.34,0.399-0.621,0.697-0.847
			c0.298-0.224,0.653-0.392,1.065-0.501s0.859-0.164,1.339-0.164c0.501,0,0.927,0.031,1.277,0.094
			c0.35,0.062,0.687,0.146,1.01,0.251v-0.157c0-0.574-0.175-1.013-0.525-1.316c-0.35-0.303-0.854-0.454-1.512-0.454
			c-0.47,0-0.888,0.047-1.253,0.142c-0.366,0.094-0.736,0.219-1.113,0.376l-0.517-1.521c0.459-0.209,0.929-0.376,1.41-0.501
			c0.48-0.125,1.06-0.188,1.739-0.188c1.232,0,2.146,0.306,2.742,0.917c0.595,0.611,0.893,1.471,0.893,2.577v4.904H211.318z
			 M211.365,36.991c-0.24-0.094-0.525-0.172-0.854-0.234c-0.329-0.063-0.677-0.095-1.042-0.095c-0.596,0-1.061,0.115-1.395,0.345
			c-0.334,0.23-0.501,0.544-0.501,0.94v0.031c0,0.397,0.154,0.7,0.462,0.909c0.308,0.209,0.687,0.312,1.136,0.312
			c0.313,0,0.604-0.041,0.87-0.125c0.266-0.083,0.499-0.201,0.697-0.353c0.198-0.151,0.353-0.334,0.462-0.548
			c0.109-0.215,0.164-0.452,0.164-0.713V36.991z"/>
		<path fill="#F1F2F2" d="M215.454,32.182h1.911v1.864c0.261-0.627,0.632-1.128,1.113-1.504c0.48-0.376,1.086-0.549,1.817-0.518
			v2.006h-0.11c-0.418,0-0.799,0.068-1.144,0.203c-0.345,0.137-0.643,0.34-0.893,0.611c-0.251,0.271-0.444,0.614-0.58,1.026
			c-0.136,0.413-0.204,0.891-0.204,1.434v3.149h-1.911V32.182z"/>
		<path fill="#F1F2F2" d="M221.956,29.11h2.052v1.802h-2.052V29.11z M222.034,32.182h1.912v8.272h-1.912V32.182z"/>
		<path fill="#F1F2F2" d="M231.466,40.454v-1.019c-0.282,0.335-0.642,0.616-1.081,0.847c-0.438,0.229-0.971,0.344-1.598,0.344
			c-0.397,0-0.773-0.055-1.128-0.164c-0.355-0.109-0.666-0.271-0.932-0.485c-0.267-0.214-0.481-0.48-0.643-0.8
			c-0.162-0.318-0.243-0.687-0.243-1.104v-0.031c0-0.459,0.083-0.858,0.25-1.198c0.167-0.34,0.399-0.621,0.697-0.847
			c0.298-0.224,0.653-0.392,1.065-0.501s0.859-0.164,1.339-0.164c0.501,0,0.927,0.031,1.277,0.094
			c0.35,0.062,0.687,0.146,1.01,0.251v-0.157c0-0.574-0.175-1.013-0.525-1.316c-0.35-0.303-0.854-0.454-1.512-0.454
			c-0.47,0-0.888,0.047-1.253,0.142c-0.366,0.094-0.736,0.219-1.113,0.376l-0.517-1.521c0.459-0.209,0.929-0.376,1.41-0.501
			c0.48-0.125,1.06-0.188,1.739-0.188c1.232,0,2.146,0.306,2.742,0.917c0.595,0.611,0.893,1.471,0.893,2.577v4.904H231.466z
			 M231.513,36.991c-0.24-0.094-0.525-0.172-0.854-0.234c-0.329-0.063-0.677-0.095-1.042-0.095c-0.596,0-1.061,0.115-1.395,0.345
			c-0.334,0.23-0.501,0.544-0.501,0.94v0.031c0,0.397,0.154,0.7,0.462,0.909c0.308,0.209,0.687,0.312,1.136,0.312
			c0.313,0,0.604-0.041,0.87-0.125c0.266-0.083,0.499-0.201,0.697-0.353c0.198-0.151,0.353-0.334,0.462-0.548
			c0.109-0.215,0.164-0.452,0.164-0.713V36.991z"/>
	</g>
	<path id="books_22_" fill="#FFFFFF" d="M39.125,14.406c-0.191-0.148-0.43-0.18-0.648-0.086l-10.359,4.486
		c-0.455,0.197-1.018,0.291-1.598,0.291c-0.805,0.004-1.643-0.186-2.225-0.441c-0.209-0.09-0.379-0.188-0.506-0.277
		c0.043-0.023,0.096-0.045,0.154-0.07l9.428-4.08l1.406,0.602v-1.76c0-0.262-0.111-0.51-0.301-0.652
		c-0.191-0.148-0.434-0.186-0.648-0.088l-10.371,4.484c-0.316,0.133-0.592,0.289-0.826,0.52c-0.229,0.225-0.424,0.594-0.422,1
		c0,0.014,0.004,0.029,0.004,0.029V32.02c0,0.006-0.004,0.012-0.004,0.02c0,0.006,0.004,0.008,0.004,0.012v0.021l0,0
		c0.025,0.561,0.303,0.914,0.568,1.15c0.838,0.738,2.244,1.15,3.736,1.186c0.711,0,1.432-0.111,2.094-0.395l10.363-4.492
		c0.273-0.111,0.451-0.41,0.451-0.736V15.066C39.43,14.803,39.316,14.557,39.125,14.406z M32.555,9.26
		c-0.021-0.236-0.117-0.463-0.291-0.6c-0.193-0.148-0.434-0.182-0.648-0.086L21.25,13.062c-0.449,0.191-1.016,0.291-1.594,0.291
		c-0.805,0-1.645-0.189-2.227-0.445c-0.207-0.088-0.381-0.188-0.506-0.279c0.045-0.021,0.1-0.041,0.156-0.064l9.428-4.084
		l1.404,0.602V7.326c0-0.262-0.111-0.51-0.305-0.654c-0.189-0.152-0.436-0.186-0.65-0.09L16.596,11.07
		c-0.318,0.131-0.596,0.285-0.826,0.516c-0.23,0.223-0.426,0.594-0.426,1.004c0,0.014,0.004,0.025,0.004,0.025v15.803
		c0,0.008,0,0.016,0,0.025c0,0.002,0,0.004,0,0.018v0.023h0.006c0.021,0.559,0.299,0.918,0.564,1.15
		c0.84,0.738,2.244,1.141,3.738,1.176c0.406,0,0.809-0.051,1.207-0.129V18.367c-0.01-0.75,0.289-1.471,0.82-1.99
		c0.34-0.338,0.758-0.604,1.275-0.811l9.596-4.16V9.26L32.555,9.26z"/>
	<path fill="#00B4CC" d="M36.068,21.781L34.363,22.5l-0.008-1.854c-0.002-0.143-0.107-0.215-0.236-0.16l-2.047,0.863
		c-0.129,0.055-0.234,0.215-0.234,0.355l0.01,1.855l-1.703,0.719c-0.131,0.055-0.236,0.213-0.236,0.355l0.01,2.229
		c0.002,0.139,0.109,0.213,0.238,0.156l1.703-0.719l0.01,1.855c0,0.141,0.107,0.211,0.236,0.158l2.047-0.863
		c0.129-0.055,0.234-0.213,0.234-0.355l-0.01-1.855l1.703-0.719c0.131-0.055,0.236-0.215,0.236-0.357l-0.012-2.227
		C36.305,21.797,36.199,21.727,36.068,21.781z"/>
</g>
</svg>
