<?xml version="1.0" encoding="utf-8"?>
<!-- Generator: Adobe Illustrator 16.0.1, SVG Export Plug-In . SVG Version: 6.00 Build 0)  -->
<!DOCTYPE svg PUBLIC "-//W3C//DTD SVG 1.0//EN" "http://www.w3.org/TR/2001/REC-SVG-20010904/DTD/svg10.dtd">
<svg version="1.0" id="Layer_1" xmlns="http://www.w3.org/2000/svg" xmlns:xlink="http://www.w3.org/1999/xlink" x="0px" y="0px"
	 width="146.02px" height="51.021px" viewBox="0 0 146.02 51.021" enable-background="new 0 0 146.02 51.021" xml:space="preserve">
<g>
	<g>
		<path fill="#4E6FC4" d="M46.645,18.379v-3.316c0-2.268-1.008-4.373-2.805-5.795c-1.174-0.922-2.623-1.455-4.105-1.523
			c-0.057-0.051-0.109-0.104-0.166-0.154c-0.391-1.613-1.303-3.061-2.6-4.076C35.793,2.596,34.346,2.062,32.865,2
			c-0.18-0.174-0.369-0.338-0.568-0.49C31.043,0.535,29.484,0,27.898,0c-0.992,0-1.957,0.203-2.844,0.592L14.748,5.053
			c-1.094,0.453-2.057,1.082-2.85,1.857c-1.539,1.502-2.412,3.594-2.393,5.678c0,0.025,0,2.666,0,5.795H0v32.639h146.02V18.383
			H46.645V18.379z"/>
		<g enable-background="new    ">
			<path fill="#F1F2F2" d="M54.801,29.486h4.911c1.262,0,2.216,0.324,2.862,0.972c0.49,0.491,0.735,1.097,0.735,1.817v0.031
				c0,0.335-0.044,0.63-0.132,0.886c-0.088,0.256-0.202,0.48-0.342,0.673c-0.14,0.194-0.306,0.363-0.498,0.51
				c-0.191,0.146-0.386,0.271-0.583,0.376c0.322,0.115,0.615,0.248,0.88,0.399c0.265,0.151,0.493,0.332,0.686,0.541
				c0.192,0.209,0.34,0.454,0.444,0.736c0.104,0.281,0.156,0.61,0.156,0.986v0.032c0,0.49-0.096,0.924-0.289,1.3
				s-0.467,0.689-0.821,0.94s-0.782,0.441-1.283,0.571c-0.5,0.131-1.053,0.196-1.658,0.196h-5.067V29.486z M59.335,34.108
				c0.625,0,1.125-0.122,1.499-0.368c0.375-0.245,0.562-0.619,0.562-1.12v-0.031c0-0.438-0.164-0.781-0.492-1.026
				s-0.804-0.368-1.429-0.368h-2.764v2.914H59.335z M59.899,38.746c0.656,0,1.172-0.125,1.547-0.376
				c0.375-0.251,0.562-0.627,0.562-1.128v-0.031c0-0.47-0.186-0.833-0.555-1.089s-0.935-0.384-1.695-0.384h-3.046v3.008H59.899z"/>
			<path fill="#F1F2F2" d="M65.925,29.11h2.052v1.802h-2.052V29.11z M66.003,32.182h1.912v8.272h-1.912V32.182z"/>
			<path fill="#F1F2F2" d="M75.084,40.626c-0.678,0-1.24-0.146-1.688-0.438c-0.448-0.292-0.818-0.632-1.11-1.019v1.285h-1.911
				V29.017h1.911l-0.016,4.544c0.303-0.439,0.679-0.808,1.128-1.105c0.449-0.297,1.008-0.446,1.676-0.446
				c0.491,0,0.966,0.094,1.426,0.282s0.87,0.465,1.23,0.83c0.36,0.366,0.65,0.815,0.87,1.348c0.219,0.533,0.329,1.144,0.329,1.833
				v0.031c0,0.689-0.107,1.301-0.32,1.834c-0.214,0.532-0.5,0.981-0.86,1.347c-0.359,0.366-0.771,0.643-1.235,0.831
				C76.05,40.532,75.573,40.626,75.084,40.626z M74.652,38.981c0.324,0,0.629-0.062,0.917-0.188c0.287-0.125,0.538-0.3,0.752-0.524
				c0.214-0.225,0.384-0.502,0.509-0.83c0.125-0.329,0.188-0.697,0.188-1.105v-0.031c0-0.396-0.062-0.76-0.188-1.089
				s-0.295-0.608-0.509-0.838c-0.214-0.229-0.465-0.407-0.752-0.533c-0.288-0.125-0.593-0.188-0.917-0.188
				c-0.324,0-0.632,0.062-0.924,0.188c-0.293,0.126-0.549,0.306-0.768,0.541s-0.394,0.515-0.525,0.838
				c-0.13,0.324-0.196,0.685-0.196,1.081v0.031c0,0.397,0.065,0.761,0.196,1.089c0.131,0.329,0.306,0.609,0.525,0.839
				s0.475,0.407,0.768,0.532C74.02,38.919,74.328,38.981,74.652,38.981z"/>
			<path fill="#F1F2F2" d="M80.981,29.017h1.912v11.438h-1.912V29.017z"/>
			<path fill="#F1F2F2" d="M85.384,29.11h2.052v1.802h-2.052V29.11z M85.462,32.182h1.912v8.272h-1.912V32.182z"/>
			<path fill="#F1F2F2" d="M93.767,40.643c-0.627,0-1.209-0.113-1.747-0.337c-0.538-0.225-1.003-0.53-1.395-0.917
				s-0.697-0.841-0.917-1.363s-0.329-1.075-0.329-1.661v-0.031c0-0.595,0.112-1.153,0.337-1.676s0.533-0.979,0.924-1.371
				s0.856-0.702,1.395-0.933c0.538-0.229,1.125-0.345,1.763-0.345s1.225,0.112,1.763,0.337c0.538,0.225,1.003,0.533,1.395,0.925
				s0.697,0.846,0.917,1.363c0.219,0.517,0.329,1.073,0.329,1.668v0.031c0,0.586-0.112,1.139-0.337,1.661s-0.533,0.979-0.924,1.371
				c-0.392,0.392-0.859,0.702-1.402,0.933C94.994,40.527,94.403,40.643,93.767,40.643z M93.798,38.997
				c0.384,0,0.729-0.07,1.035-0.212c0.307-0.141,0.569-0.331,0.787-0.571s0.384-0.52,0.498-0.839
				c0.114-0.318,0.171-0.655,0.171-1.011v-0.031c0-0.365-0.062-0.71-0.187-1.034c-0.125-0.323-0.298-0.605-0.521-0.846
				s-0.488-0.431-0.794-0.571c-0.307-0.142-0.646-0.212-1.02-0.212s-0.714,0.07-1.02,0.212c-0.306,0.141-0.568,0.328-0.786,0.563
				c-0.218,0.235-0.384,0.515-0.499,0.838c-0.114,0.324-0.171,0.664-0.171,1.019v0.031c0,0.366,0.062,0.708,0.187,1.026
				c0.125,0.319,0.298,0.601,0.521,0.847c0.224,0.245,0.488,0.438,0.794,0.579C93.1,38.927,93.435,38.997,93.798,38.997z"/>
			<path fill="#F1F2F2" d="M102.917,40.595c-0.345,0-0.665-0.041-0.959-0.125c-0.295-0.083-0.55-0.22-0.766-0.407
				c-0.216-0.188-0.382-0.437-0.498-0.744c-0.116-0.309-0.174-0.692-0.174-1.151v-4.356h-1.05v-1.629h1.05v-2.272h1.912v2.272h2.225
				v1.629h-2.225v4.059c0,0.365,0.088,0.629,0.266,0.791s0.428,0.243,0.752,0.243c0.408,0,0.799-0.095,1.175-0.282v1.551
				c-0.24,0.136-0.496,0.24-0.768,0.313C103.585,40.559,103.271,40.595,102.917,40.595z"/>
			<path fill="#F1F2F2" d="M110.343,40.643c-0.595,0-1.151-0.105-1.668-0.313c-0.517-0.209-0.966-0.502-1.348-0.878
				s-0.682-0.827-0.901-1.355c-0.219-0.527-0.329-1.109-0.329-1.747v-0.031c0-0.595,0.099-1.153,0.298-1.676
				c0.198-0.522,0.478-0.979,0.838-1.371s0.786-0.7,1.277-0.925c0.491-0.225,1.034-0.337,1.629-0.337c0.658,0,1.235,0.12,1.731,0.36
				c0.496,0.24,0.909,0.564,1.238,0.972c0.329,0.407,0.577,0.88,0.744,1.418c0.167,0.538,0.25,1.104,0.25,1.7
				c0,0.083-0.002,0.17-0.008,0.258c-0.005,0.089-0.013,0.181-0.023,0.274h-6.079c0.104,0.68,0.373,1.199,0.807,1.56
				s0.958,0.54,1.575,0.54c0.47,0,0.877-0.083,1.222-0.251c0.345-0.167,0.684-0.412,1.019-0.736l1.112,0.987
				c-0.397,0.47-0.87,0.847-1.418,1.128C111.761,40.501,111.105,40.643,110.343,40.643z M112.224,35.738
				c-0.032-0.303-0.1-0.588-0.204-0.854c-0.104-0.266-0.245-0.496-0.423-0.689c-0.178-0.192-0.389-0.347-0.634-0.462
				c-0.246-0.114-0.525-0.172-0.838-0.172c-0.585,0-1.068,0.201-1.449,0.603c-0.381,0.402-0.614,0.928-0.697,1.575H112.224z"/>
			<path fill="#F1F2F2" d="M119.854,40.643c-0.616,0-1.186-0.113-1.708-0.337c-0.523-0.225-0.976-0.53-1.36-0.917
				c-0.385-0.387-0.685-0.841-0.901-1.363c-0.216-0.522-0.324-1.075-0.324-1.661v-0.031c0-0.584,0.108-1.141,0.324-1.668
				c0.216-0.527,0.516-0.987,0.901-1.379c0.384-0.392,0.84-0.702,1.368-0.933c0.528-0.229,1.1-0.345,1.716-0.345
				c0.784,0,1.434,0.131,1.951,0.392c0.517,0.262,0.969,0.606,1.355,1.034L122,34.704c-0.292-0.303-0.603-0.551-0.932-0.744
				s-0.734-0.29-1.214-0.29c-0.345,0-0.663,0.07-0.956,0.212c-0.292,0.141-0.543,0.328-0.752,0.563
				c-0.209,0.235-0.374,0.515-0.494,0.838c-0.12,0.324-0.18,0.664-0.18,1.019v0.031c0,0.366,0.06,0.711,0.18,1.034
				c0.12,0.324,0.29,0.606,0.509,0.847s0.48,0.431,0.783,0.571c0.303,0.142,0.637,0.212,1.003,0.212c0.449,0,0.843-0.097,1.183-0.29
				s0.661-0.441,0.964-0.744l1.144,1.128c-0.407,0.46-0.872,0.833-1.394,1.12C121.321,40.498,120.658,40.643,119.854,40.643z"/>
			<path fill="#F1F2F2" d="M130.022,40.454v-1.019c-0.282,0.335-0.642,0.616-1.081,0.847c-0.438,0.229-0.971,0.344-1.598,0.344
				c-0.397,0-0.773-0.055-1.128-0.164c-0.355-0.109-0.666-0.271-0.932-0.485c-0.267-0.214-0.481-0.48-0.643-0.8
				c-0.162-0.318-0.243-0.687-0.243-1.104v-0.031c0-0.459,0.083-0.858,0.25-1.198c0.167-0.34,0.399-0.621,0.697-0.847
				c0.298-0.224,0.653-0.392,1.065-0.501s0.859-0.164,1.339-0.164c0.501,0,0.927,0.031,1.277,0.094
				c0.35,0.062,0.687,0.146,1.01,0.251v-0.157c0-0.574-0.175-1.013-0.525-1.316c-0.35-0.303-0.854-0.454-1.512-0.454
				c-0.47,0-0.888,0.047-1.253,0.142c-0.366,0.094-0.736,0.219-1.113,0.376l-0.517-1.521c0.459-0.209,0.929-0.376,1.41-0.501
				c0.48-0.125,1.06-0.188,1.739-0.188c1.232,0,2.146,0.306,2.742,0.917c0.595,0.611,0.893,1.471,0.893,2.577v4.904H130.022z
				 M130.069,36.991c-0.24-0.094-0.525-0.172-0.854-0.234c-0.329-0.063-0.677-0.095-1.042-0.095c-0.596,0-1.061,0.115-1.395,0.345
				c-0.334,0.23-0.501,0.544-0.501,0.94v0.031c0,0.397,0.154,0.7,0.462,0.909c0.308,0.209,0.687,0.312,1.136,0.312
				c0.313,0,0.604-0.041,0.87-0.125c0.266-0.083,0.499-0.201,0.697-0.353c0.198-0.151,0.353-0.334,0.462-0.548
				c0.109-0.215,0.164-0.452,0.164-0.713V36.991z"/>
		</g>
	</g>
	<path id="books_21_" fill="#FFFFFF" d="M39.816,14.406c-0.191-0.148-0.434-0.18-0.65-0.092l-10.361,4.492
		c-0.453,0.197-1.016,0.291-1.594,0.291c-0.809,0.004-1.643-0.186-2.227-0.441c-0.205-0.09-0.383-0.188-0.506-0.277
		c0.047-0.023,0.096-0.045,0.158-0.07l9.428-4.08l1.404,0.602v-1.76c0-0.262-0.111-0.51-0.299-0.652
		c-0.191-0.15-0.434-0.186-0.648-0.088L24.15,16.814c-0.32,0.131-0.594,0.289-0.83,0.52c-0.227,0.225-0.424,0.592-0.422,1
		c0,0.014,0.004,0.029,0.004,0.029V32.02c0,0.006-0.002,0.012-0.002,0.023c0,0.002,0.002,0.004,0.002,0.008v0.021h0.004
		c0.021,0.561,0.297,0.916,0.566,1.152c0.838,0.736,2.242,1.148,3.736,1.184c0.709,0,1.428-0.111,2.092-0.395l10.365-4.492
		c0.271-0.111,0.451-0.41,0.451-0.736V15.066C40.117,14.801,40.006,14.557,39.816,14.406z M33.244,9.256
		c-0.023-0.236-0.117-0.459-0.293-0.596c-0.191-0.148-0.434-0.184-0.646-0.09l-10.365,4.488c-0.453,0.195-1.014,0.295-1.596,0.295
		c-0.803,0-1.641-0.189-2.227-0.445c-0.203-0.088-0.379-0.188-0.504-0.279c0.047-0.021,0.1-0.041,0.158-0.064l9.426-4.084
		l1.404,0.602V7.324c0-0.26-0.111-0.508-0.301-0.652c-0.191-0.152-0.439-0.186-0.652-0.09L17.283,11.07
		c-0.318,0.127-0.592,0.287-0.826,0.516c-0.23,0.223-0.426,0.594-0.42,1.002c0,0.016,0.004,0.027,0.004,0.027v15.803
		c0,0.004,0,0.014,0,0.025c0,0.002,0,0.004,0,0.018v0.023l0,0c0.025,0.559,0.301,0.916,0.568,1.15
		c0.836,0.738,2.242,1.141,3.738,1.176c0.404,0,0.807-0.055,1.207-0.129V18.367c-0.012-0.75,0.291-1.473,0.818-1.99
		c0.342-0.338,0.76-0.602,1.275-0.811l9.596-4.16V9.256L33.244,9.256z"/>
</g>
</svg>
