<?xml version="1.0" encoding="utf-8"?>
<!-- Generator: Adobe Illustrator 16.0.1, SVG Export Plug-In . SVG Version: 6.00 Build 0)  -->
<!DOCTYPE svg PUBLIC "-//W3C//DTD SVG 1.1//EN" "http://www.w3.org/Graphics/SVG/1.1/DTD/svg11.dtd">
<svg version="1.1" id="Layer_1" xmlns="http://www.w3.org/2000/svg" xmlns:xlink="http://www.w3.org/1999/xlink" x="0px" y="0px"
	 width="160px" height="52.324px" viewBox="101.51 23.687 160 52.324" enable-background="new 101.51 23.687 160 52.324"
	 xml:space="preserve">
<g>
	<path fill="#4E6FC4" d="M149.5,39.01v-0.26c0-2.27-1.008-4.373-2.805-5.795c-1.174-0.922-2.623-1.455-4.105-1.523
		c-0.057-0.051-0.107-0.104-0.166-0.154c-0.391-1.613-1.303-3.061-2.6-4.076c-1.176-0.918-2.623-1.453-4.104-1.516
		c-0.18-0.174-0.369-0.338-0.568-0.488c-1.254-0.976-2.812-1.511-4.398-1.511c-0.992,0-1.957,0.203-2.844,0.592l-10.307,4.462
		c-1.094,0.451-2.057,1.082-2.85,1.855c-1.539,1.502-2.412,3.594-2.393,5.678c0,0.025,0,0.607,0,3.736H101.51v36h160v-37H149.5z"/>
	<g>
		<path fill="#F1F2F2" d="M162.77,52.173h4.912c1.262,0,2.215,0.324,2.861,0.973c0.49,0.49,0.734,1.098,0.734,1.816v0.031
			c0,0.336-0.043,0.631-0.131,0.887s-0.203,0.479-0.342,0.672c-0.141,0.195-0.307,0.363-0.498,0.51s-0.387,0.271-0.584,0.377
			c0.322,0.115,0.615,0.248,0.881,0.398c0.264,0.152,0.492,0.332,0.686,0.541c0.191,0.209,0.34,0.455,0.443,0.736
			c0.105,0.281,0.156,0.609,0.156,0.986v0.031c0,0.49-0.096,0.924-0.289,1.301c-0.193,0.375-0.467,0.689-0.82,0.939
			c-0.354,0.252-0.783,0.441-1.283,0.57c-0.5,0.133-1.053,0.197-1.658,0.197h-5.066V52.173H162.77z M167.305,56.796
			c0.625,0,1.125-0.123,1.498-0.369c0.375-0.244,0.562-0.619,0.562-1.119v-0.031c0-0.438-0.164-0.781-0.492-1.025
			c-0.328-0.246-0.805-0.369-1.43-0.369h-2.764v2.914H167.305L167.305,56.796z M167.867,61.432c0.656,0,1.172-0.125,1.547-0.375
			c0.375-0.252,0.562-0.627,0.562-1.129v-0.031c0-0.469-0.186-0.832-0.555-1.088s-0.936-0.385-1.695-0.385h-3.045v3.008H167.867z"/>
		<path fill="#F1F2F2" d="M173.895,51.798h2.051v1.801h-2.051V51.798z M173.973,54.87h1.912v8.271h-1.912V54.87z"/>
		<path fill="#F1F2F2" d="M183.053,63.313c-0.678,0-1.24-0.146-1.688-0.438c-0.449-0.293-0.818-0.633-1.109-1.02v1.285h-1.912
			V51.704h1.912l-0.018,4.545c0.303-0.439,0.68-0.809,1.129-1.105s1.008-0.445,1.676-0.445c0.49,0,0.967,0.094,1.426,0.281
			c0.461,0.188,0.871,0.465,1.23,0.83s0.65,0.814,0.869,1.348s0.33,1.145,0.33,1.834v0.029c0,0.689-0.107,1.303-0.32,1.834
			c-0.215,0.533-0.5,0.982-0.859,1.348s-0.771,0.643-1.236,0.832C184.02,63.219,183.541,63.313,183.053,63.313z M182.621,61.669
			c0.324,0,0.629-0.062,0.916-0.189c0.287-0.125,0.539-0.299,0.752-0.523c0.215-0.225,0.385-0.502,0.51-0.83
			s0.188-0.697,0.188-1.105v-0.029c0-0.396-0.061-0.762-0.188-1.09c-0.125-0.328-0.295-0.607-0.51-0.838
			c-0.213-0.229-0.465-0.406-0.752-0.533c-0.287-0.125-0.592-0.188-0.916-0.188s-0.633,0.061-0.924,0.188
			c-0.293,0.127-0.549,0.307-0.768,0.541s-0.395,0.516-0.525,0.838c-0.131,0.324-0.197,0.686-0.197,1.082v0.029
			c0,0.398,0.066,0.762,0.197,1.09s0.307,0.609,0.525,0.84c0.219,0.229,0.475,0.406,0.768,0.531
			C181.989,61.606,182.297,61.669,182.621,61.669z"/>
		<path fill="#F1F2F2" d="M188.949,51.704h1.912v11.438h-1.912V51.704z"/>
		<path fill="#F1F2F2" d="M193.354,51.798h2.051v1.801h-2.051V51.798z M193.432,54.87h1.912v8.271h-1.912V54.87z"/>
		<path fill="#F1F2F2" d="M201.737,63.331c-0.627,0-1.209-0.113-1.748-0.338c-0.537-0.225-1.002-0.529-1.395-0.916
			c-0.393-0.389-0.697-0.842-0.916-1.363c-0.221-0.523-0.33-1.076-0.33-1.662V59.02c0-0.594,0.113-1.152,0.338-1.676
			c0.225-0.521,0.533-0.979,0.924-1.371c0.391-0.391,0.855-0.701,1.395-0.932c0.537-0.23,1.125-0.346,1.764-0.346
			c0.637,0,1.225,0.111,1.762,0.338c0.539,0.225,1.004,0.531,1.396,0.924c0.391,0.393,0.695,0.846,0.916,1.363
			c0.219,0.518,0.33,1.072,0.33,1.668v0.031c0,0.586-0.113,1.139-0.338,1.66c-0.225,0.523-0.533,0.98-0.924,1.371
			c-0.393,0.393-0.859,0.703-1.402,0.934C202.963,63.214,202.371,63.331,201.737,63.331z M201.768,61.684
			c0.383,0,0.729-0.07,1.035-0.213c0.307-0.141,0.568-0.33,0.787-0.57c0.217-0.24,0.383-0.52,0.498-0.84
			c0.113-0.316,0.17-0.654,0.17-1.01V59.02c0-0.365-0.062-0.711-0.188-1.035c-0.125-0.322-0.297-0.604-0.52-0.846
			c-0.225-0.24-0.488-0.43-0.795-0.57c-0.307-0.143-0.646-0.213-1.02-0.213c-0.375,0-0.715,0.07-1.02,0.213
			c-0.307,0.141-0.568,0.328-0.787,0.562c-0.217,0.236-0.383,0.516-0.498,0.838c-0.115,0.324-0.172,0.664-0.172,1.02v0.031
			c0,0.365,0.062,0.707,0.188,1.025c0.125,0.32,0.297,0.602,0.521,0.848c0.223,0.244,0.486,0.438,0.793,0.578
			C201.069,61.614,201.405,61.684,201.768,61.684z"/>
		<path fill="#F1F2F2" d="M210.887,63.282c-0.346,0-0.666-0.041-0.959-0.125c-0.295-0.082-0.551-0.221-0.768-0.406
			c-0.215-0.189-0.381-0.438-0.498-0.744c-0.115-0.309-0.174-0.693-0.174-1.152v-4.355h-1.049V54.87h1.049v-2.271h1.912v2.271h2.227
			v1.629h-2.227v4.059c0,0.365,0.088,0.629,0.266,0.791c0.18,0.162,0.43,0.244,0.754,0.244c0.406,0,0.799-0.096,1.174-0.283v1.551
			c-0.24,0.137-0.496,0.24-0.768,0.314C211.555,63.247,211.24,63.282,210.887,63.282z"/>
		<path fill="#F1F2F2" d="M218.313,63.331c-0.596,0-1.152-0.105-1.668-0.314c-0.518-0.209-0.967-0.502-1.348-0.877
			c-0.383-0.377-0.684-0.828-0.902-1.355s-0.328-1.109-0.328-1.746v-0.031c0-0.596,0.098-1.154,0.297-1.676
			c0.199-0.523,0.479-0.98,0.838-1.371c0.361-0.393,0.787-0.701,1.277-0.926c0.492-0.225,1.035-0.336,1.629-0.336
			c0.658,0,1.236,0.119,1.732,0.359s0.908,0.564,1.236,0.971c0.33,0.408,0.578,0.881,0.744,1.42c0.168,0.537,0.25,1.104,0.25,1.699
			c0,0.082-0.002,0.17-0.008,0.258c-0.004,0.09-0.012,0.182-0.023,0.273h-6.078c0.104,0.68,0.373,1.199,0.807,1.561
			s0.959,0.539,1.576,0.539c0.469,0,0.877-0.082,1.221-0.25c0.346-0.168,0.684-0.412,1.02-0.736l1.111,0.986
			c-0.396,0.471-0.869,0.848-1.418,1.129C219.731,63.188,219.074,63.331,218.313,63.331z M220.194,58.425
			c-0.033-0.303-0.1-0.588-0.205-0.854c-0.104-0.266-0.244-0.496-0.422-0.689c-0.178-0.191-0.389-0.346-0.635-0.461
			s-0.525-0.172-0.838-0.172c-0.584,0-1.068,0.201-1.449,0.602c-0.381,0.402-0.613,0.928-0.697,1.576h4.246V58.425z"/>
		<path fill="#F1F2F2" d="M227.823,63.331c-0.615,0-1.186-0.113-1.707-0.338c-0.523-0.225-0.977-0.529-1.359-0.916
			c-0.387-0.389-0.686-0.842-0.902-1.363c-0.215-0.523-0.324-1.076-0.324-1.662V59.02c0-0.584,0.109-1.141,0.324-1.668
			c0.217-0.525,0.516-0.986,0.902-1.379c0.383-0.391,0.84-0.701,1.367-0.932s1.1-0.346,1.717-0.346c0.783,0,1.434,0.131,1.949,0.393
			c0.518,0.262,0.971,0.605,1.355,1.033l-1.176,1.27c-0.291-0.303-0.604-0.551-0.932-0.744c-0.33-0.193-0.734-0.291-1.215-0.291
			c-0.344,0-0.662,0.07-0.955,0.213c-0.293,0.141-0.543,0.328-0.752,0.562c-0.209,0.236-0.375,0.516-0.494,0.838
			c-0.119,0.324-0.18,0.664-0.18,1.02v0.031c0,0.365,0.061,0.711,0.18,1.033c0.119,0.324,0.289,0.607,0.51,0.848
			c0.219,0.24,0.479,0.432,0.781,0.57c0.305,0.143,0.639,0.213,1.004,0.213c0.449,0,0.844-0.098,1.184-0.291
			c0.34-0.191,0.66-0.439,0.963-0.744l1.145,1.129c-0.406,0.461-0.871,0.832-1.395,1.119S228.627,63.331,227.823,63.331z"/>
		<path fill="#F1F2F2" d="M237.99,63.141v-1.02c-0.281,0.336-0.641,0.617-1.08,0.848c-0.438,0.229-0.971,0.344-1.598,0.344
			c-0.398,0-0.773-0.055-1.129-0.164s-0.666-0.271-0.932-0.484c-0.268-0.215-0.48-0.48-0.643-0.801
			c-0.162-0.318-0.244-0.688-0.244-1.104v-0.031c0-0.459,0.084-0.857,0.25-1.197c0.168-0.342,0.4-0.621,0.697-0.848
			c0.299-0.225,0.654-0.393,1.066-0.502c0.41-0.107,0.857-0.164,1.338-0.164c0.502,0,0.928,0.031,1.277,0.096
			c0.35,0.061,0.688,0.145,1.01,0.25v-0.156c0-0.574-0.176-1.014-0.525-1.316s-0.854-0.455-1.512-0.455
			c-0.471,0-0.889,0.047-1.252,0.143c-0.367,0.094-0.736,0.219-1.113,0.377l-0.518-1.521c0.459-0.209,0.93-0.377,1.41-0.502
			s1.061-0.188,1.738-0.188c1.232,0,2.146,0.307,2.742,0.918c0.596,0.609,0.893,1.471,0.893,2.576v4.904h-1.877V63.141z
			 M238.037,59.678c-0.238-0.094-0.523-0.172-0.854-0.234c-0.328-0.062-0.676-0.096-1.041-0.096c-0.596,0-1.062,0.115-1.396,0.346
			s-0.5,0.545-0.5,0.939v0.031c0,0.396,0.154,0.701,0.461,0.91c0.309,0.209,0.688,0.311,1.137,0.311
			c0.312,0,0.604-0.041,0.871-0.125c0.266-0.082,0.498-0.201,0.695-0.352c0.199-0.152,0.354-0.334,0.463-0.549
			s0.164-0.451,0.164-0.713V59.678L238.037,59.678z"/>
	</g>
	<path id="books_21_" fill="#FFFFFF" d="M142.672,38.093c-0.191-0.148-0.434-0.18-0.65-0.092l-10.361,4.492
		c-0.453,0.197-1.016,0.291-1.594,0.291c-0.809,0.004-1.643-0.186-2.227-0.441c-0.205-0.09-0.383-0.188-0.506-0.277
		c0.047-0.021,0.096-0.045,0.158-0.068l9.428-4.08l1.404,0.602v-1.76c0-0.262-0.111-0.51-0.299-0.652
		c-0.191-0.15-0.436-0.186-0.648-0.088l-10.371,4.482c-0.32,0.131-0.594,0.289-0.83,0.52c-0.227,0.227-0.424,0.594-0.422,1
		c0,0.016,0.004,0.029,0.004,0.029v13.658c0,0.006-0.002,0.012-0.002,0.021c0,0.002,0.002,0.004,0.002,0.01v0.02h0.004
		c0.021,0.561,0.297,0.916,0.566,1.152c0.838,0.736,2.242,1.148,3.736,1.184c0.709,0,1.428-0.111,2.092-0.395l10.365-4.492
		c0.27-0.111,0.451-0.41,0.451-0.736V38.753C142.973,38.489,142.862,38.245,142.672,38.093z M136.1,32.942
		c-0.023-0.234-0.117-0.459-0.293-0.596c-0.191-0.146-0.434-0.184-0.646-0.09l-10.365,4.488c-0.453,0.195-1.014,0.295-1.596,0.295
		c-0.803,0-1.641-0.189-2.227-0.445c-0.203-0.088-0.379-0.188-0.504-0.279c0.047-0.02,0.1-0.041,0.158-0.062l9.426-4.084
		l1.404,0.602v-1.76c0-0.26-0.111-0.508-0.301-0.652c-0.191-0.15-0.439-0.186-0.652-0.09l-10.365,4.488
		c-0.318,0.127-0.592,0.287-0.826,0.516c-0.23,0.225-0.426,0.596-0.42,1.002c0,0.018,0.004,0.027,0.004,0.027v15.803
		c0,0.004,0,0.016,0,0.025c0,0.002,0,0.004,0,0.018v0.023l0,0c0.025,0.559,0.301,0.916,0.568,1.15
		c0.836,0.738,2.242,1.141,3.738,1.176c0.404,0,0.807-0.055,1.207-0.129V42.053c-0.012-0.75,0.291-1.473,0.818-1.99
		c0.342-0.338,0.76-0.602,1.273-0.811l9.598-4.16V32.942L136.1,32.942z"/>
</g>
</svg>
