<?xml version="1.0" encoding="utf-8"?>
<!-- Generator: Adobe Illustrator 16.0.1, SVG Export Plug-In . SVG Version: 6.00 Build 0)  -->
<!DOCTYPE svg PUBLIC "-//W3C//DTD SVG 1.0//EN" "http://www.w3.org/TR/2001/REC-SVG-20010904/DTD/svg10.dtd">
<svg version="1.0" id="Layer_1" xmlns="http://www.w3.org/2000/svg" xmlns:xlink="http://www.w3.org/1999/xlink" x="0px" y="0px"
	 width="146.018px" height="50.633px" viewBox="0 0 146.018 50.633" enable-background="new 0 0 146.018 50.633"
	 xml:space="preserve">
<g>
	<path fill="#F5634A" d="M41.148,17.99V9.586c-0.021-2.273-1.043-4.383-2.871-5.838c-1.258-0.973-2.816-1.512-4.398-1.523
		c-0.227-0.234-0.469-0.453-0.727-0.65C31.873,0.562,30.275,0,28.648,0c-0.994,0-1.965,0.203-2.867,0.596L14.256,5.58
		c-1.18,0.49-2.158,1.137-2.949,1.926c-1.562,1.529-2.449,3.656-2.436,5.789c0,0.021,0,2.039,0,4.695H0v32.643h146.018V17.99H41.148
		z"/>
	<g enable-background="new    ">
		<path fill="#F1F2F2" d="M53.335,29.098h1.912v9.229h5.766v1.739h-7.677V29.098z"/>
		<path fill="#F1F2F2" d="M62.845,28.722h2.052v1.802h-2.052V28.722z M62.923,31.793h1.912v8.272h-1.912V31.793z"/>
		<path fill="#F1F2F2" d="M72.004,40.237c-0.678,0-1.24-0.146-1.688-0.438c-0.448-0.292-0.818-0.632-1.11-1.019v1.285h-1.911V28.628
			h1.911l-0.016,4.544c0.303-0.439,0.679-0.808,1.128-1.105c0.449-0.297,1.008-0.446,1.676-0.446c0.491,0,0.966,0.094,1.426,0.282
			s0.87,0.465,1.23,0.83c0.36,0.366,0.65,0.815,0.87,1.348c0.219,0.533,0.329,1.144,0.329,1.833v0.031
			c0,0.689-0.107,1.301-0.32,1.834c-0.214,0.532-0.5,0.981-0.86,1.347c-0.359,0.366-0.771,0.643-1.235,0.831
			C72.971,40.144,72.494,40.237,72.004,40.237z M71.572,38.593c0.324,0,0.629-0.062,0.917-0.188c0.287-0.125,0.538-0.3,0.752-0.524
			c0.214-0.225,0.384-0.502,0.509-0.83c0.125-0.329,0.188-0.697,0.188-1.105v-0.031c0-0.396-0.062-0.76-0.188-1.089
			s-0.295-0.608-0.509-0.838c-0.214-0.229-0.465-0.407-0.752-0.533c-0.288-0.125-0.593-0.188-0.917-0.188
			c-0.324,0-0.632,0.062-0.924,0.188c-0.293,0.126-0.549,0.306-0.768,0.541s-0.394,0.515-0.525,0.838
			c-0.13,0.324-0.196,0.685-0.196,1.081v0.031c0,0.397,0.065,0.761,0.196,1.089c0.131,0.329,0.306,0.609,0.525,0.839
			s0.475,0.407,0.768,0.532C70.94,38.53,71.248,38.593,71.572,38.593z"/>
		<path fill="#F1F2F2" d="M77.792,31.793h1.911v1.864c0.261-0.627,0.632-1.128,1.113-1.504c0.48-0.376,1.086-0.549,1.817-0.518
			v2.006h-0.11c-0.418,0-0.799,0.068-1.144,0.203c-0.345,0.137-0.643,0.34-0.893,0.611c-0.251,0.271-0.444,0.614-0.58,1.026
			c-0.136,0.413-0.204,0.891-0.204,1.434v3.149h-1.911V31.793z"/>
		<path fill="#F1F2F2" d="M88.055,40.254c-0.595,0-1.151-0.105-1.668-0.313c-0.517-0.209-0.966-0.502-1.348-0.878
			s-0.682-0.827-0.901-1.355c-0.219-0.527-0.329-1.109-0.329-1.747v-0.031c0-0.595,0.099-1.153,0.298-1.676
			c0.198-0.522,0.478-0.979,0.838-1.371s0.786-0.7,1.277-0.925c0.491-0.225,1.034-0.337,1.629-0.337c0.658,0,1.235,0.12,1.731,0.36
			c0.496,0.24,0.909,0.564,1.238,0.972c0.329,0.407,0.577,0.88,0.744,1.418c0.167,0.538,0.25,1.104,0.25,1.7
			c0,0.083-0.002,0.17-0.008,0.258c-0.005,0.089-0.013,0.181-0.023,0.274h-6.079c0.104,0.68,0.373,1.199,0.807,1.56
			s0.958,0.54,1.575,0.54c0.47,0,0.877-0.083,1.222-0.251c0.345-0.167,0.684-0.412,1.019-0.736l1.112,0.987
			c-0.397,0.47-0.87,0.847-1.418,1.128C89.473,40.112,88.817,40.254,88.055,40.254z M89.935,35.35
			c-0.032-0.303-0.1-0.588-0.204-0.854c-0.104-0.266-0.245-0.496-0.423-0.689c-0.178-0.192-0.389-0.347-0.634-0.462
			c-0.246-0.114-0.525-0.172-0.838-0.172c-0.585,0-1.068,0.201-1.449,0.603c-0.381,0.402-0.614,0.928-0.697,1.575H89.935z"/>
		<path fill="#F1F2F2" d="M93.727,31.793h1.911v1.864c0.261-0.627,0.632-1.128,1.113-1.504c0.48-0.376,1.086-0.549,1.817-0.518
			v2.006h-0.11c-0.418,0-0.799,0.068-1.144,0.203c-0.345,0.137-0.643,0.34-0.893,0.611c-0.251,0.271-0.444,0.614-0.58,1.026
			c-0.136,0.413-0.204,0.891-0.204,1.434v3.149h-1.911V31.793z"/>
		<path fill="#F1F2F2" d="M100.307,31.793h1.912v8.272h-1.912V31.793z M102.094,28.174l1.724,0.768l-1.912,1.802h-1.473
			L102.094,28.174z"/>
		<path fill="#F1F2F2" d="M109.739,40.065v-1.019c-0.282,0.335-0.642,0.616-1.081,0.847c-0.438,0.229-0.971,0.344-1.598,0.344
			c-0.397,0-0.773-0.055-1.128-0.164c-0.355-0.109-0.666-0.271-0.932-0.485c-0.267-0.214-0.481-0.48-0.643-0.8
			c-0.162-0.318-0.243-0.687-0.243-1.104v-0.031c0-0.459,0.083-0.858,0.25-1.198c0.167-0.34,0.399-0.621,0.697-0.847
			c0.298-0.224,0.653-0.392,1.065-0.501s0.859-0.164,1.339-0.164c0.501,0,0.927,0.031,1.277,0.094
			c0.35,0.062,0.687,0.146,1.01,0.251V35.13c0-0.574-0.175-1.013-0.525-1.316c-0.35-0.303-0.854-0.454-1.512-0.454
			c-0.47,0-0.888,0.047-1.253,0.142c-0.366,0.094-0.736,0.219-1.113,0.376l-0.517-1.521c0.459-0.209,0.929-0.376,1.41-0.501
			c0.48-0.125,1.06-0.188,1.739-0.188c1.232,0,2.146,0.306,2.742,0.917c0.595,0.611,0.893,1.471,0.893,2.577v4.904H109.739z
			 M109.786,36.603c-0.24-0.094-0.525-0.172-0.854-0.234c-0.329-0.063-0.677-0.095-1.042-0.095c-0.596,0-1.061,0.115-1.395,0.345
			c-0.334,0.23-0.501,0.544-0.501,0.94v0.031c0,0.397,0.154,0.7,0.462,0.909c0.308,0.209,0.687,0.312,1.136,0.312
			c0.313,0,0.604-0.041,0.87-0.125c0.266-0.083,0.499-0.201,0.697-0.353c0.198-0.151,0.353-0.334,0.462-0.548
			c0.109-0.215,0.164-0.452,0.164-0.713V36.603z"/>
	</g>
	<path id="books_23_" fill="#FFFFFF" d="M34.281,8.91c-0.215-0.166-0.484-0.199-0.725-0.096l-11.562,5.008
		c-0.504,0.221-1.135,0.324-1.781,0.324c-0.9,0.004-1.834-0.207-2.482-0.494c-0.234-0.098-0.428-0.213-0.564-0.307
		c0.051-0.025,0.107-0.053,0.176-0.082l10.521-4.553l1.57,0.676V7.422c0-0.293-0.125-0.568-0.336-0.73
		c-0.215-0.17-0.488-0.201-0.723-0.104L16.797,11.6c-0.357,0.143-0.664,0.316-0.926,0.576c-0.254,0.25-0.473,0.66-0.469,1.119
		c0,0.012,0.002,0.029,0.002,0.029v17.635c0,0.008-0.002,0.016-0.002,0.023c0,0.01,0.002,0.012,0.002,0.018v0.021h0.002
		c0.025,0.621,0.334,1.018,0.631,1.283c0.934,0.826,2.504,1.285,4.172,1.32c0.791,0,1.596-0.125,2.338-0.436l11.566-5.018
		c0.305-0.121,0.506-0.459,0.506-0.824V9.645C34.617,9.355,34.49,9.078,34.281,8.91z"/>
	<path fill="#F5634A" d="M27.494,24.523l0.031-2.684c0.299-0.027,0.518-0.002,0.643,0.057c0.207,0.115,0.314,0.359,0.309,0.762
		c-0.004,0.514-0.129,0.934-0.359,1.271C27.992,24.113,27.783,24.312,27.494,24.523 M27.02,20.059
		c-0.27,0.043-0.461,0.033-0.586-0.025c-0.23-0.09-0.336-0.336-0.332-0.715c0.004-0.355,0.084-0.674,0.234-0.957
		c0.156-0.293,0.393-0.527,0.711-0.713L27.02,20.059 M27.609,14.916l-0.531,0.291l-0.012,0.916
		c-0.369,0.244-0.656,0.453-0.852,0.637c-0.322,0.299-0.609,0.68-0.873,1.146c-0.205,0.365-0.361,0.742-0.473,1.15
		c-0.125,0.41-0.18,0.826-0.184,1.248c-0.008,0.652,0.127,1.121,0.41,1.416c0.281,0.307,0.764,0.398,1.459,0.266l0.443-0.078
		l-0.031,2.926c-0.422,0.137-0.695,0.088-0.836-0.137c-0.082-0.152-0.156-0.49-0.197-1.043l-1.482,0.814
		c-0.023,1.268,0.27,1.994,0.895,2.174c0.35,0.1,0.879,0.008,1.602-0.293l-0.016,1.365l0.531-0.289l0.014-1.381
		c0.562-0.359,1.055-0.816,1.48-1.375c0.68-0.883,1.025-1.91,1.039-3.059c0.012-0.871-0.225-1.414-0.707-1.627
		c-0.297-0.119-0.875-0.129-1.738-0.031l0.029-2.607c0.361-0.168,0.611-0.127,0.742,0.127c0.074,0.146,0.129,0.408,0.15,0.793
		l1.439-0.787c-0.006-1.084-0.314-1.697-0.922-1.855c-0.336-0.121-0.791-0.045-1.391,0.221L27.609,14.916"/>
</g>
</svg>
