<?xml version="1.0" encoding="utf-8"?>
<!-- Generator: Adobe Illustrator 16.0.1, SVG Export Plug-In . SVG Version: 6.00 Build 0)  -->
<!DOCTYPE svg PUBLIC "-//W3C//DTD SVG 1.1//EN" "http://www.w3.org/Graphics/SVG/1.1/DTD/svg11.dtd">
<svg version="1.1" id="Layer_1" xmlns="http://www.w3.org/2000/svg" xmlns:xlink="http://www.w3.org/1999/xlink" x="0px" y="0px"
	 width="137px" height="53px" viewBox="8.509 -1.184 137 53" enable-background="new 8.509 -1.184 137 53" xml:space="preserve">
<g>
	<path fill="#F5634A" d="M52.494,14.935V8.402c-0.021-2.273-1.043-4.383-2.871-5.838c-1.258-0.973-2.815-1.512-4.397-1.523
		c-0.228-0.234-0.469-0.453-0.728-0.65c-1.278-1.013-2.877-1.575-4.504-1.575c-0.994,0-1.965,0.203-2.867,0.596L25.602,4.396
		c-1.18,0.49-2.158,1.137-2.949,1.926c-1.562,1.529-2.449,3.656-2.436,5.789c0,0.021-0.362,1.168-0.362,3.824H8.509v35.881h137
		V14.935H52.494z"/>
	<g enable-background="new    ">
		<path fill="#F1F2F2" d="M65.732,27.914h1.912v9.23h5.766v1.738h-7.677L65.732,27.914L65.732,27.914z"/>
		<path fill="#F1F2F2" d="M75.241,27.539h2.053v1.801h-2.053V27.539z M75.32,30.609h1.912v8.271H75.32V30.609z"/>
		<path fill="#F1F2F2" d="M84.402,39.053c-0.678,0-1.24-0.145-1.689-0.438c-0.447-0.291-0.816-0.631-1.109-1.02v1.285h-1.91V27.445
			h1.91l-0.016,4.543c0.303-0.439,0.68-0.809,1.127-1.105c0.449-0.297,1.01-0.445,1.678-0.445c0.49,0,0.965,0.094,1.426,0.281
			c0.459,0.189,0.869,0.467,1.229,0.83c0.361,0.367,0.65,0.816,0.871,1.35c0.219,0.531,0.328,1.143,0.328,1.832v0.031
			c0,0.689-0.105,1.301-0.32,1.834c-0.213,0.531-0.5,0.98-0.859,1.348c-0.359,0.365-0.771,0.643-1.234,0.83
			S84.892,39.053,84.402,39.053z M83.968,37.41c0.324,0,0.631-0.062,0.918-0.189c0.287-0.125,0.537-0.299,0.752-0.523
			s0.385-0.502,0.51-0.83s0.188-0.697,0.188-1.105v-0.029c0-0.396-0.062-0.762-0.188-1.09c-0.127-0.328-0.295-0.607-0.51-0.838
			c-0.215-0.229-0.465-0.406-0.752-0.533c-0.287-0.125-0.594-0.188-0.918-0.188c-0.322,0-0.631,0.062-0.924,0.188
			c-0.293,0.127-0.549,0.307-0.768,0.541s-0.395,0.516-0.525,0.838c-0.129,0.324-0.195,0.686-0.195,1.082v0.029
			c0,0.398,0.064,0.762,0.195,1.09s0.307,0.609,0.525,0.84c0.219,0.229,0.475,0.406,0.768,0.531
			C83.337,37.346,83.646,37.41,83.968,37.41z"/>
		<path fill="#F1F2F2" d="M90.189,30.609h1.912v1.863c0.26-0.627,0.631-1.127,1.111-1.504c0.48-0.375,1.086-0.549,1.818-0.518v2.006
			h-0.111c-0.418,0-0.799,0.068-1.143,0.203c-0.346,0.137-0.645,0.34-0.895,0.611s-0.443,0.613-0.58,1.025
			c-0.135,0.414-0.203,0.893-0.203,1.436v3.148h-1.91V30.609L90.189,30.609z"/>
		<path fill="#F1F2F2" d="M100.452,39.07c-0.596,0-1.152-0.105-1.668-0.312c-0.518-0.209-0.967-0.502-1.348-0.879
			c-0.383-0.375-0.684-0.826-0.902-1.354s-0.328-1.109-0.328-1.748v-0.031c0-0.594,0.1-1.152,0.297-1.676
			c0.199-0.521,0.479-0.979,0.838-1.371c0.361-0.391,0.787-0.699,1.277-0.924c0.492-0.227,1.035-0.338,1.629-0.338
			c0.658,0,1.236,0.121,1.732,0.359c0.496,0.24,0.908,0.564,1.236,0.973c0.33,0.406,0.578,0.881,0.744,1.418
			c0.168,0.539,0.25,1.104,0.25,1.699c0,0.084-0.002,0.172-0.008,0.26c-0.004,0.088-0.012,0.18-0.021,0.273h-6.08
			c0.104,0.68,0.373,1.199,0.807,1.561c0.434,0.359,0.959,0.539,1.576,0.539c0.469,0,0.877-0.082,1.221-0.25
			c0.346-0.168,0.686-0.412,1.02-0.736l1.111,0.986c-0.396,0.471-0.869,0.848-1.418,1.129
			C101.87,38.928,101.214,39.07,100.452,39.07z M102.331,34.166c-0.031-0.303-0.1-0.588-0.203-0.854s-0.246-0.496-0.424-0.689
			c-0.178-0.191-0.389-0.346-0.633-0.461c-0.246-0.115-0.525-0.172-0.838-0.172c-0.586,0-1.068,0.201-1.449,0.602
			c-0.381,0.402-0.615,0.93-0.697,1.576h4.244V34.166z"/>
		<path fill="#F1F2F2" d="M106.124,30.609h1.91v1.863c0.262-0.627,0.633-1.127,1.113-1.504c0.48-0.375,1.086-0.549,1.816-0.518
			v2.006h-0.109c-0.418,0-0.799,0.068-1.145,0.203c-0.344,0.137-0.643,0.34-0.893,0.611s-0.443,0.613-0.58,1.025
			c-0.135,0.414-0.203,0.893-0.203,1.436v3.148h-1.912v-8.271H106.124z"/>
		<path fill="#F1F2F2" d="M112.704,30.609h1.912v8.271h-1.912V30.609z M114.491,26.99l1.723,0.768l-1.912,1.803h-1.473
			L114.491,26.99z"/>
		<path fill="#F1F2F2" d="M122.136,38.881v-1.018c-0.281,0.334-0.643,0.615-1.08,0.846c-0.439,0.23-0.973,0.344-1.6,0.344
			c-0.396,0-0.771-0.055-1.127-0.164c-0.355-0.107-0.666-0.27-0.932-0.484c-0.268-0.213-0.482-0.48-0.645-0.799
			s-0.242-0.688-0.242-1.105v-0.031c0-0.459,0.082-0.857,0.25-1.197c0.166-0.34,0.398-0.621,0.697-0.848
			c0.297-0.223,0.652-0.391,1.064-0.5s0.859-0.164,1.34-0.164c0.5,0,0.926,0.031,1.277,0.094c0.35,0.062,0.686,0.146,1.01,0.252
			v-0.158c0-0.574-0.176-1.014-0.525-1.316s-0.854-0.455-1.512-0.455c-0.471,0-0.889,0.047-1.254,0.143
			c-0.365,0.094-0.736,0.219-1.113,0.377l-0.516-1.521c0.459-0.209,0.928-0.377,1.41-0.502c0.479-0.125,1.059-0.188,1.738-0.188
			c1.232,0,2.146,0.307,2.742,0.918c0.594,0.609,0.893,1.471,0.893,2.576v4.904h-1.877V38.881z M122.183,35.42
			c-0.24-0.094-0.525-0.172-0.854-0.234c-0.33-0.062-0.678-0.096-1.043-0.096c-0.596,0-1.061,0.115-1.395,0.346
			s-0.5,0.545-0.5,0.939v0.031c0,0.396,0.152,0.701,0.461,0.91s0.688,0.311,1.137,0.311c0.312,0,0.604-0.041,0.869-0.125
			c0.266-0.082,0.5-0.201,0.697-0.352c0.197-0.152,0.354-0.334,0.463-0.549c0.107-0.215,0.164-0.451,0.164-0.713V35.42
			L122.183,35.42z"/>
	</g>
	<path id="books_23_" fill="#FFFFFF" d="M45.627,7.727c-0.215-0.166-0.483-0.199-0.725-0.096l-11.562,5.008
		c-0.504,0.221-1.136,0.324-1.781,0.324c-0.9,0.004-1.834-0.207-2.482-0.494c-0.233-0.098-0.428-0.213-0.563-0.307
		c0.051-0.025,0.106-0.053,0.176-0.082L39.21,7.526l1.57,0.676V6.238c0-0.293-0.125-0.568-0.336-0.73
		c-0.215-0.17-0.488-0.201-0.723-0.104l-11.578,5.012c-0.357,0.143-0.664,0.316-0.926,0.576c-0.254,0.25-0.474,0.66-0.47,1.119
		c0,0.012,0.002,0.029,0.002,0.029v17.635c0,0.008-0.002,0.016-0.002,0.023c0,0.01,0.002,0.012,0.002,0.018v0.021h0.002
		c0.025,0.621,0.335,1.018,0.632,1.283c0.934,0.826,2.504,1.285,4.172,1.32c0.791,0,1.596-0.125,2.338-0.438l11.565-5.018
		c0.306-0.121,0.507-0.459,0.507-0.824V8.461C45.964,8.171,45.837,7.895,45.627,7.727z"/>
	<path fill="#F5634A" d="M38.841,23.34l0.03-2.685c0.3-0.027,0.519-0.002,0.644,0.057c0.207,0.115,0.313,0.359,0.309,0.762
		c-0.004,0.514-0.129,0.934-0.358,1.271C39.339,22.93,39.13,23.129,38.841,23.34 M38.366,18.875
		c-0.27,0.043-0.461,0.033-0.586-0.025c-0.229-0.09-0.336-0.336-0.332-0.715c0.004-0.355,0.084-0.674,0.234-0.957
		c0.156-0.293,0.393-0.527,0.711-0.713L38.366,18.875 M38.955,13.732l-0.53,0.291l-0.013,0.916
		c-0.369,0.244-0.655,0.453-0.852,0.637c-0.322,0.299-0.609,0.68-0.873,1.146c-0.205,0.365-0.361,0.742-0.473,1.15
		c-0.125,0.41-0.181,0.826-0.185,1.248c-0.008,0.652,0.127,1.121,0.41,1.416c0.281,0.307,0.764,0.398,1.459,0.266l0.443-0.078
		l-0.031,2.926c-0.422,0.137-0.695,0.088-0.836-0.137c-0.082-0.152-0.156-0.49-0.197-1.043l-1.481,0.814
		c-0.023,1.268,0.27,1.993,0.895,2.174c0.35,0.1,0.879,0.008,1.602-0.293l-0.016,1.365l0.531-0.289l0.014-1.382
		c0.562-0.358,1.055-0.815,1.48-1.375c0.68-0.883,1.024-1.909,1.039-3.059c0.012-0.871-0.226-1.414-0.707-1.627
		c-0.297-0.119-0.875-0.129-1.738-0.031l0.029-2.607c0.36-0.168,0.61-0.127,0.741,0.127c0.074,0.146,0.13,0.408,0.15,0.793
		l1.439-0.787c-0.007-1.084-0.314-1.697-0.923-1.855c-0.336-0.121-0.791-0.045-1.391,0.221L38.955,13.732"/>
</g>
</svg>
