<?xml version="1.0" encoding="utf-8"?>
<!-- Generator: Adobe Illustrator 16.0.1, SVG Export Plug-In . SVG Version: 6.00 Build 0)  -->
<!DOCTYPE svg PUBLIC "-//W3C//DTD SVG 1.1//EN" "http://www.w3.org/Graphics/SVG/1.1/DTD/svg11.dtd">
<svg version="1.1" id="Layer_1" xmlns="http://www.w3.org/2000/svg" xmlns:xlink="http://www.w3.org/1999/xlink" x="0px" y="0px"
	 width="166px" height="52.962px" viewBox="-2.356 -2.302 166 52.962" enable-background="new -2.356 -2.302 166 52.962"
	 xml:space="preserve">
<g>
	<path fill="#414042" d="M50.481,14.664c-0.354-1.154-1.043-1.466-2.025-2.244c-1.031-0.808-2.316-1.25-3.617-1.25
		c-0.076,0-0.152,0-0.225,0.006c-0.24-0.275-0.502-0.521-0.789-0.732c-0.037-0.031-0.084-0.053-0.127-0.086
		C43.44,8.92,42.68,7.623,41.501,6.69c-1.031-0.807-2.316-1.252-3.619-1.252c-0.074,0-0.148,0.002-0.225,0.004
		c-0.238-0.27-0.502-0.516-0.785-0.729c-0.01-0.009-0.018-0.013-0.025-0.021c-0.256-1.49-1.045-2.838-2.217-3.754
		c-1.031-0.807-2.312-1.246-3.611-1.246c-0.078,0-0.152,0-0.23,0.006c-0.236-0.268-0.496-0.514-0.777-0.725
		c-1.037-0.823-2.332-1.274-3.648-1.274c-0.811,0-1.598,0.164-2.322,0.482L13.729,2.648c-0.957,0.393-1.762,0.918-2.449,1.59
		c-1.287,1.256-2.014,3.002-2,4.74c0,0.027,0,2.301,0.002,5.684H-2.356v36h166v-37H50.481V14.664z"/>
	<g enable-background="new    ">
		<path fill="#F1F2F2" d="M65.539,26.489h2.131l3.306,8.432l3.291-8.432h2.083l-4.559,11.047h-1.692L65.539,26.489z"/>
		<path fill="#F1F2F2" d="M81.804,37.645c-0.596,0-1.152-0.105-1.668-0.312c-0.517-0.209-0.966-0.502-1.348-0.879
			c-0.382-0.375-0.682-0.826-0.901-1.354c-0.219-0.527-0.329-1.109-0.329-1.748v-0.031c0-0.594,0.099-1.152,0.298-1.676
			c0.198-0.521,0.478-0.979,0.838-1.371c0.36-0.391,0.786-0.699,1.277-0.924c0.491-0.225,1.034-0.338,1.628-0.338
			c0.658,0,1.234,0.121,1.73,0.359c0.496,0.24,0.91,0.564,1.238,0.973c0.33,0.408,0.578,0.881,0.744,1.418
			c0.168,0.539,0.25,1.104,0.25,1.701c0,0.082-0.002,0.17-0.008,0.258c-0.004,0.088-0.014,0.18-0.023,0.273h-6.078
			c0.104,0.68,0.373,1.199,0.807,1.561c0.433,0.359,0.958,0.539,1.575,0.539c0.47,0,0.876-0.082,1.222-0.25s0.684-0.412,1.02-0.736
			l1.111,0.986c-0.396,0.471-0.869,0.848-1.418,1.129C83.222,37.505,82.565,37.645,81.804,37.645z M83.683,32.741
			c-0.031-0.303-0.1-0.588-0.203-0.854c-0.105-0.266-0.246-0.496-0.424-0.689c-0.178-0.191-0.389-0.346-0.635-0.461
			c-0.244-0.115-0.523-0.172-0.837-0.172c-0.585,0-1.068,0.201-1.449,0.604c-0.381,0.4-0.614,0.928-0.697,1.574h4.245V32.741z"/>
		<path fill="#F1F2F2" d="M87.476,29.184h1.91v1.865c0.262-0.627,0.633-1.129,1.113-1.504c0.48-0.377,1.086-0.551,1.816-0.52v2.006
			h-0.109c-0.418,0-0.799,0.068-1.145,0.203c-0.344,0.137-0.643,0.34-0.893,0.611c-0.252,0.271-0.443,0.615-0.58,1.025
			c-0.137,0.414-0.203,0.893-0.203,1.436v3.148h-1.912v-8.271H87.476z"/>
		<path fill="#F1F2F2" d="M101.435,37.598c-0.346,0-0.666-0.041-0.959-0.125c-0.295-0.084-0.551-0.221-0.768-0.408
			c-0.215-0.188-0.381-0.436-0.498-0.744c-0.115-0.309-0.174-0.691-0.174-1.15v-4.355h-1.049v-1.629h1.049v-2.273h1.912v2.273h2.227
			v1.629h-2.227v4.059c0,0.365,0.088,0.629,0.268,0.791c0.178,0.162,0.428,0.242,0.752,0.242c0.406,0,0.799-0.094,1.174-0.281v1.551
			c-0.24,0.137-0.496,0.24-0.768,0.312S101.788,37.598,101.435,37.598z"/>
		<path fill="#F1F2F2" d="M109.001,37.645c-0.627,0-1.209-0.113-1.746-0.336c-0.537-0.225-1.004-0.531-1.395-0.918
			c-0.393-0.387-0.697-0.84-0.918-1.363c-0.219-0.521-0.328-1.074-0.328-1.66v-0.031c0-0.596,0.111-1.152,0.336-1.676
			c0.227-0.523,0.533-0.979,0.924-1.371c0.393-0.393,0.857-0.701,1.396-0.934c0.537-0.229,1.125-0.344,1.762-0.344
			c0.639,0,1.227,0.111,1.764,0.336s1.004,0.533,1.395,0.926c0.393,0.391,0.697,0.846,0.918,1.363
			c0.219,0.516,0.328,1.072,0.328,1.668v0.031c0,0.586-0.111,1.139-0.336,1.66c-0.227,0.521-0.533,0.979-0.924,1.371
			c-0.393,0.393-0.859,0.701-1.402,0.934C110.229,37.53,109.64,37.645,109.001,37.645z M109.032,36.001
			c0.385,0,0.73-0.07,1.035-0.213c0.307-0.141,0.57-0.33,0.787-0.57c0.219-0.24,0.385-0.52,0.498-0.838
			c0.115-0.318,0.172-0.656,0.172-1.012v-0.031c0-0.365-0.062-0.709-0.188-1.033s-0.299-0.605-0.521-0.848
			c-0.223-0.24-0.488-0.43-0.793-0.57c-0.307-0.143-0.646-0.211-1.021-0.211c-0.373,0-0.713,0.068-1.02,0.211
			c-0.305,0.141-0.568,0.328-0.785,0.562c-0.219,0.236-0.385,0.516-0.5,0.838c-0.113,0.324-0.17,0.664-0.17,1.02v0.031
			c0,0.365,0.061,0.709,0.186,1.025c0.125,0.32,0.299,0.602,0.521,0.848c0.225,0.244,0.488,0.438,0.795,0.578
			C108.335,35.93,108.669,36.001,109.032,36.001z"/>
		<path fill="#F1F2F2" d="M118.778,37.63c-0.49,0-0.965-0.094-1.426-0.281c-0.459-0.188-0.867-0.465-1.223-0.83
			c-0.354-0.365-0.643-0.814-0.861-1.348s-0.328-1.145-0.328-1.834v-0.031c0-0.689,0.105-1.299,0.32-1.832
			c0.213-0.533,0.498-0.982,0.852-1.348c0.355-0.365,0.764-0.643,1.229-0.83c0.463-0.189,0.939-0.283,1.43-0.283
			c0.676,0,1.24,0.146,1.688,0.438c0.447,0.293,0.824,0.635,1.125,1.02V26.02h1.912V37.46h-1.912l0.018-1.381
			c-0.305,0.43-0.684,0.795-1.137,1.098C120.009,37.477,119.446,37.63,118.778,37.63z M119.226,35.985
			c0.311,0,0.613-0.062,0.904-0.188s0.547-0.307,0.766-0.541s0.393-0.516,0.523-0.838c0.131-0.324,0.195-0.686,0.195-1.082v-0.031
			c0-0.396-0.064-0.76-0.195-1.088c-0.131-0.33-0.305-0.609-0.523-0.838c-0.217-0.23-0.475-0.408-0.766-0.533
			s-0.594-0.189-0.904-0.189c-0.322,0-0.627,0.062-0.914,0.182s-0.539,0.295-0.758,0.523c-0.219,0.23-0.391,0.51-0.516,0.838
			c-0.125,0.33-0.188,0.697-0.188,1.105v0.031c0,0.396,0.062,0.76,0.188,1.088c0.125,0.33,0.297,0.609,0.516,0.84
			c0.219,0.229,0.471,0.406,0.758,0.531C118.599,35.923,118.903,35.985,119.226,35.985z"/>
		<path fill="#F1F2F2" d="M129.792,37.645c-0.627,0-1.209-0.113-1.746-0.336c-0.537-0.225-1.004-0.531-1.395-0.918
			c-0.393-0.387-0.697-0.84-0.918-1.363c-0.219-0.521-0.328-1.074-0.328-1.66v-0.031c0-0.596,0.111-1.152,0.336-1.676
			c0.227-0.523,0.533-0.979,0.924-1.371c0.393-0.393,0.857-0.701,1.396-0.934c0.537-0.229,1.125-0.344,1.762-0.344
			c0.639,0,1.227,0.111,1.764,0.336s1.004,0.533,1.395,0.926c0.393,0.391,0.697,0.846,0.918,1.363
			c0.219,0.516,0.328,1.072,0.328,1.668v0.031c0,0.586-0.111,1.139-0.336,1.66c-0.227,0.521-0.533,0.979-0.924,1.371
			c-0.393,0.393-0.859,0.701-1.402,0.934C131.021,37.53,130.431,37.645,129.792,37.645z M129.825,36.001
			c0.383,0,0.729-0.07,1.035-0.213c0.307-0.141,0.568-0.33,0.787-0.57c0.217-0.24,0.383-0.52,0.498-0.838
			c0.113-0.318,0.17-0.656,0.17-1.012v-0.031c0-0.365-0.062-0.709-0.188-1.033s-0.297-0.605-0.52-0.848
			c-0.223-0.24-0.488-0.43-0.795-0.57c-0.307-0.143-0.646-0.211-1.02-0.211c-0.375,0-0.715,0.068-1.02,0.211
			c-0.307,0.141-0.568,0.328-0.787,0.562c-0.217,0.236-0.383,0.516-0.498,0.838c-0.115,0.324-0.172,0.664-0.172,1.02v0.031
			c0,0.365,0.062,0.709,0.188,1.025c0.125,0.32,0.299,0.602,0.521,0.848c0.223,0.244,0.488,0.438,0.793,0.578
			C129.126,35.93,129.46,36.001,129.825,36.001z"/>
		<path fill="#F1F2F2" d="M138.991,37.614c-0.596,0-1.199-0.105-1.811-0.316s-1.178-0.521-1.699-0.934l0.846-1.289
			c0.449,0.336,0.906,0.588,1.371,0.762c0.465,0.172,0.912,0.258,1.34,0.258c0.406,0,0.723-0.08,0.947-0.242
			c0.225-0.16,0.338-0.377,0.338-0.648v-0.029c0-0.156-0.051-0.293-0.148-0.406c-0.1-0.115-0.236-0.215-0.408-0.299
			c-0.172-0.082-0.371-0.16-0.596-0.234c-0.225-0.072-0.455-0.145-0.695-0.219c-0.305-0.082-0.609-0.182-0.918-0.297
			c-0.309-0.113-0.584-0.264-0.83-0.445s-0.447-0.408-0.604-0.68s-0.234-0.605-0.234-1v-0.031c0-0.387,0.076-0.736,0.227-1.049
			s0.361-0.578,0.627-0.797c0.268-0.219,0.58-0.387,0.939-0.5c0.359-0.115,0.744-0.172,1.152-0.172c0.521,0,1.051,0.084,1.582,0.254
			c0.533,0.168,1.02,0.398,1.457,0.695l-0.752,1.354c-0.396-0.24-0.799-0.43-1.207-0.572c-0.406-0.141-0.783-0.211-1.127-0.211
			c-0.367,0-0.65,0.078-0.854,0.234c-0.205,0.156-0.307,0.354-0.307,0.594v0.031c0,0.146,0.053,0.273,0.156,0.383
			c0.105,0.109,0.244,0.209,0.416,0.297c0.172,0.09,0.371,0.174,0.596,0.252s0.457,0.152,0.697,0.227
			c0.303,0.094,0.605,0.203,0.908,0.328s0.578,0.277,0.822,0.461c0.246,0.184,0.447,0.404,0.604,0.664
			c0.158,0.262,0.236,0.578,0.236,0.953v0.031c0,0.439-0.078,0.818-0.236,1.143c-0.156,0.324-0.373,0.592-0.648,0.805
			c-0.277,0.215-0.604,0.375-0.98,0.484C139.821,37.559,139.419,37.614,138.991,37.614z"/>
	</g>
	<path fill="#FFFFFF" d="M38.282,10.803c-0.191-0.146-0.434-0.187-0.65-0.09l-10.361,4.489c-0.449,0.195-1.016,0.293-1.594,0.293
		c-0.809,0.002-1.643-0.188-2.225-0.442c-0.209-0.088-0.383-0.191-0.506-0.275c0.045-0.024,0.096-0.047,0.156-0.07l9.428-4.081
		l1.406,0.604V9.465c0-0.261-0.109-0.511-0.301-0.652c-0.189-0.15-0.434-0.184-0.648-0.084l-10.371,4.484
		c-0.318,0.129-0.594,0.284-0.826,0.518c-0.229,0.225-0.426,0.592-0.424,1.002c0,0.01,0.004,0.027,0.004,0.027v13.655
		c0,0.008,0,0.014,0,0.023c0,0.002,0,0.006,0,0.01v0.021h0.004c0.021,0.561,0.299,0.914,0.564,1.152
		c0.838,0.734,2.242,1.146,3.738,1.182c0.709,0,1.428-0.109,2.092-0.395l10.365-4.488c0.273-0.113,0.451-0.412,0.451-0.736V11.463
		C38.584,11.197,38.469,10.952,38.282,10.803z"/>
	<path fill="#FFFFFF" d="M31.709,5.654c-0.023-0.238-0.115-0.461-0.291-0.598c-0.191-0.148-0.434-0.183-0.65-0.088L20.407,9.455
		c-0.451,0.195-1.018,0.289-1.596,0.289c-0.807,0.004-1.643-0.186-2.225-0.438c-0.209-0.088-0.383-0.189-0.506-0.281
		c0.045-0.02,0.098-0.045,0.158-0.063l9.426-4.082l1.404,0.602v-1.76c0-0.26-0.111-0.51-0.305-0.654
		c-0.188-0.149-0.436-0.182-0.65-0.088L15.75,7.467c-0.32,0.127-0.592,0.289-0.826,0.516c-0.229,0.225-0.424,0.594-0.42,1.002
		c0,0.017,0.002,0.027,0.002,0.027v15.801c0,0.008,0,0.016,0,0.025c0,0.002,0,0.006,0,0.02v0.021h0.002
		c0.021,0.561,0.301,0.916,0.566,1.152c0.838,0.736,2.242,1.139,3.738,1.176c0.404,0,0.809-0.055,1.207-0.129V14.765
		c-0.01-0.752,0.291-1.476,0.818-1.992c0.342-0.336,0.758-0.602,1.275-0.811l9.594-4.16V5.654H31.709z"/>
	<path fill="#414042" d="M32.604,37.704c-1.834-0.039-3.469-0.576-4.488-1.473c-0.578-0.516-0.896-1.143-0.955-1.869
		c-0.006-0.035-0.014-0.166-0.014-0.197c0-0.02-0.002-13.681-0.002-13.702c-0.002-0.673,0.287-1.365,0.777-1.847
		c0.318-0.311,0.703-0.562,1.207-0.766l10.348-4.478c0.219-0.098,0.465-0.149,0.717-0.149c0.404,0,0.803,0.141,1.125,0.397
		c0.463,0.347,0.75,0.945,0.75,1.576v1.058l2.053-0.89c0.23-0.1,0.469-0.147,0.717-0.147c0.404,0,0.801,0.139,1.125,0.391
		c0.473,0.375,0.752,0.963,0.752,1.582v13.718c0,0.816-0.465,1.535-1.184,1.824L35.19,37.219c-0.768,0.326-1.627,0.49-2.557,0.49
		C32.621,37.71,32.614,37.71,32.604,37.704z"/>
	<path fill="#FFFFFF" d="M45.239,16.532c-0.191-0.147-0.436-0.182-0.65-0.086l-10.361,4.488c-0.453,0.195-1.016,0.289-1.594,0.289
		c-0.811,0.006-1.645-0.187-2.227-0.441c-0.209-0.088-0.383-0.188-0.506-0.276c0.047-0.023,0.098-0.047,0.158-0.068l9.426-4.082
		l1.408,0.604v-1.762c0-0.264-0.111-0.512-0.303-0.653c-0.189-0.15-0.434-0.185-0.648-0.089l-10.369,4.486
		c-0.322,0.129-0.596,0.287-0.828,0.519c-0.229,0.225-0.424,0.592-0.422,1.002c0,0.012,0.002,0.026,0.002,0.026v13.656
		c0,0.006-0.002,0.014-0.002,0.023c0,0.002,0.002,0.006,0.002,0.014V34.2h0.004c0.021,0.559,0.299,0.914,0.564,1.152
		c0.84,0.736,2.244,1.146,3.74,1.182c0.707,0,1.426-0.109,2.09-0.393l10.365-4.492c0.273-0.113,0.451-0.41,0.451-0.736v-13.72
		C45.537,16.928,45.426,16.683,45.239,16.532z"/>
</g>
</svg>
