<?xml version="1.0" encoding="utf-8"?>
<!-- Generator: Adobe Illustrator 16.0.1, SVG Export Plug-In . SVG Version: 6.00 Build 0)  -->
<!DOCTYPE svg PUBLIC "-//W3C//DTD SVG 1.1//EN" "http://www.w3.org/Graphics/SVG/1.1/DTD/svg11.dtd">
<svg version="1.1" id="Layer_1" xmlns="http://www.w3.org/2000/svg" xmlns:xlink="http://www.w3.org/1999/xlink" x="0px" y="0px"
	 width="260px" height="52.325px" viewBox="73.867 14.686 260 52.325" enable-background="new 73.867 14.686 260 52.325"
	 xml:space="preserve">
<g>
	<path fill="#00B4CC" d="M122.815,30.01v-0.197c0.021-2.273-1.06-4.463-2.938-5.885c-1.213-0.902-2.695-1.43-4.217-1.496
		c-0.059-0.053-0.116-0.104-0.178-0.156c-0.4-1.623-1.348-3.069-2.691-4.075c-1.213-0.912-2.706-1.446-4.236-1.515
		c-0.174-0.158-0.361-0.311-0.549-0.451c-1.308-0.997-2.946-1.549-4.609-1.549c-1.015,0-2.001,0.195-2.945,0.59l-10.68,4.466
		c-1.176,0.473-2.156,1.096-2.919,1.838c-1.599,1.489-2.509,3.571-2.505,5.695c0,0.027,0,0.617,0,3.736H73.867v36h260v-37H122.815z"
		/>
	<g enable-background="new    ">
		<path fill="#F1F2F2" d="M134.638,43.171h4.91c1.262,0,2.217,0.324,2.863,0.973c0.49,0.49,0.734,1.098,0.734,1.816v0.031
			c0,0.336-0.045,0.631-0.133,0.887s-0.201,0.479-0.342,0.672c-0.139,0.195-0.305,0.363-0.498,0.51
			c-0.189,0.146-0.385,0.271-0.582,0.377c0.322,0.115,0.615,0.248,0.879,0.398c0.266,0.152,0.494,0.332,0.688,0.541
			c0.191,0.209,0.34,0.455,0.443,0.736s0.156,0.609,0.156,0.986v0.031c0,0.49-0.096,0.924-0.289,1.301
			c-0.193,0.375-0.467,0.689-0.822,0.939c-0.354,0.252-0.781,0.441-1.281,0.57c-0.5,0.133-1.055,0.197-1.658,0.197h-5.068V43.171
			L134.638,43.171z M139.174,47.794c0.625,0,1.125-0.123,1.498-0.369c0.375-0.244,0.562-0.619,0.562-1.119v-0.031
			c0-0.438-0.164-0.781-0.492-1.025c-0.328-0.246-0.805-0.369-1.43-0.369h-2.764v2.914H139.174L139.174,47.794z M139.736,52.43
			c0.656,0,1.172-0.125,1.547-0.375c0.375-0.252,0.562-0.627,0.562-1.129v-0.031c0-0.469-0.186-0.832-0.555-1.088
			s-0.936-0.385-1.695-0.385h-3.047v3.008H139.736z"/>
		<path fill="#F1F2F2" d="M145.761,42.796h2.053v1.801h-2.053V42.796z M145.84,45.868h1.912v8.271h-1.912V45.868z"/>
		<path fill="#F1F2F2" d="M154.922,54.311c-0.678,0-1.24-0.146-1.688-0.438c-0.449-0.293-0.818-0.633-1.111-1.02v1.285h-1.91V42.702
			h1.91l-0.016,4.545c0.303-0.439,0.68-0.809,1.129-1.105c0.447-0.297,1.008-0.445,1.676-0.445c0.49,0,0.965,0.094,1.426,0.281
			c0.459,0.188,0.869,0.465,1.23,0.83c0.359,0.365,0.648,0.814,0.869,1.348c0.219,0.533,0.328,1.145,0.328,1.834v0.029
			c0,0.689-0.105,1.303-0.318,1.834c-0.215,0.533-0.5,0.982-0.861,1.348c-0.359,0.365-0.77,0.643-1.234,0.832
			C155.888,54.218,155.41,54.311,154.922,54.311z M154.49,52.667c0.322,0,0.629-0.062,0.916-0.189
			c0.287-0.125,0.539-0.299,0.752-0.523c0.215-0.225,0.385-0.502,0.51-0.83s0.188-0.697,0.188-1.105v-0.029
			c0-0.396-0.062-0.762-0.188-1.09c-0.127-0.328-0.295-0.607-0.51-0.838c-0.213-0.229-0.465-0.406-0.752-0.533
			c-0.287-0.125-0.594-0.188-0.916-0.188c-0.324,0-0.633,0.061-0.926,0.188s-0.549,0.307-0.768,0.541s-0.393,0.516-0.525,0.838
			c-0.129,0.324-0.195,0.686-0.195,1.082v0.029c0,0.398,0.064,0.762,0.195,1.09c0.133,0.328,0.307,0.609,0.525,0.84
			c0.219,0.229,0.475,0.406,0.768,0.531S154.166,52.667,154.49,52.667z"/>
		<path fill="#F1F2F2" d="M160.82,42.702h1.91v11.438h-1.91V42.702z"/>
		<path fill="#F1F2F2" d="M165.22,42.796h2.053v1.801h-2.053V42.796z M165.301,45.868h1.912v8.271h-1.912V45.868z"/>
		<path fill="#F1F2F2" d="M173.603,54.329c-0.627,0-1.209-0.113-1.746-0.338s-1.004-0.529-1.395-0.916
			c-0.393-0.389-0.697-0.842-0.918-1.363c-0.219-0.523-0.328-1.076-0.328-1.662v-0.031c0-0.594,0.111-1.152,0.336-1.676
			c0.227-0.521,0.533-0.979,0.924-1.371c0.393-0.391,0.857-0.701,1.396-0.932c0.537-0.23,1.125-0.346,1.762-0.346
			c0.639,0,1.227,0.111,1.764,0.338c0.537,0.225,1.004,0.531,1.395,0.924c0.393,0.393,0.697,0.846,0.918,1.363
			c0.219,0.518,0.328,1.072,0.328,1.668v0.031c0,0.586-0.111,1.139-0.336,1.66c-0.227,0.523-0.533,0.98-0.924,1.371
			c-0.393,0.393-0.859,0.703-1.402,0.934C174.832,54.212,174.242,54.329,173.603,54.329z M173.635,52.682
			c0.385,0,0.73-0.07,1.035-0.213c0.307-0.141,0.57-0.33,0.787-0.57c0.219-0.24,0.385-0.52,0.498-0.84
			c0.115-0.316,0.172-0.654,0.172-1.01v-0.031c0-0.365-0.062-0.711-0.188-1.035c-0.125-0.322-0.299-0.604-0.521-0.846
			c-0.223-0.24-0.488-0.43-0.793-0.57c-0.307-0.143-0.646-0.213-1.021-0.213c-0.373,0-0.713,0.07-1.02,0.213
			c-0.305,0.141-0.568,0.328-0.785,0.562c-0.219,0.236-0.385,0.516-0.5,0.838c-0.113,0.324-0.17,0.664-0.17,1.02v0.031
			c0,0.365,0.062,0.707,0.188,1.025c0.125,0.32,0.297,0.602,0.52,0.848c0.225,0.244,0.488,0.438,0.795,0.578
			C172.937,52.612,173.271,52.682,173.635,52.682z"/>
		<path fill="#F1F2F2" d="M182.754,54.28c-0.344,0-0.664-0.041-0.959-0.125c-0.295-0.082-0.549-0.221-0.766-0.406
			c-0.217-0.189-0.383-0.438-0.498-0.744c-0.115-0.309-0.174-0.693-0.174-1.152v-4.355h-1.051v-1.629h1.051v-2.271h1.912v2.271
			h2.225v1.629h-2.225v4.059c0,0.365,0.088,0.629,0.266,0.791s0.428,0.244,0.752,0.244c0.408,0,0.799-0.096,1.176-0.283v1.551
			c-0.24,0.137-0.496,0.24-0.768,0.314C183.422,54.245,183.109,54.28,182.754,54.28z"/>
		<path fill="#F1F2F2" d="M190.179,54.329c-0.594,0-1.15-0.105-1.668-0.314c-0.516-0.209-0.965-0.502-1.348-0.877
			c-0.381-0.377-0.682-0.828-0.9-1.355s-0.33-1.109-0.33-1.746v-0.031c0-0.596,0.1-1.154,0.299-1.676
			c0.197-0.523,0.479-0.98,0.838-1.371c0.359-0.393,0.785-0.701,1.277-0.926c0.49-0.225,1.033-0.336,1.629-0.336
			c0.658,0,1.234,0.119,1.73,0.359s0.91,0.564,1.238,0.971c0.33,0.408,0.576,0.881,0.744,1.42c0.166,0.537,0.25,1.104,0.25,1.699
			c0,0.082-0.002,0.17-0.008,0.258c-0.006,0.09-0.014,0.182-0.023,0.273h-6.078c0.104,0.68,0.373,1.199,0.807,1.561
			s0.957,0.539,1.574,0.539c0.471,0,0.877-0.082,1.223-0.25s0.684-0.412,1.02-0.736l1.111,0.986
			c-0.396,0.471-0.869,0.848-1.418,1.129S190.943,54.329,190.179,54.329z M192.06,49.423c-0.031-0.303-0.1-0.588-0.203-0.854
			s-0.244-0.496-0.424-0.689c-0.178-0.191-0.389-0.346-0.633-0.461c-0.246-0.115-0.525-0.172-0.838-0.172
			c-0.586,0-1.068,0.201-1.449,0.602c-0.381,0.402-0.613,0.928-0.697,1.576h4.244V49.423z"/>
		<path fill="#F1F2F2" d="M199.691,54.329c-0.615,0-1.186-0.113-1.707-0.338c-0.523-0.225-0.977-0.529-1.361-0.916
			c-0.385-0.389-0.686-0.842-0.9-1.363c-0.217-0.523-0.324-1.076-0.324-1.662v-0.031c0-0.584,0.107-1.141,0.324-1.668
			c0.215-0.525,0.516-0.986,0.9-1.379c0.385-0.391,0.84-0.701,1.369-0.932c0.527-0.23,1.1-0.346,1.715-0.346
			c0.785,0,1.434,0.131,1.951,0.393s0.969,0.605,1.355,1.033l-1.176,1.27c-0.291-0.303-0.602-0.551-0.932-0.744
			c-0.328-0.191-0.734-0.289-1.213-0.289c-0.346,0-0.664,0.07-0.957,0.211c-0.291,0.143-0.543,0.328-0.752,0.564
			c-0.209,0.234-0.373,0.514-0.494,0.838c-0.119,0.324-0.18,0.664-0.18,1.02v0.029c0,0.367,0.061,0.711,0.18,1.035
			c0.121,0.324,0.291,0.605,0.51,0.846c0.219,0.242,0.479,0.432,0.783,0.572c0.303,0.143,0.637,0.211,1.002,0.211
			c0.449,0,0.844-0.096,1.184-0.289s0.66-0.441,0.963-0.744l1.145,1.127c-0.406,0.461-0.871,0.834-1.395,1.121
			C201.16,54.182,200.496,54.329,199.691,54.329z"/>
		<path fill="#F1F2F2" d="M209.859,54.139v-1.02c-0.282,0.336-0.643,0.617-1.08,0.848c-0.439,0.229-0.973,0.344-1.6,0.344
			c-0.396,0-0.771-0.055-1.127-0.164s-0.666-0.271-0.932-0.484c-0.268-0.215-0.482-0.48-0.645-0.801
			c-0.16-0.318-0.242-0.688-0.242-1.104v-0.031c0-0.459,0.084-0.857,0.25-1.197c0.168-0.342,0.398-0.621,0.697-0.848
			c0.297-0.225,0.652-0.393,1.064-0.502c0.412-0.107,0.859-0.164,1.34-0.164c0.5,0,0.926,0.031,1.277,0.096
			c0.349,0.061,0.686,0.145,1.009,0.25v-0.156c0-0.574-0.175-1.014-0.525-1.316c-0.35-0.303-0.853-0.455-1.511-0.455
			c-0.471,0-0.889,0.047-1.254,0.143c-0.365,0.094-0.736,0.219-1.113,0.377l-0.516-1.521c0.459-0.209,0.928-0.377,1.41-0.502
			c0.479-0.125,1.059-0.188,1.738-0.188c1.231,0,2.146,0.307,2.741,0.918c0.595,0.609,0.894,1.471,0.894,2.576v4.904h-1.877V54.139z
			 M209.906,50.677c-0.24-0.094-0.525-0.172-0.854-0.234s-0.677-0.096-1.042-0.096c-0.596,0-1.061,0.115-1.395,0.346
			s-0.5,0.545-0.5,0.939v0.031c0,0.396,0.152,0.701,0.461,0.91s0.688,0.311,1.137,0.311c0.312,0,0.604-0.041,0.869-0.125
			c0.266-0.082,0.499-0.201,0.697-0.352c0.197-0.152,0.353-0.334,0.462-0.549c0.108-0.215,0.164-0.451,0.164-0.713L209.906,50.677
			L209.906,50.677z"/>
		<path fill="#F1F2F2" d="M224.022,54.329c-0.805,0-1.546-0.146-2.225-0.439s-1.268-0.691-1.767-1.199
			c-0.5-0.506-0.892-1.104-1.176-1.793c-0.283-0.689-0.426-1.426-0.426-2.209v-0.031c0-0.783,0.14-1.518,0.418-2.201
			c0.279-0.686,0.67-1.285,1.175-1.803s1.102-0.924,1.791-1.223c0.69-0.297,1.452-0.445,2.288-0.445
			c0.501,0,0.958,0.041,1.371,0.125s0.791,0.201,1.137,0.354c0.345,0.152,0.662,0.332,0.955,0.539
			c0.293,0.211,0.569,0.439,0.83,0.689l-1.237,1.426c-0.438-0.406-0.903-0.736-1.396-0.986c-0.491-0.25-1.049-0.375-1.676-0.375
			c-0.522,0-1.005,0.102-1.449,0.305c-0.443,0.203-0.828,0.48-1.151,0.83c-0.324,0.352-0.574,0.762-0.752,1.23
			c-0.179,0.471-0.267,0.971-0.267,1.504v0.031c0,0.531,0.088,1.035,0.267,1.512c0.178,0.477,0.428,0.891,0.752,1.246
			c0.323,0.354,0.708,0.635,1.151,0.838c0.444,0.203,0.927,0.307,1.449,0.307c0.668,0,1.243-0.129,1.724-0.385
			s0.956-0.604,1.427-1.041l1.237,1.252c-0.281,0.303-0.578,0.572-0.885,0.807c-0.308,0.236-0.64,0.439-0.995,0.611
			c-0.354,0.174-0.744,0.303-1.167,0.393C225.002,54.284,224.535,54.329,224.022,54.329z"/>
		<path fill="#F1F2F2" d="M234.191,54.329c-0.628,0-1.209-0.113-1.747-0.338s-1.003-0.529-1.396-0.916
			c-0.392-0.389-0.697-0.842-0.917-1.363c-0.22-0.523-0.329-1.076-0.329-1.662v-0.031c0-0.594,0.112-1.152,0.337-1.676
			c0.226-0.521,0.533-0.979,0.924-1.371c0.392-0.391,0.856-0.701,1.396-0.932c0.538-0.23,1.125-0.346,1.763-0.346
			c0.639,0,1.226,0.111,1.764,0.338c0.537,0.225,1.003,0.531,1.395,0.924s0.697,0.846,0.917,1.363
			c0.219,0.518,0.329,1.072,0.329,1.668v0.031c0,0.586-0.112,1.139-0.337,1.66c-0.226,0.523-0.533,0.98-0.924,1.371
			c-0.393,0.393-0.859,0.703-1.402,0.934C235.418,54.212,234.828,54.329,234.191,54.329z M234.221,52.682
			c0.384,0,0.729-0.07,1.035-0.213c0.307-0.141,0.569-0.33,0.787-0.57s0.384-0.52,0.498-0.84c0.114-0.316,0.171-0.654,0.171-1.01
			v-0.031c0-0.365-0.062-0.711-0.187-1.035c-0.125-0.322-0.299-0.604-0.521-0.846c-0.223-0.24-0.488-0.43-0.794-0.57
			c-0.307-0.143-0.646-0.213-1.02-0.213s-0.715,0.07-1.021,0.213c-0.306,0.141-0.568,0.328-0.786,0.562
			c-0.218,0.236-0.384,0.516-0.499,0.838c-0.114,0.324-0.171,0.664-0.171,1.02v0.031c0,0.365,0.062,0.707,0.188,1.025
			c0.125,0.32,0.298,0.602,0.521,0.848c0.224,0.244,0.488,0.438,0.794,0.578C233.524,52.612,233.859,52.682,234.221,52.682z"/>
		<path fill="#F1F2F2" d="M240.552,45.868h1.911v1.266c0.135-0.189,0.281-0.369,0.438-0.537c0.155-0.168,0.335-0.322,0.539-0.459
			c0.202-0.137,0.432-0.244,0.688-0.324c0.255-0.078,0.539-0.117,0.852-0.117c0.594,0,1.097,0.135,1.508,0.402
			s0.726,0.625,0.944,1.066c0.335-0.441,0.731-0.799,1.188-1.066s0.998-0.402,1.626-0.402c0.911,0,1.624,0.273,2.137,0.822
			c0.513,0.547,0.771,1.328,0.771,2.342v5.279h-1.912v-4.688c0-0.656-0.146-1.156-0.438-1.502c-0.291-0.344-0.702-0.516-1.231-0.516
			c-0.521,0-0.943,0.174-1.271,0.523s-0.491,0.855-0.491,1.523v4.658h-1.911v-4.705c0-0.646-0.146-1.141-0.438-1.484
			c-0.291-0.346-0.702-0.518-1.232-0.518c-0.529,0-0.956,0.184-1.278,0.547c-0.323,0.365-0.484,0.871-0.484,1.518v4.643h-1.911
			v-8.271H240.552z"/>
		<path fill="#F1F2F2" d="M258.281,54.311c-0.938,0-1.662-0.287-2.172-0.861c-0.511-0.574-0.767-1.348-0.767-2.318v-5.264h1.912
			v4.688c0,0.646,0.152,1.145,0.458,1.492c0.306,0.35,0.738,0.525,1.297,0.525c0.548,0,0.994-0.182,1.335-0.541
			c0.342-0.359,0.514-0.861,0.514-1.508v-4.658h1.911v8.271h-1.911v-1.297c-0.271,0.4-0.609,0.744-1.016,1.035
			C259.435,54.167,258.916,54.311,258.281,54.311z"/>
		<path fill="#F1F2F2" d="M265.151,45.868h1.91v1.297c0.137-0.199,0.284-0.389,0.445-0.562c0.162-0.174,0.349-0.328,0.562-0.465
			c0.213-0.139,0.447-0.246,0.702-0.324c0.256-0.08,0.545-0.119,0.867-0.119c0.938,0,1.661,0.287,2.172,0.861
			s0.767,1.348,0.767,2.318v5.266h-1.912V49.45c0-0.646-0.153-1.145-0.458-1.492c-0.306-0.35-0.738-0.523-1.297-0.523
			c-0.549,0-0.994,0.18-1.336,0.539s-0.514,0.863-0.514,1.508v4.658h-1.91L265.151,45.868L265.151,45.868z"/>
		<path fill="#F1F2F2" d="M274.896,42.796h2.053v1.801h-2.053V42.796z M274.974,45.868h1.912v8.271h-1.912V45.868z"/>
		<path fill="#F1F2F2" d="M282.135,54.28c-0.345,0-0.665-0.041-0.959-0.125c-0.295-0.082-0.55-0.221-0.766-0.406
			c-0.216-0.189-0.382-0.438-0.498-0.744c-0.116-0.309-0.174-0.693-0.174-1.152v-4.355h-1.051v-1.629h1.051v-2.271h1.912v2.271
			h2.225v1.629h-2.225v4.059c0,0.365,0.088,0.629,0.266,0.791s0.428,0.244,0.752,0.244c0.408,0,0.799-0.096,1.175-0.283v1.551
			c-0.24,0.137-0.496,0.24-0.768,0.314C282.803,54.245,282.49,54.28,282.135,54.28z"/>
		<path fill="#F1F2F2" d="M290.831,54.139v-1.02c-0.282,0.336-0.643,0.617-1.081,0.848c-0.438,0.229-0.971,0.344-1.598,0.344
			c-0.397,0-0.773-0.055-1.128-0.164c-0.355-0.109-0.666-0.271-0.933-0.484c-0.267-0.215-0.48-0.48-0.643-0.801
			c-0.162-0.318-0.243-0.688-0.243-1.104v-0.031c0-0.459,0.083-0.857,0.25-1.197c0.167-0.342,0.398-0.621,0.697-0.848
			c0.298-0.225,0.652-0.393,1.064-0.502c0.412-0.107,0.859-0.164,1.339-0.164c0.501,0,0.928,0.031,1.277,0.096
			c0.35,0.061,0.687,0.145,1.01,0.25v-0.156c0-0.574-0.175-1.014-0.524-1.316c-0.351-0.303-0.854-0.455-1.513-0.455
			c-0.47,0-0.888,0.047-1.253,0.143c-0.366,0.094-0.735,0.219-1.112,0.377l-0.518-1.521c0.459-0.209,0.929-0.377,1.41-0.502
			c0.479-0.125,1.06-0.188,1.739-0.188c1.231,0,2.146,0.307,2.741,0.918c0.596,0.609,0.894,1.471,0.894,2.576v4.904h-1.877V54.139z
			 M290.878,50.677c-0.24-0.094-0.525-0.172-0.854-0.234c-0.329-0.062-0.678-0.096-1.042-0.096c-0.597,0-1.062,0.115-1.396,0.346
			s-0.501,0.545-0.501,0.939v0.031c0,0.396,0.154,0.701,0.462,0.91s0.688,0.311,1.136,0.311c0.313,0,0.604-0.041,0.87-0.125
			c0.267-0.082,0.499-0.201,0.697-0.352c0.198-0.152,0.353-0.334,0.462-0.549s0.164-0.451,0.164-0.713L290.878,50.677
			L290.878,50.677z"/>
		<path fill="#F1F2F2" d="M294.967,45.868h1.911v1.863c0.261-0.627,0.632-1.129,1.113-1.504c0.479-0.377,1.086-0.549,1.816-0.518
			v2.006h-0.109c-0.418,0-0.799,0.068-1.145,0.203c-0.345,0.137-0.643,0.34-0.893,0.611c-0.251,0.27-0.444,0.613-0.58,1.025
			s-0.204,0.891-0.204,1.434v3.148h-1.911L294.967,45.868L294.967,45.868z"/>
		<path fill="#F1F2F2" d="M301.469,42.796h2.052v1.801h-2.052V42.796z M301.547,45.868h1.912v8.271h-1.912V45.868z"/>
		<path fill="#F1F2F2" d="M310.978,54.139v-1.02c-0.281,0.336-0.642,0.617-1.08,0.848c-0.438,0.229-0.972,0.344-1.599,0.344
			c-0.396,0-0.772-0.055-1.128-0.164c-0.354-0.109-0.666-0.271-0.932-0.484c-0.268-0.215-0.481-0.48-0.644-0.801
			c-0.162-0.318-0.243-0.688-0.243-1.104v-0.031c0-0.459,0.083-0.857,0.25-1.197c0.167-0.342,0.399-0.621,0.697-0.848
			c0.298-0.225,0.653-0.393,1.065-0.502c0.412-0.107,0.858-0.164,1.339-0.164c0.501,0,0.927,0.031,1.277,0.096
			c0.35,0.061,0.687,0.145,1.01,0.25v-0.156c0-0.574-0.175-1.014-0.525-1.316c-0.35-0.303-0.854-0.455-1.512-0.455
			c-0.47,0-0.888,0.047-1.253,0.143c-0.366,0.094-0.736,0.219-1.113,0.377l-0.517-1.521c0.459-0.209,0.929-0.377,1.41-0.502
			c0.479-0.125,1.06-0.188,1.738-0.188c1.232,0,2.146,0.307,2.742,0.918c0.595,0.609,0.894,1.471,0.894,2.576v4.904h-1.878V54.139z
			 M311.026,50.677c-0.24-0.094-0.525-0.172-0.854-0.234s-0.677-0.096-1.042-0.096c-0.596,0-1.061,0.115-1.395,0.346
			s-0.501,0.545-0.501,0.939v0.031c0,0.396,0.153,0.701,0.462,0.91c0.308,0.209,0.687,0.311,1.136,0.311
			c0.312,0,0.604-0.041,0.87-0.125c0.266-0.082,0.499-0.201,0.697-0.352c0.197-0.152,0.353-0.334,0.462-0.549
			c0.108-0.215,0.164-0.451,0.164-0.713L311.026,50.677L311.026,50.677z"/>
	</g>
	<path id="books_22_" fill="#FFFFFF" d="M114.338,29.093c-0.19-0.148-0.43-0.18-0.647-0.086l-10.359,4.486
		c-0.455,0.195-1.018,0.291-1.598,0.291c-0.806,0.004-1.644-0.188-2.226-0.441c-0.209-0.09-0.379-0.188-0.506-0.277
		c0.043-0.023,0.096-0.045,0.154-0.07l9.428-4.08l1.406,0.602v-1.76c0-0.262-0.111-0.51-0.301-0.652
		c-0.191-0.146-0.435-0.186-0.648-0.088L98.67,31.501c-0.315,0.133-0.592,0.289-0.826,0.52c-0.229,0.227-0.424,0.596-0.422,1
		c0,0.016,0.004,0.029,0.004,0.029v13.656c0,0.006-0.004,0.012-0.004,0.02c0,0.006,0.004,0.008,0.004,0.012v0.021l0,0
		c0.025,0.561,0.304,0.914,0.568,1.15c0.838,0.736,2.244,1.148,3.736,1.186c0.711,0,1.432-0.111,2.094-0.395l10.363-4.492
		c0.272-0.111,0.45-0.41,0.45-0.736V29.753C114.644,29.489,114.53,29.243,114.338,29.093z M107.769,23.947
		c-0.021-0.236-0.117-0.464-0.291-0.601c-0.193-0.147-0.435-0.182-0.648-0.086l-10.366,4.489c-0.449,0.189-1.016,0.291-1.594,0.291
		c-0.805,0-1.645-0.189-2.227-0.445c-0.207-0.088-0.382-0.188-0.507-0.279c0.045-0.021,0.101-0.041,0.156-0.064l9.428-4.083
		l1.404,0.602v-1.757c0-0.262-0.111-0.51-0.305-0.654c-0.189-0.151-0.437-0.186-0.65-0.09L91.81,25.756
		c-0.318,0.131-0.597,0.286-0.826,0.516c-0.23,0.223-0.426,0.594-0.426,1.004c0,0.014,0.004,0.025,0.004,0.025v15.801
		c0,0.01,0,0.018,0,0.025c0,0.002,0,0.004,0,0.018v0.023h0.006c0.021,0.559,0.299,0.918,0.563,1.15
		c0.84,0.738,2.244,1.141,3.738,1.176c0.406,0,0.809-0.051,1.207-0.129V33.053c-0.01-0.75,0.289-1.471,0.82-1.99
		c0.34-0.338,0.758-0.604,1.274-0.811l9.597-4.16L107.769,23.947L107.769,23.947z"/>
	<path fill="#00B4CC" d="M111.281,36.468l-1.705,0.719l-0.008-1.854c-0.002-0.145-0.107-0.215-0.236-0.16l-2.047,0.863
		c-0.129,0.055-0.234,0.215-0.234,0.354l0.011,1.855l-1.703,0.719c-0.131,0.055-0.236,0.213-0.236,0.355l0.01,2.229
		c0.002,0.139,0.109,0.213,0.238,0.156l1.703-0.719l0.01,1.854c0,0.141,0.107,0.211,0.236,0.158l2.047-0.863
		c0.129-0.055,0.234-0.213,0.234-0.354l-0.011-1.855l1.703-0.719c0.131-0.055,0.236-0.215,0.236-0.357l-0.012-2.227
		C111.519,36.483,111.412,36.413,111.281,36.468z"/>
</g>
</svg>
