<?xml version="1.0" encoding="utf-8"?>
<!-- Generator: Adobe Illustrator 16.0.1, SVG Export Plug-In . SVG Version: 6.00 Build 0)  -->
<!DOCTYPE svg PUBLIC "-//W3C//DTD SVG 1.0//EN" "http://www.w3.org/TR/2001/REC-SVG-20010904/DTD/svg10.dtd">
<svg version="1.0" id="Layer_1" xmlns="http://www.w3.org/2000/svg" xmlns:xlink="http://www.w3.org/1999/xlink" x="0px" y="0px"
	 width="162.287px" height="50.322px" viewBox="0 0 162.287 50.322" enable-background="new 0 0 162.287 50.322"
	 xml:space="preserve">
<g>
	<path fill="#414042" d="M50.135,17.684c-0.354-1.154-1.043-2.184-2.025-2.963c-1.031-0.807-2.316-1.25-3.617-1.25
		c-0.076,0-0.152,0-0.225,0.006c-0.24-0.275-0.502-0.52-0.789-0.732c-0.037-0.031-0.084-0.053-0.127-0.086
		c-0.258-1.438-1.018-2.734-2.197-3.668c-1.031-0.807-2.316-1.252-3.619-1.252c-0.074,0-0.148,0.002-0.225,0.004
		c-0.238-0.27-0.502-0.516-0.785-0.729c-0.01-0.008-0.018-0.012-0.025-0.021c-0.256-1.49-1.045-2.838-2.217-3.754
		c-1.031-0.807-2.312-1.246-3.611-1.246c-0.078,0-0.152,0-0.23,0.006c-0.236-0.268-0.496-0.514-0.777-0.725
		C28.629,0.451,27.334,0,26.018,0c-0.811,0-1.598,0.164-2.322,0.482L13.383,4.949c-0.957,0.393-1.762,0.918-2.449,1.59
		c-1.287,1.256-2.014,3.002-2,4.74c0,0.027,0,3.02,0.002,6.402H0v32.641h162.287V17.682H50.135V17.684z"/>
	<g enable-background="new    ">
		<path fill="#F1F2F2" d="M60.793,28.791h2.131l3.306,8.43l3.291-8.43h2.083l-4.559,11.046h-1.692L60.793,28.791z"/>
		<path fill="#F1F2F2" d="M77.057,39.947c-0.595,0-1.151-0.105-1.668-0.313c-0.517-0.209-0.966-0.502-1.348-0.878
			s-0.682-0.827-0.901-1.355c-0.219-0.527-0.329-1.109-0.329-1.747v-0.031c0-0.595,0.099-1.153,0.298-1.676
			c0.198-0.522,0.478-0.979,0.838-1.371s0.786-0.7,1.277-0.925c0.491-0.225,1.034-0.337,1.629-0.337c0.658,0,1.235,0.12,1.731,0.36
			c0.496,0.24,0.909,0.564,1.238,0.972c0.329,0.407,0.577,0.88,0.744,1.418c0.167,0.538,0.25,1.104,0.25,1.7
			c0,0.083-0.002,0.17-0.008,0.258c-0.005,0.089-0.013,0.181-0.023,0.274h-6.079c0.104,0.68,0.373,1.199,0.807,1.56
			s0.958,0.54,1.575,0.54c0.47,0,0.877-0.083,1.222-0.251c0.345-0.167,0.684-0.412,1.019-0.736l1.112,0.987
			c-0.397,0.47-0.87,0.847-1.418,1.128C78.475,39.806,77.819,39.947,77.057,39.947z M78.937,35.043
			c-0.032-0.303-0.1-0.588-0.204-0.854c-0.104-0.266-0.245-0.496-0.423-0.689c-0.178-0.192-0.389-0.347-0.634-0.462
			c-0.246-0.114-0.525-0.172-0.838-0.172c-0.585,0-1.068,0.201-1.449,0.603c-0.381,0.402-0.614,0.928-0.697,1.575H78.937z"/>
		<path fill="#F1F2F2" d="M82.729,31.486h1.911v1.864c0.261-0.627,0.632-1.128,1.113-1.504c0.48-0.376,1.086-0.549,1.817-0.518
			v2.006h-0.11c-0.418,0-0.799,0.068-1.144,0.203c-0.345,0.137-0.643,0.34-0.893,0.611c-0.251,0.271-0.444,0.614-0.58,1.026
			c-0.136,0.413-0.204,0.891-0.204,1.434v3.149h-1.911V31.486z"/>
		<path fill="#F1F2F2" d="M96.688,39.899c-0.345,0-0.665-0.041-0.959-0.125c-0.295-0.083-0.55-0.22-0.766-0.407
			c-0.216-0.188-0.382-0.437-0.498-0.744c-0.116-0.309-0.174-0.692-0.174-1.151v-4.356h-1.05v-1.629h1.05v-2.272h1.912v2.272h2.225
			v1.629h-2.225v4.059c0,0.365,0.088,0.629,0.266,0.791s0.428,0.243,0.752,0.243c0.408,0,0.799-0.095,1.175-0.282v1.551
			c-0.24,0.136-0.496,0.24-0.768,0.313C97.356,39.863,97.043,39.899,96.688,39.899z"/>
		<path fill="#F1F2F2" d="M104.256,39.947c-0.627,0-1.209-0.113-1.747-0.337c-0.538-0.225-1.003-0.53-1.395-0.917
			s-0.697-0.841-0.917-1.363s-0.329-1.075-0.329-1.661v-0.031c0-0.595,0.112-1.153,0.337-1.676s0.533-0.979,0.924-1.371
			s0.856-0.702,1.395-0.933c0.538-0.229,1.125-0.345,1.763-0.345s1.225,0.112,1.763,0.337c0.538,0.225,1.003,0.533,1.395,0.925
			s0.697,0.846,0.917,1.363c0.219,0.517,0.329,1.073,0.329,1.668v0.031c0,0.586-0.112,1.139-0.337,1.661s-0.533,0.979-0.924,1.371
			c-0.392,0.392-0.859,0.702-1.402,0.933C105.483,39.832,104.893,39.947,104.256,39.947z M104.287,38.302
			c0.384,0,0.729-0.07,1.035-0.212c0.307-0.141,0.569-0.331,0.787-0.571s0.384-0.52,0.498-0.839
			c0.114-0.318,0.171-0.655,0.171-1.011v-0.031c0-0.365-0.062-0.71-0.187-1.034c-0.125-0.323-0.298-0.605-0.521-0.846
			s-0.488-0.431-0.794-0.571c-0.307-0.142-0.646-0.212-1.02-0.212s-0.714,0.07-1.02,0.212c-0.306,0.141-0.568,0.328-0.786,0.563
			c-0.218,0.235-0.384,0.515-0.499,0.838c-0.114,0.324-0.171,0.664-0.171,1.019v0.031c0,0.366,0.062,0.708,0.187,1.026
			c0.125,0.319,0.298,0.601,0.521,0.847c0.224,0.245,0.488,0.438,0.794,0.579C103.589,38.231,103.924,38.302,104.287,38.302z"/>
		<path fill="#F1F2F2" d="M114.033,39.931c-0.491,0-0.966-0.094-1.426-0.281c-0.46-0.188-0.867-0.465-1.222-0.831
			c-0.355-0.365-0.643-0.814-0.862-1.347c-0.219-0.533-0.329-1.145-0.329-1.834v-0.031c0-0.689,0.107-1.3,0.321-1.833
			c0.213-0.532,0.497-0.981,0.852-1.348c0.354-0.365,0.764-0.642,1.227-0.83c0.464-0.188,0.94-0.282,1.43-0.282
			c0.677,0,1.24,0.146,1.688,0.438c0.448,0.293,0.824,0.633,1.126,1.019v-4.449h1.911v11.438h-1.911l0.016-1.379
			c-0.303,0.429-0.682,0.794-1.136,1.097C115.263,39.779,114.701,39.931,114.033,39.931z M114.479,38.286
			c0.312,0,0.614-0.062,0.906-0.188c0.291-0.125,0.546-0.306,0.765-0.54c0.219-0.235,0.393-0.515,0.523-0.839
			c0.13-0.323,0.195-0.684,0.195-1.081v-0.031c0-0.396-0.065-0.76-0.195-1.089s-0.305-0.608-0.523-0.838
			c-0.218-0.229-0.474-0.407-0.765-0.533c-0.292-0.125-0.594-0.188-0.906-0.188c-0.322,0-0.627,0.061-0.914,0.18
			c-0.286,0.12-0.539,0.296-0.757,0.525s-0.391,0.509-0.515,0.838c-0.125,0.329-0.188,0.697-0.188,1.104v0.031
			c0,0.397,0.062,0.761,0.188,1.089c0.125,0.329,0.296,0.609,0.515,0.839s0.471,0.407,0.757,0.532
			C113.852,38.224,114.157,38.286,114.479,38.286z"/>
		<path fill="#F1F2F2" d="M125.047,39.947c-0.627,0-1.209-0.113-1.747-0.337c-0.538-0.225-1.003-0.53-1.395-0.917
			s-0.697-0.841-0.917-1.363s-0.329-1.075-0.329-1.661v-0.031c0-0.595,0.112-1.153,0.337-1.676s0.533-0.979,0.924-1.371
			s0.856-0.702,1.395-0.933c0.538-0.229,1.125-0.345,1.763-0.345s1.225,0.112,1.763,0.337c0.538,0.225,1.003,0.533,1.395,0.925
			s0.697,0.846,0.917,1.363c0.219,0.517,0.329,1.073,0.329,1.668v0.031c0,0.586-0.112,1.139-0.337,1.661s-0.533,0.979-0.924,1.371
			c-0.392,0.392-0.859,0.702-1.402,0.933C126.274,39.832,125.684,39.947,125.047,39.947z M125.079,38.302
			c0.384,0,0.729-0.07,1.035-0.212c0.307-0.141,0.569-0.331,0.787-0.571s0.384-0.52,0.498-0.839
			c0.114-0.318,0.171-0.655,0.171-1.011v-0.031c0-0.365-0.062-0.71-0.187-1.034c-0.125-0.323-0.298-0.605-0.521-0.846
			s-0.488-0.431-0.794-0.571c-0.307-0.142-0.646-0.212-1.02-0.212s-0.714,0.07-1.02,0.212c-0.306,0.141-0.568,0.328-0.786,0.563
			c-0.218,0.235-0.384,0.515-0.499,0.838c-0.114,0.324-0.171,0.664-0.171,1.019v0.031c0,0.366,0.062,0.708,0.187,1.026
			c0.125,0.319,0.298,0.601,0.521,0.847c0.224,0.245,0.488,0.438,0.794,0.579C124.38,38.231,124.715,38.302,125.079,38.302z"/>
		<path fill="#F1F2F2" d="M134.245,39.915c-0.596,0-1.199-0.105-1.81-0.316c-0.611-0.211-1.178-0.522-1.7-0.934l0.846-1.288
			c0.449,0.335,0.906,0.588,1.371,0.76c0.465,0.173,0.912,0.259,1.34,0.259c0.407,0,0.723-0.081,0.948-0.242
			s0.337-0.378,0.337-0.648v-0.031c0-0.156-0.05-0.292-0.149-0.406c-0.099-0.115-0.235-0.214-0.407-0.298
			c-0.172-0.083-0.371-0.161-0.595-0.234c-0.225-0.073-0.457-0.146-0.697-0.219c-0.303-0.083-0.609-0.183-0.917-0.297
			c-0.309-0.114-0.585-0.264-0.831-0.445c-0.246-0.183-0.447-0.409-0.603-0.681c-0.157-0.271-0.235-0.604-0.235-1v-0.031
			c0-0.386,0.076-0.735,0.227-1.048s0.361-0.578,0.627-0.797c0.267-0.219,0.58-0.386,0.94-0.5c0.36-0.115,0.744-0.173,1.152-0.173
			c0.522,0,1.05,0.085,1.583,0.254s1.018,0.4,1.457,0.696l-0.752,1.354c-0.397-0.24-0.799-0.431-1.207-0.572
			c-0.407-0.141-0.784-0.211-1.128-0.211c-0.366,0-0.65,0.078-0.854,0.234s-0.306,0.354-0.306,0.594v0.031
			c0,0.146,0.052,0.273,0.157,0.383c0.104,0.109,0.243,0.209,0.415,0.297c0.172,0.089,0.371,0.173,0.596,0.251
			c0.224,0.078,0.457,0.153,0.697,0.227c0.303,0.094,0.606,0.203,0.909,0.328c0.303,0.125,0.577,0.278,0.822,0.461
			s0.447,0.404,0.604,0.665c0.157,0.26,0.235,0.578,0.235,0.953v0.031c0,0.438-0.078,0.818-0.235,1.142s-0.374,0.592-0.65,0.805
			c-0.277,0.214-0.603,0.375-0.979,0.484C135.075,39.86,134.673,39.915,134.245,39.915z"/>
	</g>
	<path fill="#FFFFFF" d="M37.936,13.104c-0.191-0.146-0.434-0.186-0.65-0.09l-10.361,4.49c-0.449,0.195-1.016,0.293-1.594,0.293
		c-0.809,0.002-1.643-0.188-2.225-0.443c-0.209-0.088-0.383-0.191-0.506-0.275c0.045-0.025,0.096-0.047,0.156-0.07l9.428-4.082
		l1.406,0.605v-1.766c0-0.26-0.109-0.51-0.301-0.652c-0.189-0.15-0.434-0.184-0.648-0.084L22.27,15.514
		c-0.318,0.129-0.594,0.285-0.826,0.518c-0.229,0.225-0.426,0.592-0.424,1.002c0,0.01,0.004,0.027,0.004,0.027v13.656
		c0,0.006,0,0.012,0,0.023c0,0.002,0,0.006,0,0.01v0.02h0.004c0.021,0.561,0.299,0.914,0.564,1.154
		c0.838,0.734,2.242,1.146,3.738,1.18c0.709,0,1.428-0.109,2.092-0.393l10.365-4.49c0.273-0.113,0.451-0.412,0.451-0.736V13.764
		C38.238,13.498,38.123,13.254,37.936,13.104z"/>
	<path fill="#FFFFFF" d="M31.363,7.955c-0.023-0.238-0.115-0.461-0.291-0.598c-0.191-0.148-0.434-0.182-0.65-0.088l-10.361,4.488
		c-0.451,0.195-1.018,0.289-1.596,0.289c-0.807,0.004-1.643-0.186-2.225-0.439c-0.209-0.088-0.383-0.189-0.506-0.281
		c0.045-0.02,0.098-0.045,0.158-0.064l9.426-4.082l1.404,0.602v-1.76c0-0.26-0.111-0.51-0.305-0.654
		c-0.188-0.15-0.436-0.182-0.65-0.088L15.404,9.768c-0.32,0.127-0.592,0.289-0.826,0.516c-0.229,0.225-0.424,0.594-0.42,1.002
		c0,0.016,0.002,0.027,0.002,0.027v15.801c0,0.008,0,0.016,0,0.025c0,0.002,0,0.006,0,0.021v0.021h0.002
		c0.021,0.561,0.301,0.916,0.566,1.152c0.838,0.736,2.242,1.139,3.738,1.176c0.404,0,0.809-0.055,1.207-0.129V17.066
		c-0.01-0.752,0.291-1.475,0.818-1.992c0.342-0.336,0.758-0.602,1.275-0.811l9.594-4.16V7.955H31.363z"/>
	<path fill="#414042" d="M32.258,40.006c-1.834-0.039-3.469-0.578-4.488-1.473c-0.578-0.516-0.896-1.143-0.955-1.869
		c-0.006-0.035-0.014-0.166-0.014-0.197c0-0.02-0.002-13.682-0.002-13.703c-0.002-0.672,0.287-1.365,0.777-1.846
		c0.318-0.311,0.703-0.562,1.207-0.766l10.348-4.477c0.219-0.098,0.465-0.15,0.717-0.15c0.404,0,0.803,0.141,1.125,0.398
		c0.463,0.346,0.75,0.945,0.75,1.576v1.057l2.053-0.889c0.23-0.1,0.469-0.148,0.717-0.148c0.404,0,0.801,0.139,1.125,0.391
		c0.473,0.375,0.752,0.963,0.752,1.582v13.719c0,0.816-0.465,1.535-1.184,1.824L34.844,39.52c-0.768,0.326-1.627,0.49-2.557,0.49
		C32.275,40.01,32.268,40.01,32.258,40.006z"/>
	<path fill="#FFFFFF" d="M44.893,18.834c-0.191-0.148-0.436-0.182-0.65-0.086l-10.361,4.488c-0.453,0.195-1.016,0.289-1.594,0.289
		c-0.811,0.006-1.645-0.186-2.227-0.441c-0.209-0.088-0.383-0.188-0.506-0.277c0.047-0.023,0.098-0.047,0.158-0.068l9.426-4.082
		l1.408,0.604V17.5c0-0.264-0.111-0.512-0.303-0.654c-0.189-0.15-0.434-0.184-0.648-0.088l-10.369,4.486
		c-0.322,0.129-0.596,0.287-0.828,0.518c-0.229,0.225-0.424,0.592-0.422,1.002c0,0.012,0.002,0.027,0.002,0.027v13.656
		c0,0.006-0.002,0.014-0.002,0.023c0,0.002,0.002,0.006,0.002,0.014v0.018h0.004c0.021,0.557,0.299,0.914,0.564,1.152
		c0.84,0.736,2.244,1.146,3.74,1.182c0.707,0,1.426-0.111,2.09-0.393l10.365-4.492c0.273-0.113,0.451-0.41,0.451-0.736V19.494
		C45.191,19.229,45.08,18.984,44.893,18.834z"/>
</g>
</svg>
