<?xml version="1.0" encoding="utf-8"?>
<!-- Generator: Adobe Illustrator 16.0.1, SVG Export Plug-In . SVG Version: 6.00 Build 0)  -->
<!DOCTYPE svg PUBLIC "-//W3C//DTD SVG 1.1//EN" "http://www.w3.org/Graphics/SVG/1.1/DTD/svg11.dtd">
<svg version="1.1" id="Layer_1" xmlns="http://www.w3.org/2000/svg" xmlns:xlink="http://www.w3.org/1999/xlink" x="0px" y="0px"
	 width="46.445px" height="64.997px" viewBox="31.04 0 46.445 64.997" enable-background="new 31.04 0 46.445 64.997"
	 xml:space="preserve">
<g>
	<ellipse opacity="0.25" fill="#6D6E71" cx="54.263" cy="62.894" rx="8.562" ry="2.104"/>
	<path fill="#00B4CC" d="M54.263,0C41.437,0,31.04,10.398,31.04,23.225c0,12.823,20.315,38.177,20.315,38.177
		c1.599,1.99,4.214,1.99,5.813,0c0,0,20.316-25.352,20.316-38.177C77.485,10.398,67.086,0,54.263,0z"/>
	<g>
		<path id="books_1_" fill="#FFFFFF" d="M64.851,21.818c-0.172-0.132-0.391-0.164-0.584-0.077l-9.348,4.048
			c-0.406,0.173-0.915,0.261-1.44,0.261c-0.729,0-1.481-0.169-2.006-0.401c-0.188-0.079-0.346-0.168-0.457-0.249
			c0.039-0.021,0.087-0.039,0.142-0.062l8.505-3.684l1.266,0.546v-1.588c0-0.236-0.099-0.457-0.271-0.588
			c-0.171-0.137-0.391-0.167-0.584-0.084l-9.354,4.05c-0.29,0.114-0.539,0.26-0.745,0.468c-0.205,0.199-0.386,0.534-0.383,0.903
			c0,0.01,0.003,0.027,0.003,0.027v12.314c0,0.005-0.003,0.015-0.003,0.02c0,0.008,0.003,0.01,0.003,0.015v0.016h0.003
			c0.021,0.504,0.271,0.826,0.509,1.037c0.759,0.666,2.025,1.038,3.374,1.069c0.641,0,1.289-0.1,1.888-0.354l9.349-4.052
			c0.245-0.1,0.41-0.37,0.41-0.664V22.415C65.123,22.177,65.021,21.955,64.851,21.818z M58.921,17.175
			c-0.016-0.215-0.101-0.415-0.262-0.537c-0.171-0.137-0.389-0.166-0.584-0.084l-9.348,4.051c-0.403,0.176-0.916,0.262-1.437,0.262
			c-0.733,0-1.484-0.17-2.01-0.4c-0.187-0.082-0.347-0.169-0.458-0.25c0.043-0.021,0.092-0.04,0.142-0.06l8.505-3.683l1.268,0.544
			V15.43c0-0.232-0.1-0.458-0.275-0.589c-0.171-0.136-0.395-0.163-0.588-0.083l-9.347,4.048c-0.289,0.118-0.536,0.259-0.742,0.467
			c-0.211,0.204-0.386,0.536-0.382,0.905c0,0.013,0.002,0.027,0.002,0.027v14.251c0,0.011-0.002,0.016-0.002,0.021
			c0,0.007,0.002,0.01,0.002,0.023v0.02h0.003c0.019,0.503,0.269,0.824,0.509,1.037c0.756,0.667,2.025,1.026,3.374,1.06
			c0.362,0,0.729-0.047,1.09-0.113V25.393c-0.011-0.676,0.262-1.326,0.737-1.794c0.308-0.304,0.687-0.545,1.15-0.732l8.653-3.752
			L58.921,17.175L58.921,17.175z"/>
	</g>
	<path fill="#00B4CC" d="M62.016,28.844l-1.572,0.593l-0.008-1.711c-0.001-0.13-0.099-0.201-0.219-0.156l-1.889,0.713
		c-0.119,0.044-0.217,0.188-0.215,0.319l0.008,1.711l-1.572,0.593c-0.12,0.046-0.217,0.189-0.217,0.32l0.01,2.056
		c0.001,0.129,0.1,0.199,0.219,0.153l1.572-0.593l0.009,1.712c0,0.131,0.098,0.2,0.218,0.156l1.889-0.714
		c0.119-0.045,0.217-0.188,0.216-0.318l-0.008-1.712l1.571-0.593c0.12-0.045,0.217-0.188,0.217-0.319l-0.01-2.056
		C62.234,28.868,62.136,28.798,62.016,28.844z"/>
</g>
</svg>
