<?xml version="1.0" encoding="utf-8"?>
<!-- Generator: Adobe Illustrator 16.0.1, SVG Export Plug-In . SVG Version: 6.00 Build 0)  -->
<!DOCTYPE svg PUBLIC "-//W3C//DTD SVG 1.0//EN" "http://www.w3.org/TR/2001/REC-SVG-20010904/DTD/svg10.dtd">
<svg version="1.0" id="Layer_1" xmlns="http://www.w3.org/2000/svg" xmlns:xlink="http://www.w3.org/1999/xlink" x="0px" y="0px"
	 width="48px" height="64.998px" viewBox="0 0 48 64.998" enable-background="new 0 0 48 64.998" xml:space="preserve">
<path fill="#CC333F" d="M23.999,0C10.744,0,0,10.745,0,24.001c0,13.254,20.996,39.451,20.996,39.451
	c1.651,2.061,4.354,2.061,6.007,0c0,0,20.997-26.197,20.997-39.451C47.999,10.745,37.254,0,23.999,0z"/>
<path id="books_1_" fill="#FFFFFF" d="M36.27,17.965c-0.179-0.138-0.404-0.17-0.604-0.082l-9.658,4.182
	c-0.422,0.184-0.948,0.271-1.488,0.271c-0.754,0.002-1.532-0.173-2.075-0.412c-0.194-0.082-0.356-0.176-0.472-0.258
	c0.043-0.021,0.091-0.043,0.146-0.064l8.787-3.805l1.312,0.562v-1.64c0-0.244-0.104-0.475-0.281-0.611
	c-0.178-0.139-0.406-0.17-0.604-0.083l-9.67,4.184c-0.298,0.121-0.554,0.268-0.771,0.482c-0.214,0.208-0.397,0.553-0.394,0.936
	c0,0.01,0.002,0.025,0.002,0.025v14.729c0,0.006-0.002,0.012-0.002,0.02c0,0.006,0.002,0.008,0.002,0.013v0.016h0.002
	c0.021,0.521,0.28,0.854,0.528,1.074c0.781,0.688,2.091,1.073,3.483,1.104c0.66,0,1.332-0.104,1.951-0.365l9.662-4.188
	c0.256-0.104,0.422-0.383,0.422-0.688V18.578C36.55,18.334,36.445,18.103,36.27,17.965z M30.143,15.166
	c-0.019-0.223-0.107-0.431-0.271-0.558c-0.179-0.139-0.404-0.17-0.605-0.083l-9.66,4.184c-0.42,0.182-0.947,0.271-1.486,0.271
	c-0.753,0.001-1.531-0.174-2.074-0.413c-0.193-0.082-0.356-0.175-0.472-0.259c0.042-0.021,0.091-0.041,0.146-0.062l8.787-3.805
	l1.311,0.562v-1.64c0-0.243-0.105-0.475-0.284-0.61c-0.177-0.14-0.407-0.17-0.606-0.084l-9.659,4.184
	c-0.298,0.119-0.554,0.268-0.771,0.482c-0.214,0.209-0.396,0.553-0.394,0.934c0,0.012,0.003,0.027,0.003,0.027v14.729
	c0,0.007-0.001,0.015-0.001,0.021c0,0.004,0.001,0.006,0.001,0.021v0.021h0.002c0.021,0.521,0.279,0.854,0.527,1.071
	c0.781,0.688,2.092,1.062,3.486,1.097c0.375,0,0.754-0.049,1.125-0.119v-13.48c-0.01-0.699,0.271-1.371,0.762-1.855
	c0.319-0.314,0.709-0.563,1.19-0.756L30.143,15.166z"/>
</svg>
