<svg xmlns="http://www.w3.org/2000/svg" xmlns:xlink="http://www.w3.org/1999/xlink" version="1.1" id="Calque_1" x="0px" y="0px" width="100px" height="84.4202898551px" viewBox="0 0 276.252 233.625" enable-background="new 0 0 276.252 233.625" xml:space="preserve">
<g>
	<path d="M150.59,45.375c12.504,0,22.693-10.143,22.693-22.677C173.284,10.173,163.094,0,150.59,0   c-12.56,0-22.707,10.173-22.707,22.698C127.884,35.232,138.031,45.375,150.59,45.375z"/>
	<path d="M145.064,197.108c-3.314,2.213-8.893,6.08-8.893,6.08l-2.761,6.633l-3.863,4.416h-7.19l-17.175,12.76h171.071l-7.735-7.761   l-6.131-6.105l-9.942,0.554l-6.629-7.182c0,0-4.974-8.288-4.974-9.969c0-1.655,1.11-7.765-0.557-8.837   c-1.655-1.132-7.225-4.45-7.225-4.45l-13.262,0.554l-7.228-8.837l-7.19-9.973l-8.841-1.681c0,0-5.569,0.553-7.73,3.314   c-2.26,2.786-7.229,4.994-12.202,7.229c-1.391,0.618-2.825,1.323-4.175,2.018l-66.913-54.536l32.312-62.644l-32.649-47.063H36.526   l-9.02,46.124L14.173,46.885c-2.863-2.31-7.029-1.91-9.394,0.953c-2.31,2.863-1.855,7.033,1.013,9.343l25.878,21.096L15.373,95.88   l1.217,61.397L0.465,216.875c-1.915,7.08,2.259,14.389,9.338,16.295c1.153,0.307,2.357,0.455,3.463,0.455   c5.88,0,11.253-3.893,12.861-9.819l17.074-63.286l2.604-47.849l33.964,40.089l-31.692,58.465   c-3.467,6.48-1.106,14.543,5.369,18.031c2.013,1.106,4.174,1.608,6.335,1.608c4.718,0,9.288-2.511,11.696-6.956l40.286-74.412   l-16.152-19.094l66.632,54.318l-4.475,6.262C157.768,190.982,148.377,194.879,145.064,197.108z M86.666,105.97L72.921,94.767   l25.636-11.169L86.666,105.97z M52.591,35.985l16.584,2.208L47.622,60.342L52.591,35.985z"/>
</g>
</svg>