<?xml version="1.0" encoding="utf-8"?>
<!-- Generator: Adobe Illustrator 16.0.1, SVG Export Plug-In . SVG Version: 6.00 Build 0)  -->
<!DOCTYPE svg PUBLIC "-//W3C//DTD SVG 1.0//EN" "http://www.w3.org/TR/2001/REC-SVG-20010904/DTD/svg10.dtd">
<svg version="1.0" id="Layer_1" xmlns="http://www.w3.org/2000/svg" xmlns:xlink="http://www.w3.org/1999/xlink" x="0px" y="0px"
	 width="57.35px" height="80.252px" viewBox="0 0 57.35 80.252" style="enable-background:new 0 0 57.35 80.252;"
	 xml:space="preserve">
<g>
	<ellipse style="opacity:0.25;fill:#6D6E71;" cx="28.675" cy="77.654" rx="10.572" ry="2.598"/>
	<path style="fill:#009225;" d="M28.674,0C12.838,0,0,12.838,0,28.676C0,44.51,25.088,75.809,25.088,75.809
		c1.969,2.461,5.199,2.461,7.174,0c0,0,25.088-31.297,25.088-47.133C57.346,12.838,44.51,0,28.674,0z"/>
	<path style="fill:#FFFFFF;" d="M43.889,15.243c-0.533-0.489-1.408-0.495-1.952,0L22.938,32.829l-8.001-2.963
		c-0.614-0.217-1.315,0.01-1.669,0.527c-0.375,0.533-0.343,1.25,0.081,1.756l8.78,10.312c0.277,0.321,0.674,0.512,1.092,0.512
		l0.152-0.007c0.392-0.042,0.756-0.244,0.99-0.548L44.04,17.184C44.497,16.597,44.432,15.743,43.889,15.243z M23.22,42.494V42.5l0,0
		V42.494z"/>
</g>
</svg>
